<?xml version="1.0" standalone="no"?>
<!DOCTYPE svg PUBLIC "-//W3C//DTD SVG 1.1//EN" "http://www.w3.org/Graphics/SVG/1.1/DTD/svg11.dtd" >
<svg xmlns="http://www.w3.org/2000/svg" xmlns:xlink="http://www.w3.org/1999/xlink" version="1.1">
<metadata>
Created by FontForge 20170731 at Mon Jul  5 15:57:42 2021
 By Aleksey,,,
Copyright (c) Mark Simonson, 2005. All rights reserved.
</metadata>
<defs>
<font id="ProximaNovaT-Thin" horiz-adv-x="1081" >
  <font-face 
    font-family="Proxima Nova Th"
    font-weight="250"
    font-stretch="normal"
    units-per-em="2048"
    panose-1="2 0 5 6 3 0 0 2 0 4"
    ascent="1618"
    descent="-430"
    x-height="989"
    cap-height="1366"
    bbox="-350 -528 2169 1855"
    underline-thickness="40"
    underline-position="-312"
    unicode-range="U+000D-FB04"
  />
<missing-glyph horiz-adv-x="1079" 
d="M899 -184h-719v1724h719v-1724zM834 -123v1602h-590v-1602h590z" />
    <glyph glyph-name="f_f_j" unicode="ffj" horiz-adv-x="1421" 
d="M770 0h-61v934h-164v55h164v105q0 138 65 215t182 77q72 0 117 -26l-26 -53q-43 24 -91 24q-92 0 -139 -61.5t-47 -175.5v-105h201v-55h-201v-934zM1214 1159q-24 0 -41.5 17.5t-17.5 42.5q0 24 17.5 41.5t41.5 17.5q25 0 42.5 -17t17.5 -42t-17.5 -42.5t-42.5 -17.5z
M1001 -401q-105 0 -188 77l39 52q66 -74 149 -74q82 0 132.5 47t50.5 143v1145h61v-1145q0 -124 -64 -184.5t-180 -60.5zM266 0h-61v934h-164v55h164v105q0 138 65.5 215t182.5 77q50 0 86.5 -12.5t81.5 -48.5l-37 -49q-58 55 -131 55q-93 0 -140 -61.5t-47 -175.5v-105h201
v-55h-201v-934z" />
    <glyph glyph-name="f_j" unicode="fj" horiz-adv-x="917" 
d="M266 0h-61v934h-164v55h164v105q0 138 65.5 215t182.5 77q71 0 116 -26l-26 -53q-43 24 -90 24q-93 0 -140 -61.5t-47 -175.5v-105h201v-55h-201v-934zM711 1159q-24 0 -42 18t-18 42t18 41.5t42 17.5q25 0 42 -17t17 -42t-17 -42.5t-42 -17.5zM498 -401q-106 0 -189 77
l39 52q66 -74 150 -74q82 0 132 47t50 143v1145h61v-1145q0 -124 -63.5 -184.5t-179.5 -60.5z" />
    <glyph glyph-name="f_f" unicode="ff" horiz-adv-x="1007" 
d="M266 0h-61v934h-164v55h164v105q0 138 65.5 215t182.5 77q50 0 86.5 -12.5t81.5 -48.5l-37 -49q-58 55 -131 55q-93 0 -140 -61.5t-47 -175.5v-105h201v-55h-201v-934zM770 0h-61v934h-164v55h164v105q0 138 65 215t182 77q50 0 86.5 -12.5t81.5 -48.5l-37 -49
q-58 55 -131 55q-92 0 -139 -61.5t-47 -175.5v-105h201v-55h-201v-934z" />
    <glyph glyph-name="fi" unicode="fi" horiz-adv-x="917" 
d="M266 0h-61v934h-164v55h164v105q0 138 65.5 215t182.5 77q71 0 116 -26l-26 -53q-43 24 -90 24q-93 0 -140 -61.5t-47 -175.5v-105h201v-55h-201v-934zM711 1159q-24 0 -42 18t-18 42t18 41.5t42 17.5q25 0 42 -17t17 -42t-17 -42.5t-42 -17.5zM741 0h-61v989h61v-989z
" />
    <glyph glyph-name="fl" unicode="fl" horiz-adv-x="917" 
d="M266 0h-61v934h-164v55h164v105q0 138 65.5 215t182.5 77q71 0 116 -26l-26 -53q-43 24 -90 24q-93 0 -140 -61.5t-47 -175.5v-105h201v-55h-201v-934zM741 0h-61v1366h61v-1366z" />
    <glyph glyph-name="f_f_i" unicode="ffi" horiz-adv-x="1421" 
d="M770 0h-61v934h-164v55h164v105q0 138 65 215t182 77q72 0 117 -26l-26 -53q-43 24 -91 24q-92 0 -139 -61.5t-47 -175.5v-105h201v-55h-201v-934zM1214 1159q-24 0 -41.5 17.5t-17.5 42.5q0 24 17.5 41.5t41.5 17.5q25 0 42.5 -17t17.5 -42t-17.5 -42.5t-42.5 -17.5z
M1245 0h-61v989h61v-989zM266 0h-61v934h-164v55h164v105q0 138 65.5 215t182.5 77q50 0 86.5 -12.5t81.5 -48.5l-37 -49q-58 55 -131 55q-93 0 -140 -61.5t-47 -175.5v-105h201v-55h-201v-934z" />
    <glyph glyph-name="f_f_l" unicode="ffl" horiz-adv-x="1421" 
d="M770 0h-61v934h-164v55h164v105q0 138 65 215t182 77q72 0 117 -26l-26 -53q-43 24 -91 24q-92 0 -139 -61.5t-47 -175.5v-105h201v-55h-201v-934zM1245 0h-61v1366h61v-1366zM266 0h-61v934h-164v55h164v105q0 138 65.5 215t182.5 77q50 0 86.5 -12.5t81.5 -48.5
l-37 -49q-58 55 -131 55q-93 0 -140 -61.5t-47 -175.5v-105h201v-55h-201v-934z" />
    <glyph glyph-name="f_b" unicode="fb" horiz-adv-x="1662" 
d="M266 0h-61v934h-164v55h164v105q0 138 65.5 215t182.5 77q71 0 116 -26l-26 -53q-43 24 -90 24q-93 0 -140 -61.5t-47 -175.5v-105h201v-55h-201v-934zM741 227q48 -82 147 -139t210 -57q176 0 275.5 130.5t99.5 332.5t-99.5 333t-275.5 131q-111 0 -210 -58.5
t-147 -141.5v-531zM741 0h-61v1366h61v-547q61 90 155 142.5t202 52.5q199 0 320.5 -143t121.5 -377q0 -235 -121 -377t-321 -142q-111 0 -206.5 54.5t-150.5 136.5v-166z" />
    <glyph glyph-name="f_h" unicode="fh" horiz-adv-x="1585" 
d="M266 0h-61v934h-164v55h164v105q0 138 65.5 215t182.5 77q71 0 116 -26l-26 -53q-43 24 -90 24q-93 0 -140 -61.5t-47 -175.5v-105h201v-55h-201v-934zM1409 0h-61v694q0 147 -65.5 205.5t-190.5 58.5q-98 0 -197 -54.5t-154 -131.5v-772h-61v1366h61v-532q60 72 161 126
t198 54q153 0 231 -75.5t78 -244.5v-694z" />
    <glyph glyph-name="f_k" unicode="fk" horiz-adv-x="1519" 
d="M266 0h-61v934h-164v55h164v105q0 138 65.5 215t182.5 77q71 0 116 -26l-26 -53q-43 24 -90 24q-93 0 -140 -61.5t-47 -175.5v-105h201v-55h-201v-934zM1468 0h-88l-434 498l-205 -189v-309h-61v1366h61v-979l645 602h89l-482 -446z" />
    <glyph glyph-name=".notdef" horiz-adv-x="1079" 
d="M899 -184h-719v1724h719v-1724zM834 -123v1602h-590v-1602h590z" />
    <glyph glyph-name=".null" horiz-adv-x="0" 
 />
    <glyph glyph-name=".null" horiz-adv-x="0" 
 />
    <glyph glyph-name="nonmarkingreturn" horiz-adv-x="682" 
 />
    <glyph glyph-name="CR" unicode="&#xd;" horiz-adv-x="0" 
 />
    <glyph glyph-name="space" unicode=" " horiz-adv-x="532" 
 />
    <glyph glyph-name="exclam" unicode="!" horiz-adv-x="425" 
d="M233 330h-40l-23 1036h86zM213 -18q-28 0 -48 19.5t-20 47.5q0 26 20 46t48 20t48 -20t20 -46q0 -28 -20 -47.5t-48 -19.5z" />
    <glyph glyph-name="quotedbl" unicode="&#x22;" horiz-adv-x="593" 
d="M203 907h-45q-31 403 -31 426q0 22 15 37.5t38 15.5t38 -15.5t15 -37.5zM436 907h-45q-31 403 -31 426q0 22 15.5 37.5t38.5 15.5t38 -15.5t15 -37.5z" />
    <glyph glyph-name="numbersign" unicode="#" horiz-adv-x="1161" 
d="M547 0h-68l133 391h-256l-131 -391h-67l131 391h-236l19 60h237l156 464h-240l17 60h243l129 391h68l-129 -391h254l129 391h68l-132 -391h236l-14 -60h-240l-158 -464h246l-18 -60h-246zM629 451l157 464h-254l-155 -464h252z" />
    <glyph glyph-name="dollar" unicode="$" horiz-adv-x="1177" 
d="M563 -205v180q-146 4 -263 63t-191 155l53 47q68 -83 170 -140t231 -63v651q-55 15 -88.5 25.5t-82.5 28.5t-78.5 35.5t-64 44t-53 57t-31.5 71.5t-13 90q0 155 119.5 249.5t291.5 99.5v184h66v-187q251 -14 393 -190l-51 -47q-124 160 -342 176v-584q53 -15 90.5 -27.5
t85.5 -32.5t80.5 -40t66.5 -50t54.5 -64.5t33.5 -80.5t13 -100q0 -47 -11.5 -93.5t-42 -95t-76.5 -86t-122 -63.5t-172 -31v-182h-66zM981 346q0 59 -20 106.5t-49.5 79t-80 59t-94 44t-108.5 35.5v-633q80 5 143 27t101.5 53t63.5 72t34.5 79t9.5 78zM223 1040
q0 -50 19.5 -90.5t47 -67t77.5 -51t90 -38.5t106 -33v567q-144 -5 -242 -86t-98 -201z" />
    <glyph glyph-name="percent" unicode="%" horiz-adv-x="1452" 
d="M387 719q-136 0 -224.5 94.5t-88.5 237.5q0 145 88.5 240t224.5 95q137 0 225 -95t88 -240q0 -143 -88 -237.5t-225 -94.5zM334 0h-74l873 1366h75zM1065 -25q-136 0 -224.5 94.5t-88.5 237.5q0 145 88.5 240.5t224.5 95.5t224.5 -95.5t88.5 -240.5q0 -143 -88.5 -237.5
t-224.5 -94.5zM387 774q107 0 176.5 81.5t69.5 195.5q0 117 -69 198.5t-177 81.5q-107 0 -176.5 -82t-69.5 -198q0 -113 70 -195t176 -82zM1065 31q108 0 177 81.5t69 194.5q0 117 -69 199t-177 82t-177 -82t-69 -199q0 -113 69 -194.5t177 -81.5z" />
    <glyph glyph-name="ampersand" unicode="&#x26;" horiz-adv-x="1304" 
d="M1210 0h-108q-77 66 -197 182q-164 -207 -407 -207q-173 0 -287.5 96.5t-114.5 270.5q0 64 17.5 119.5t44.5 96.5t70.5 80.5t83.5 66t94 57.5q-119 185 -119 317q0 133 89 220t216 87q124 0 195 -64.5t71 -184.5q0 -41 -10.5 -78t-26.5 -66.5t-43.5 -59t-53 -50.5
t-64 -46t-67.5 -42t-73 -41q-13 -7 -20 -11q74 -108 192 -235q108 -120 205 -217q89 135 162 350l65 -25q-3 -8 -17.5 -46.5t-21 -54t-21 -51.5t-25.5 -58.5t-26 -53.5t-31.5 -58.5t-33.5 -53.5q128 -125 262 -240zM498 37q201 0 356 196q-156 159 -215 230
q-120 134 -199 246q-61 -35 -104.5 -68t-84.5 -77.5t-62 -100t-21 -121.5q0 -74 27 -133t73.5 -96t105 -56.5t124.5 -19.5zM358 1079q0 -117 107 -282q49 26 70.5 38t63.5 37.5t62 42t49 44.5t42 52.5t23.5 57t10.5 68.5q0 91 -53.5 139.5t-140.5 48.5q-97 0 -165.5 -69.5
t-68.5 -176.5z" />
    <glyph glyph-name="quotesingle" unicode="'" horiz-adv-x="360" 
d="M203 907h-45q-31 403 -31 426q0 22 15 37.5t38 15.5t38 -15.5t15 -37.5z" />
    <glyph glyph-name="parenleft" unicode="(" horiz-adv-x="421" 
d="M387 -383l-33 -25q-258 423 -258 906q0 482 258 905l33 -23q-110 -232 -164.5 -429t-54.5 -453q0 -255 54.5 -453.5t164.5 -427.5z" />
    <glyph glyph-name="parenright" unicode=")" horiz-adv-x="421" 
d="M68 -408l-33 25q110 229 164.5 427.5t54.5 453.5q0 256 -54.5 453t-164.5 429l33 23q258 -423 258 -905q0 -483 -258 -906z" />
    <glyph glyph-name="asterisk" unicode="*" horiz-adv-x="675" 
d="M369 838h-62l12 243l-204 -133l-31 53l217 111l-217 111l31 53l204 -133l-12 243h62l-13 -243l205 133l31 -53l-217 -111l217 -111l-31 -53l-205 133z" />
    <glyph glyph-name="plus" unicode="+" horiz-adv-x="1011" 
d="M952 659h-413v-454h-66v454h-414v62h414v442h66v-442h413v-62z" />
    <glyph glyph-name="comma" unicode="," horiz-adv-x="425" 
d="M291 6q0 -73 -37.5 -142t-89.5 -106l-45 37q49 36 78.5 89t29.5 100q-12 -2 -16 -2q-29 0 -47.5 19.5t-18.5 47.5q0 27 18.5 46.5t47.5 19.5q34 0 57 -29t23 -80z" />
    <glyph glyph-name="hyphen" unicode="-" horiz-adv-x="614" 
d="M553 465h-492v61h492v-61z" />
    <glyph glyph-name="period" unicode="." horiz-adv-x="425" 
d="M213 -18q-28 0 -48 19.5t-20 47.5q0 26 20 46t48 20t48 -20t20 -46q0 -28 -20 -47.5t-48 -19.5z" />
    <glyph glyph-name="slash" unicode="/" horiz-adv-x="548" 
d="M63 -41h-63l485 1448h64z" />
    <glyph glyph-name="zero" unicode="0" horiz-adv-x="1239" 
d="M621 -25q-104 0 -188.5 43.5t-139 114t-92 164.5t-53 190t-15.5 195t15.5 195t53 189.5t92 163.5t139 113t188.5 43q87 0 160 -30t125 -82.5t91.5 -120.5t62.5 -148t34.5 -160.5t11.5 -162.5t-11.5 -162t-34.5 -161t-62.5 -149t-91.5 -121.5t-125 -83.5t-160 -30zM621 37
q76 0 139 27.5t107.5 76t77.5 110.5t52 136t28 147t9 148q0 92 -12.5 179t-42.5 172.5t-76 149t-118.5 103t-163.5 39.5t-164 -39.5t-119 -103t-77 -149t-43.5 -172.5t-12.5 -179q0 -75 9 -148.5t28.5 -147t52.5 -135.5t77.5 -110.5t108.5 -76t140 -27.5z" />
    <glyph glyph-name="one" unicode="1" horiz-adv-x="567" 
d="M387 0h-65v1272l-216 -236l-45 47l265 283h61v-1366z" />
    <glyph glyph-name="two" unicode="2" horiz-adv-x="1181" 
d="M983 0h-862v57q88 73 143 119.5t132 113t125 112.5t108.5 106.5t97.5 107t76.5 101.5t61 102t35 98t13.5 99q0 79 -30 140.5t-80 97t-108.5 53.5t-121.5 18q-127 0 -224.5 -49.5t-151.5 -134.5l-54 39q64 96 177 151t255 55q69 0 137 -20.5t129.5 -62.5t99.5 -116.5
t38 -170.5q0 -93 -44.5 -193t-102 -180t-176 -195t-199.5 -185t-240 -202h766v-61z" />
    <glyph glyph-name="three" unicode="3" horiz-adv-x="1087" 
d="M516 -25q-153 0 -268.5 65t-173.5 165l57 33q56 -91 154 -146t231 -55q170 0 270.5 87t100.5 238q0 81 -32 143t-87.5 98.5t-125 54.5t-150.5 18q-95 0 -115 -2v65q20 -2 115 -2q100 0 182 29t137 97t55 167q0 136 -102 215.5t-248 79.5q-119 0 -206.5 -45t-166.5 -139
l-51 41q72 92 181 148t243 56q109 0 202 -39.5t153.5 -122.5t60.5 -194q0 -63 -20.5 -116.5t-51 -88t-71.5 -60.5t-77 -39t-71 -19q36 -3 76 -17t82.5 -42t76 -66.5t55 -95.5t21.5 -124q0 -171 -116 -279t-320 -108z" />
    <glyph glyph-name="four" unicode="4" horiz-adv-x="1073" 
d="M788 0h-65v399h-645v68l624 899h86v-905h207v-62h-207v-399zM723 461v831l-573 -831h573z" />
    <glyph glyph-name="five" unicode="5" horiz-adv-x="1175" 
d="M608 -25q-161 0 -266 59.5t-176 170.5l53 39q69 -104 161.5 -155.5t227.5 -51.5q157 0 263 105.5t106 263.5q0 170 -104.5 271t-264.5 101q-194 0 -344 -141l-55 33v696h745v-61h-680v-596q57 56 144.5 93.5t189.5 37.5q86 0 163.5 -28t138.5 -81t96.5 -137t35.5 -188
q0 -97 -36 -179t-96 -136.5t-138.5 -85t-163.5 -30.5z" />
    <glyph glyph-name="six" unicode="6" horiz-adv-x="1181" 
d="M608 -25q-103 0 -185 39.5t-135.5 105.5t-89 158t-50.5 192t-15 212q0 104 15 201t51.5 190t91 161.5t139.5 110t191 41.5q128 0 212 -47.5t146 -136.5l-49 -43q-56 80 -127 123t-182 43q-93 0 -167 -39.5t-121 -103.5t-78 -152t-43.5 -178.5t-12.5 -189.5q0 -49 2 -74
q22 38 61 78t92 78t122.5 62.5t139.5 24.5q193 0 313 -110t120 -320q0 -80 -29 -155t-83 -136t-139.5 -98t-189.5 -37zM608 37q92 0 166 33.5t118 88t67.5 117t23.5 125.5q0 180 -101 274.5t-268 94.5q-121 0 -231.5 -74t-173.5 -192q6 -65 21.5 -127t47.5 -125t75.5 -109.5
t109 -76t145.5 -29.5z" />
    <glyph glyph-name="seven" unicode="7" horiz-adv-x="1001" 
d="M324 0h-74l600 1305h-776v61h854v-45z" />
    <glyph glyph-name="eight" unicode="8" horiz-adv-x="1148" 
d="M575 -25q-194 0 -317 101.5t-123 261.5q0 72 30 134.5t81.5 107.5t112.5 76t130 49q-65 15 -121.5 42.5t-105 67.5t-76.5 97t-28 124q0 86 36 154.5t96 110t133 63.5t152 22q78 0 150.5 -22t133.5 -63.5t97.5 -110t36.5 -154.5q0 -67 -28 -124t-76.5 -97t-105 -67.5
t-121.5 -42.5q69 -18 130 -49t111.5 -76t80.5 -107.5t30 -134.5q0 -158 -124 -260.5t-315 -102.5zM575 735q35 7 70 16.5t89.5 33.5t94.5 55t69.5 82.5t29.5 113.5q0 132 -102.5 210.5t-250.5 78.5q-150 0 -251 -78.5t-101 -210.5q0 -52 19.5 -96.5t54 -75.5t71 -54.5
t80.5 -38.5t71.5 -23t55.5 -13zM575 37q150 0 261.5 83t111.5 218q0 56 -21.5 106t-57 84.5t-77 62.5t-85 45.5t-76.5 27t-56 12.5q-30 -4 -71.5 -16t-96 -39.5t-99.5 -64t-76 -94t-31 -124.5q0 -91 53 -160.5t137.5 -105t183.5 -35.5z" />
    <glyph glyph-name="nine" unicode="9" horiz-adv-x="1181" 
d="M561 -23q-128 0 -212 47.5t-146 137.5l49 43q56 -80 127 -123t182 -43q93 0 167 39.5t121 103.5t78 152t43.5 178.5t12.5 189.5q0 49 -2 74q-31 -52 -87.5 -105t-146.5 -96t-182 -43q-193 0 -312.5 110.5t-119.5 320.5q0 80 29 155t82.5 136t139 98t189.5 37
q103 0 185 -39.5t135.5 -105.5t89.5 -158t51 -192t15 -212q0 -104 -15 -201t-51.5 -190t-91 -161.5t-139.5 -110.5t-191 -42zM567 594q121 0 232 74.5t174 191.5q-6 65 -22 127t-47.5 125t-75 109.5t-109.5 76t-146 29.5q-74 0 -137 -22.5t-105.5 -59t-73 -84.5t-44.5 -98
t-14 -100q0 -180 100.5 -274.5t267.5 -94.5z" />
    <glyph glyph-name="colon" unicode=":" horiz-adv-x="425" 
d="M213 870q-28 0 -48 20t-20 46q0 28 20 48t48 20t48 -20t20 -48q0 -26 -20 -46t-48 -20zM213 -18q-28 0 -48 19.5t-20 47.5q0 26 20 46t48 20t48 -20t20 -46q0 -28 -20 -47.5t-48 -19.5z" />
    <glyph glyph-name="semicolon" unicode=";" horiz-adv-x="425" 
d="M213 870q-28 0 -48 20t-20 46q0 28 20 48t48 20t48 -20t20 -48q0 -26 -20 -46t-48 -20zM291 6q0 -73 -37.5 -142t-89.5 -106l-45 37q49 36 78.5 89t29.5 100q-12 -2 -16 -2q-29 0 -47.5 19.5t-18.5 47.5q0 27 18.5 46.5t47.5 19.5q34 0 57 -29t23 -80z" />
    <glyph glyph-name="less" unicode="&#x3c;" horiz-adv-x="1011" 
d="M952 184l-893 480v43l893 481v-74l-809 -430l809 -426v-74z" />
    <glyph glyph-name="equal" unicode="=" horiz-adv-x="1011" 
d="M952 856h-893v62h893v-62zM952 451h-893v61h893v-61z" />
    <glyph glyph-name="greater" unicode="&#x3e;" horiz-adv-x="1011" 
d="M952 664l-893 -480v74l809 426l-809 430v74l893 -481v-43z" />
    <glyph glyph-name="question" unicode="?" horiz-adv-x="956" 
d="M461 344q-90 67 -90 156q0 56 23.5 103.5t61.5 81.5t84 66l92 64t84 67.5t61.5 84t23.5 106.5q0 107 -82 179.5t-227 72.5q-140 0 -231 -51t-161 -150l-47 43q153 219 439 219q173 0 276.5 -91.5t103.5 -221.5q0 -64 -24.5 -119t-63 -94t-85.5 -73.5t-94 -66t-85.5 -63
t-63 -71.5t-24.5 -86q0 -25 18 -56t50 -53zM455 -18q-28 0 -48 19.5t-20 47.5q0 26 20 46t48 20q27 0 47 -19.5t20 -46.5q0 -28 -19.5 -47.5t-47.5 -19.5z" />
    <glyph glyph-name="at" unicode="@" horiz-adv-x="1603" 
d="M721 -143q-183 0 -332 85t-233 232t-84 326q0 163 67.5 313.5t179 258t260.5 171.5t306 64q141 0 262 -52t204.5 -142t131 -213.5t47.5 -262.5q0 -216 -89 -339.5t-220 -123.5q-79 0 -128 53t-49 127v13q-59 -82 -152.5 -137.5t-197.5 -55.5q-139 0 -225 88t-86 236
q0 108 43.5 207t113.5 168t160 110t181 41q100 0 169 -50.5t99 -127.5l29 141h61l-127 -602q-2 -12 -2 -37q0 -54 32.5 -86.5t78.5 -32.5q27 0 57 11t65 40.5t62.5 73.5t46 118.5t18.5 166.5q0 171 -74 309t-209.5 217.5t-307.5 79.5q-148 0 -286 -62.5t-238.5 -164.5
t-161 -238t-60.5 -278q0 -164 76 -298t213 -211t307 -77q199 0 385 117l33 -47q-200 -129 -426 -129zM694 229q115 0 210 67t159 161l70 321q-23 73 -87.5 132t-164.5 59q-115 0 -215.5 -68t-157.5 -176.5t-57 -226.5q0 -119 64.5 -194t178.5 -75z" />
    <glyph glyph-name="A" unicode="A" horiz-adv-x="1302" 
d="M1260 0h-76l-152 367h-762l-151 -367h-76l569 1366h78zM1008 428l-357 862l-356 -862h713z" />
    <glyph glyph-name="B" unicode="B" horiz-adv-x="1228" 
d="M702 0h-522v1366h514q168 0 270.5 -91.5t102.5 -256.5q0 -122 -72 -207.5t-170 -105.5q109 -17 189 -117t80 -219q0 -173 -105.5 -271t-286.5 -98zM694 733q145 0 223 80t78 205q0 124 -78.5 205.5t-222.5 81.5h-448v-572h448zM702 61q150 0 235 82.5t85 223.5
q0 126 -84.5 215.5t-235.5 89.5h-456v-611h456z" />
    <glyph glyph-name="C" unicode="C" horiz-adv-x="1366" 
d="M815 -25q-141 0 -266.5 52t-217 143.5t-145 224.5t-53.5 287t53.5 287t145 224.5t217 143.5t266.5 52q288 0 475 -215l-51 -46q-73 92 -185.5 145.5t-238.5 53.5q-127 0 -239.5 -47t-194 -130.5t-129 -204.5t-47.5 -263q0 -140 47.5 -261t129 -205t194 -131.5
t239.5 -47.5q126 0 238.5 53.5t185.5 145.5l53 -43q-194 -218 -477 -218z" />
    <glyph glyph-name="D" unicode="D" horiz-adv-x="1400" 
d="M586 0h-406v1366h406q155 0 284.5 -55.5t215 -149.5t133 -218t47.5 -261q0 -139 -47.5 -262.5t-133 -217t-215 -148t-284.5 -54.5zM586 61q142 0 258 48.5t192 132.5t117 197t41 243q0 103 -25.5 196t-77 171t-124 135t-170 89t-211.5 32h-340v-1244h340z" />
    <glyph glyph-name="E" unicode="E" horiz-adv-x="1142" 
d="M1016 0h-836v1366h836v-61h-770v-572h755v-61h-755v-611h770v-61z" />
    <glyph glyph-name="F" unicode="F" horiz-adv-x="1091" 
d="M246 0h-66v1366h836v-61h-770v-572h755v-61h-755v-672z" />
    <glyph glyph-name="G" unicode="G" horiz-adv-x="1449" 
d="M815 -27q-141 0 -266.5 52.5t-217 144t-145 225t-53.5 287.5t53.5 287t145 224.5t217 143.5t266.5 52q295 0 500 -211l-43 -45q-80 91 -200.5 142.5t-256.5 51.5q-127 0 -239.5 -47t-194 -130.5t-129 -204.5t-47.5 -263q0 -140 47.5 -261.5t129 -205.5t194 -132
t239.5 -48q137 0 250 54.5t184 129.5v375h-563v61h629v-462q-91 -102 -221 -161t-279 -59z" />
    <glyph glyph-name="H" unicode="H" horiz-adv-x="1423" 
d="M1243 0h-65v672h-932v-672h-66v1366h66v-633h932v633h65v-1366z" />
    <glyph glyph-name="I" unicode="I" horiz-adv-x="425" 
d="M246 0h-66v1366h66v-1366z" />
    <glyph glyph-name="J" unicode="J" horiz-adv-x="952" 
d="M379 -25q-112 0 -196 43.5t-150 135.5l55 49q116 -166 291 -166q150 0 239 94.5t89 247.5v987h65v-987q0 -99 -31.5 -177.5t-86 -127t-125 -74t-150.5 -25.5z" />
    <glyph glyph-name="K" unicode="K" horiz-adv-x="1169" 
d="M1106 0h-88l-608 672l-164 -178v-494h-66v1366h66v-788l710 788h88l-593 -653z" />
    <glyph glyph-name="L" unicode="L" horiz-adv-x="1021" 
d="M932 0h-752v1366h66v-1305h686v-61z" />
    <glyph glyph-name="M" unicode="M" horiz-adv-x="1576" 
d="M1397 0h-66v1288l-532 -1288h-21l-532 1288v-1288h-66v1366h105l503 -1223l504 1223h105v-1366z" />
    <glyph glyph-name="N" unicode="N" horiz-adv-x="1413" 
d="M1233 0h-66l-921 1260v-1260h-66v1366h66l921 -1247v1247h66v-1366z" />
    <glyph glyph-name="O" unicode="O" horiz-adv-x="1564" 
d="M782 -25q-194 0 -343 94.5t-227.5 254.5t-78.5 358t78.5 358t227.5 254.5t343 94.5q193 0 342.5 -94.5t228.5 -255t79 -357.5t-79 -357.5t-228.5 -255t-342.5 -94.5zM782 37q172 0 304 84t203 230t71 331q0 187 -71 333t-203 229t-304 83q-174 0 -306 -83t-201.5 -229
t-69.5 -333q0 -185 69.5 -331t201.5 -230t306 -84z" />
    <glyph glyph-name="P" unicode="P" horiz-adv-x="1136" 
d="M246 0h-66v1366h473q184 0 292 -112t108 -275q0 -106 -47 -193t-139.5 -140.5t-213.5 -53.5h-407v-592zM651 653q149 0 239.5 91.5t90.5 234.5t-90.5 234.5t-239.5 91.5h-405v-652h405z" />
    <glyph glyph-name="Q" unicode="Q" horiz-adv-x="1564" 
d="M782 -25q-194 0 -343 94.5t-227.5 254.5t-78.5 358t78.5 358t227.5 254.5t343 94.5q193 0 342.5 -94.5t228.5 -255t79 -357.5q0 -157 -52.5 -292.5t-148.5 -233.5l158 -156l-46 -47l-159 160q-170 -138 -402 -138zM782 37q205 0 355 121l-226 227l47 47l228 -229
q84 87 129 209.5t45 269.5q0 187 -71 333t-203 229t-304 83q-174 0 -306 -83t-201.5 -229t-69.5 -333q0 -185 69.5 -331t201.5 -230t306 -84z" />
    <glyph glyph-name="R" unicode="R" horiz-adv-x="1185" 
d="M1073 0h-84l-416 590h-327v-590h-66v1366h471q173 0 288.5 -103t115.5 -284t-115.5 -285t-288.5 -104zM651 651q149 0 240.5 92.5t91.5 235.5t-91.5 234.5t-240.5 91.5h-405v-654h405z" />
    <glyph glyph-name="S" unicode="S" horiz-adv-x="1177" 
d="M586 -25q-153 0 -276 59.5t-201 158.5l53 47q72 -87 180 -145t244 -58q112 0 193.5 29.5t123 77.5t60 98t18.5 104q0 72 -28.5 127t-76.5 89t-110 60t-131 45.5t-137.5 39t-130.5 46.5t-110 62.5t-76.5 92.5t-28.5 132q0 107 60.5 188t157 121t210.5 40q286 0 442 -193
l-51 -47q-137 178 -391 178q-151 0 -254 -81t-103 -206q0 -79 46 -133.5t119 -85.5t161.5 -56t177 -55t161.5 -71t119 -115.5t46 -177.5q0 -50 -12.5 -98t-46 -98.5t-84.5 -88.5t-134.5 -62t-189.5 -24z" />
    <glyph glyph-name="T" unicode="T" horiz-adv-x="1144" 
d="M604 0h-65v1305h-461v61h989v-61h-463v-1305z" />
    <glyph glyph-name="U" unicode="U" horiz-adv-x="1376" 
d="M688 -25q-246 0 -377 143.5t-131 399.5v848h66v-848q0 -229 114 -355t328 -126t328 126t114 355v848h66v-848q0 -257 -131 -400t-377 -143z" />
    <glyph glyph-name="V" unicode="V" horiz-adv-x="1302" 
d="M690 0h-78l-569 1366h76l532 -1290l533 1290h76z" />
    <glyph glyph-name="W" unicode="W" horiz-adv-x="1744" 
d="M1305 0h-78l-355 1243l-354 -1243h-78l-389 1366h72l356 -1268l359 1268h69l359 -1268l356 1268h72z" />
    <glyph glyph-name="X" unicode="X" horiz-adv-x="1306" 
d="M1255 0h-86l-516 651l-516 -651h-86l565 700l-534 666h88l483 -612l484 612h88l-535 -664z" />
    <glyph glyph-name="Y" unicode="Y" horiz-adv-x="1249" 
d="M657 0h-65v592l-549 774h84l498 -709l497 709h84l-549 -774v-592z" />
    <glyph glyph-name="Z" unicode="Z" horiz-adv-x="1183" 
d="M1075 0h-966v61l874 1244h-874v61h952v-61l-877 -1244h891v-61z" />
    <glyph glyph-name="bracketleft" unicode="[" horiz-adv-x="434" 
d="M399 -389h-329v1778h329v-62h-268v-1655h268v-61z" />
    <glyph glyph-name="backslash" unicode="\" horiz-adv-x="548" 
d="M485 -41l-485 1448h63l486 -1448h-64z" />
    <glyph glyph-name="bracketright" unicode="]" horiz-adv-x="434" 
d="M365 -389h-330v61h268v1655h-268v62h330v-1778z" />
    <glyph glyph-name="asciicircum" unicode="^" horiz-adv-x="868" 
d="M829 682h-69l-326 629l-325 -629h-70l369 684h53z" />
    <glyph glyph-name="underscore" unicode="_" horiz-adv-x="1155" 
d="M1161 -143h-1167v61h1167v-61z" />
    <glyph glyph-name="grave" unicode="`" horiz-adv-x="419" 
d="M420 1139h-62l-358 295h92z" />
    <glyph glyph-name="a" unicode="a" horiz-adv-x="1052" 
d="M877 0h-62v121q-134 -146 -342 -146q-89 0 -166.5 37.5t-128.5 114.5t-51 178q0 151 103 240.5t243 89.5q208 0 342 -146v224q0 116 -79.5 180.5t-198.5 64.5q-98 0 -174 -36.5t-144 -118.5l-47 41q75 88 159.5 129t205.5 41q153 0 246.5 -76.5t93.5 -222.5v-715zM489 31
q99 0 184.5 38.5t141.5 112.5v246q-56 74 -141.5 113t-184.5 39q-132 0 -213 -78.5t-81 -196.5t81 -196t213 -78z" />
    <glyph glyph-name="b" unicode="b" horiz-adv-x="1159" 
d="M238 227q48 -82 146.5 -139t209.5 -57q176 0 275.5 130.5t99.5 332.5t-99.5 333t-275.5 131q-110 0 -209 -58.5t-147 -141.5v-531zM238 0h-62v1366h62v-547q61 90 154.5 142.5t201.5 52.5q199 0 320.5 -143t121.5 -377q0 -235 -121 -377t-321 -142q-111 0 -206 54.5
t-150 136.5v-166z" />
    <glyph glyph-name="c" unicode="c" horiz-adv-x="1009" 
d="M590 -25q-140 0 -247.5 71t-163.5 189t-56 261t56 260t163.5 187.5t247.5 70.5q115 0 192.5 -41t145.5 -125l-45 -37q-58 79 -128.5 113t-160.5 34q-124 0 -216.5 -62t-140 -166t-47.5 -234q0 -200 109.5 -332.5t294.5 -132.5q180 0 289 149l45 -39q-68 -84 -145.5 -125
t-192.5 -41z" />
    <glyph glyph-name="d" unicode="d" horiz-adv-x="1159" 
d="M983 0h-61v166q-54 -82 -150 -136.5t-207 -54.5q-200 0 -321 142t-121 377q0 234 121.5 377t320.5 143q108 0 202 -52.5t155 -142.5v547h61v-1366zM565 31q111 0 210 57t147 139v531q-48 83 -147 141.5t-210 58.5q-176 0 -275.5 -131t-99.5 -333t99.5 -332.5
t275.5 -130.5z" />
    <glyph glyph-name="e" unicode="e" horiz-adv-x="1169" 
d="M608 -25q-214 0 -349.5 147t-135.5 374q0 142 60 260.5t167.5 188t237.5 69.5q110 0 199 -42t145 -114.5t85.5 -165t29.5 -196.5v-21h-854q3 -122 53 -222t145 -161t217 -61q204 0 344 149l37 -39q-79 -82 -170 -124t-211 -42zM981 530q0 58 -15 117.5t-47 115.5t-77 99
t-111.5 69.5t-144.5 26.5q-74 0 -137.5 -26t-109 -68.5t-78.5 -98.5t-49.5 -115.5t-18.5 -119.5h788z" />
    <glyph glyph-name="f" unicode="f" horiz-adv-x="503" 
d="M266 0h-61v934h-164v55h164v105q0 138 65.5 215t182.5 77q50 0 86.5 -12.5t81.5 -48.5l-37 -49q-58 55 -131 55q-93 0 -140 -61.5t-47 -175.5v-105h201v-55h-201v-934z" />
    <glyph glyph-name="g" unicode="g" horiz-adv-x="1159" 
d="M565 -401q-130 0 -213 30.5t-166 118.5l45 51q64 -79 140.5 -112t193.5 -33q158 0 257.5 84.5t99.5 255.5v172q-55 -83 -150.5 -139t-206.5 -56q-199 0 -320.5 143t-121.5 378q0 234 121.5 378t320.5 144q108 0 202 -52.5t155 -142.5v170h61v-995q0 -202 -113 -298.5
t-305 -96.5zM565 27q111 0 210 58.5t147 141.5v531q-48 83 -147 141.5t-210 58.5q-118 0 -204 -63t-128.5 -167t-42.5 -236q0 -202 99.5 -333.5t275.5 -131.5z" />
    <glyph glyph-name="h" unicode="h" 
d="M905 0h-61v694q0 147 -65.5 205.5t-190.5 58.5q-98 0 -196.5 -54.5t-153.5 -131.5v-772h-62v1366h62v-532q60 73 160.5 126.5t197.5 53.5q153 0 231 -75.5t78 -244.5v-694z" />
    <glyph glyph-name="i" unicode="i" horiz-adv-x="413" 
d="M207 1159q-24 0 -42 18t-18 42t18 41.5t42 17.5q25 0 42 -17t17 -42t-17 -42.5t-42 -17.5zM238 0h-62v989h62v-989z" />
    <glyph glyph-name="j" unicode="j" horiz-adv-x="413" 
d="M207 1159q-24 0 -42 18t-18 42t18 41.5t42 17.5q25 0 42 -17t17 -42t-17 -42.5t-42 -17.5zM-6 -401q-106 0 -189 77l39 52q66 -74 150 -74q82 0 132 47t50 143v1145h62v-1145q0 -124 -64 -184.5t-180 -60.5z" />
    <glyph glyph-name="k" unicode="k" horiz-adv-x="1015" 
d="M965 0h-88l-435 498l-204 -189v-309h-62v1366h62v-979l645 602h88l-482 -446z" />
    <glyph glyph-name="l" unicode="l" horiz-adv-x="413" 
d="M238 0h-62v1366h62v-1366z" />
    <glyph glyph-name="m" unicode="m" horiz-adv-x="1576" 
d="M1401 0h-62v713q0 245 -213 245q-82 0 -171.5 -54t-135.5 -130v-774h-61v713q0 245 -213 245q-81 0 -168.5 -54.5t-138.5 -131.5v-772h-62v989h62v-155q38 60 129.5 120t187.5 60q109 0 174 -55.5t82 -133.5q45 74 137 131.5t189 57.5q264 0 264 -301v-713z" />
    <glyph glyph-name="n" unicode="n" 
d="M905 0h-61v690q0 147 -66 207.5t-190 60.5q-98 0 -196.5 -54.5t-153.5 -131.5v-772h-62v989h62v-155q60 73 160.5 126.5t197.5 53.5q153 0 231 -77t78 -247v-690z" />
    <glyph glyph-name="o" unicode="o" horiz-adv-x="1167" 
d="M584 -25q-136 0 -242 69.5t-162.5 188t-56.5 263.5t56.5 262.5t162.5 186.5t242 69q137 0 243 -69t161.5 -186t55.5 -263t-55.5 -264t-161.5 -187.5t-243 -69.5zM584 31q92 0 168 38.5t124.5 103.5t74.5 148t26 175q0 91 -26 173.5t-74.5 147t-124.5 103t-168 38.5
q-121 0 -212.5 -66t-136.5 -170t-45 -226q0 -123 45 -227.5t136.5 -171t212.5 -66.5z" />
    <glyph glyph-name="p" unicode="p" horiz-adv-x="1150" 
d="M594 -25q-108 0 -201.5 52.5t-154.5 142.5v-547h-62v1366h62v-166q55 82 150 136.5t206 54.5q200 0 321 -141.5t121 -376.5q0 -234 -121.5 -377.5t-320.5 -143.5zM594 31q176 0 275.5 131.5t99.5 333.5t-99.5 332t-275.5 130q-111 0 -209.5 -57t-146.5 -139v-531
q48 -83 147 -141.5t209 -58.5z" />
    <glyph glyph-name="q" unicode="q" horiz-adv-x="1150" 
d="M557 31q110 0 209 58.5t147 141.5v531q-48 82 -146.5 139t-209.5 57q-176 0 -275.5 -130t-99.5 -332t99.5 -333.5t275.5 -131.5zM557 -25q-199 0 -320.5 143.5t-121.5 377.5q0 235 121 376.5t321 141.5q111 0 206 -54.5t150 -136.5v166h62v-1366h-62v547
q-61 -90 -154.5 -142.5t-201.5 -52.5z" />
    <glyph glyph-name="r" unicode="r" horiz-adv-x="622" 
d="M238 0h-62v989h62v-180q150 199 340 199v-74q-18 2 -50 2q-76 0 -165.5 -62t-124.5 -133v-741z" />
    <glyph glyph-name="s" unicode="s" horiz-adv-x="929" 
d="M453 -25q-118 0 -204 37t-159 121l49 45q49 -66 130 -106.5t184 -40.5q134 0 213 64.5t79 164.5q0 61 -35 104t-91 66t-123.5 41t-135 38t-123.5 47t-91 76.5t-35 119.5q0 113 90 187.5t245 74.5q225 0 340 -150l-45 -41q-44 63 -120.5 99t-174.5 36q-126 0 -200 -58
t-74 -148q0 -49 27.5 -85t72 -55.5t101.5 -37.5t116.5 -31t116.5 -35.5t101.5 -51t72 -79t27.5 -117.5q0 -123 -91 -204t-263 -81z" />
    <glyph glyph-name="t" unicode="t" horiz-adv-x="524" 
d="M356 -25q-84 0 -126 52t-42 147v760h-163v55h163v271h62v-271h201v-55h-201v-760q0 -66 26.5 -104.5t79.5 -38.5q71 0 117 53l37 -47q-65 -62 -154 -62z" />
    <glyph glyph-name="u" unicode="u" 
d="M905 0h-61v152q-68 -76 -164.5 -126.5t-194.5 -50.5q-153 0 -231 75.5t-78 244.5v694h62v-694q0 -147 65.5 -205.5t190.5 -58.5q99 0 197.5 52t152.5 128v778h61v-989z" />
    <glyph glyph-name="v" unicode="v" horiz-adv-x="964" 
d="M518 0h-72l-423 989h71l389 -917l387 917h72z" />
    <glyph glyph-name="w" unicode="w" horiz-adv-x="1441" 
d="M1069 0h-49l-299 897l-299 -897h-49l-328 989h68l286 -893l297 893h49l297 -893l287 893h68z" />
    <glyph glyph-name="x" unicode="x" horiz-adv-x="966" 
d="M922 0h-80l-359 467l-358 -467h-80l404 508l-381 481h79l336 -438l336 438h80l-381 -481z" />
    <glyph glyph-name="y" unicode="y" horiz-adv-x="964" 
d="M102 -387l13 57q37 -16 86 -16q52 0 87 29t68 106l90 205l-423 995h71l389 -917l387 917h72l-524 -1222q-74 -168 -217 -168q-55 0 -99 14z" />
    <glyph glyph-name="z" unicode="z" horiz-adv-x="954" 
d="M831 0h-708v55l629 879h-629v55h700v-55l-633 -879h641v-55z" />
    <glyph glyph-name="braceleft" unicode="{" horiz-adv-x="485" 
d="M451 -389h-127q-79 0 -141 65.5t-62 165.5v480q0 61 -28 104t-79 43v61q51 0 79 43.5t28 104.5v479q0 100 62 166t141 66h127v-62h-127q-58 0 -100 -49t-42 -121v-479q0 -139 -92 -178q92 -39 92 -178v-480q0 -71 42 -120.5t100 -49.5h127v-61z" />
    <glyph glyph-name="bar" unicode="|" horiz-adv-x="421" 
d="M242 -41h-62v1448h62v-1448z" />
    <glyph glyph-name="braceright" unicode="}" horiz-adv-x="485" 
d="M35 -389v61h127q58 0 99.5 49.5t41.5 120.5v480q0 139 92 178q-92 39 -92 178v479q0 72 -41.5 121t-99.5 49h-127v62h127q79 0 141 -66t62 -166v-479q0 -62 27.5 -105t78.5 -43v-61q-51 0 -78.5 -42.5t-27.5 -104.5v-480q0 -100 -62 -165.5t-141 -65.5h-127z" />
    <glyph glyph-name="asciitilde" unicode="~" horiz-adv-x="1015" 
d="M897 1366l61 -6q-10 -103 -27 -181t-46.5 -147.5t-77.5 -107t-113 -37.5q-50 0 -88.5 23t-61.5 59t-41 80.5t-34 88.5t-34 80t-46.5 59t-66.5 23q-86 0 -134 -103.5t-69 -313.5l-62 10q10 102 27.5 180t47 146.5t78 105.5t112.5 37q69 0 115 -43t70 -104t45 -122t56 -104
t86 -43q86 0 134 104t69 316z" />
    <glyph glyph-name="nbspace" unicode="&#xa0;" horiz-adv-x="532" 
 />
    <glyph glyph-name="exclamdown" unicode="&#xa1;" horiz-adv-x="425" 
d="M170 -377l23 1036h40l23 -1036h-86zM145 940q0 28 20 48t48 20t48 -20t20 -48q0 -26 -20 -46t-48 -20t-48 20t-20 46z" />
    <glyph glyph-name="cent" unicode="&#xa2;" horiz-adv-x="1009" 
d="M537 -205v185q-188 20 -301 166t-113 350t113 349t301 165v147h61v-143q111 -1 186.5 -42.5t143.5 -123.5l-45 -37q-58 77 -127.5 111t-157.5 36v-927q176 0 285 149l45 -39q-68 -82 -143.5 -123.5t-186.5 -42.5v-180h-61zM190 496q0 -120 40.5 -219t120 -164.5
t186.5 -79.5v921q-161 -21 -254 -148t-93 -310z" />
    <glyph glyph-name="sterling" unicode="&#xa3;" horiz-adv-x="1005" 
d="M35 547v61h293q-18 21 -56.5 60t-62.5 66.5t-51 68.5t-40.5 90.5t-13.5 107.5q0 74 31 143.5t85.5 123t135.5 86t174 32.5q114 0 213 -58.5t146 -153.5l-53 -37q-31 73 -115 130.5t-191 57.5q-148 0 -253 -87.5t-105 -236.5q0 -68 24.5 -129t53 -96t77 -87.5t70.5 -80.5
h312v-61h-273q33 -64 33 -131q0 -102 -46 -171.5t-130 -133.5q58 20 113 20q59 0 115.5 -24.5t109.5 -49t106 -24.5q65 0 126.5 28t86.5 60l37 -55q-98 -95 -254 -95q-63 0 -111 15.5t-74 34t-72.5 34t-106.5 15.5q-80 0 -244 -84l-29 67q155 66 233.5 160.5t78.5 202.5
q0 68 -37 131h-336z" />
    <glyph glyph-name="currency" unicode="&#xa4;" horiz-adv-x="1181" 
d="M590 203q-194 0 -318 121l-163 -164l-43 43l165 166q-102 130 -102 313q0 187 104 315l-170 170l43 43l168 -170q129 119 316 119q189 0 315 -117l166 166l43 -43l-168 -168q105 -130 105 -315q0 -182 -103 -313l166 -166l-43 -43l-164 164q-127 -121 -317 -121zM590 264
q122 0 213.5 60t135.5 153.5t44 204.5q0 110 -44 203t-135.5 153t-213.5 60q-121 0 -212.5 -60t-136 -153t-44.5 -203q0 -111 44.5 -204.5t136 -153.5t212.5 -60z" />
    <glyph glyph-name="yen" unicode="&#xa5;" horiz-adv-x="1249" 
d="M657 0h-65v264h-549v62h549v266h-549v61h504l-504 713h84l498 -709l497 709h84l-506 -713h506v-61h-549v-266h549v-62h-549v-264z" />
    <glyph glyph-name="brokenbar" unicode="&#xa6;" horiz-adv-x="421" 
d="M242 -41h-62v647h62v-647zM242 760h-62v647h62v-647z" />
    <glyph glyph-name="section" unicode="&#xa7;" horiz-adv-x="929" 
d="M807 627q0 -181 -205 -260q102 -38 153.5 -95.5t51.5 -152.5q0 -133 -96.5 -209t-257.5 -76q-71 0 -128 12t-100 36t-72.5 49t-62.5 61l49 45q111 -148 314 -148q129 0 210.5 63t81.5 167q0 48 -21.5 84.5t-58.5 59.5t-84.5 40t-100 31l-105 28t-100 34t-84.5 47
t-58.5 69.5t-21.5 97.5q0 107 72.5 173.5t193.5 93.5q-131 36 -198.5 91t-67.5 156q0 110 87.5 186t247.5 76q117 0 203 -42t137 -107l-45 -41q-50 69 -128 102t-167 33q-120 0 -197 -58.5t-77 -152.5q0 -44 21.5 -77t58.5 -53.5t84.5 -35.5t100.5 -28t105.5 -27t100 -35.5
t84.5 -51t58.5 -76.5t21.5 -109zM745 633q0 41 -18 74.5t-42 54.5t-67.5 40.5t-73.5 28.5t-81 23q-161 -42 -226 -102.5t-65 -145.5q0 -38 19 -68t42 -49t73.5 -38t82.5 -27.5t99 -25.5q29 -7 44 -11q105 46 159 103.5t54 142.5z" />
    <glyph glyph-name="dieresis" unicode="&#xa8;" horiz-adv-x="516" 
d="M522 1225q0 -23 -17 -40.5t-40 -17.5t-40 17.5t-17 40.5t17 40t40 17t40 -17t17 -40zM109 1225q0 -23 -17.5 -40.5t-40.5 -17.5t-40 17.5t-17 40.5t17 40t40 17t40.5 -17t17.5 -40z" />
    <glyph glyph-name="copyright" unicode="&#xa9;" horiz-adv-x="1593" 
d="M1503 684q0 -143 -56 -274t-150 -226t-225 -151t-275 -56q-191 0 -354 95t-258 258t-95 354q0 192 95 355t258 257.5t354 94.5q144 0 275 -56t225 -150.5t150 -225.5t56 -275zM1450 684q0 133 -52 253.5t-139.5 208t-208 139.5t-253.5 52q-132 0 -253 -52t-209 -139.5
t-140 -208.5t-52 -253q0 -106 33.5 -205.5t94 -179.5t141 -141t180 -94t205.5 -33q177 0 327.5 88t238 238.5t87.5 326.5zM1051 418l41 -41q-114 -133 -295 -133q-178 0 -302 128.5t-124 315.5q0 186 124 312t302 126q183 0 295 -131l-41 -41q-39 53 -110 85t-144 32
q-148 0 -257.5 -108t-109.5 -277q0 -82 30.5 -155t81.5 -123.5t117.5 -79.5t137.5 -29q74 0 144.5 32.5t109.5 86.5z" />
    <glyph glyph-name="ordfeminine" unicode="&#xaa;" horiz-adv-x="761" 
d="M621 668h-56v77q-91 -94 -231 -94q-93 0 -162.5 59t-69.5 156q0 99 69 156t163 57q140 0 231 -94v139q0 71 -55 111.5t-129 40.5q-132 0 -211 -102l-37 38q51 59 110 87t140 28q105 0 171.5 -51.5t66.5 -151.5v-456zM352 696q64 0 120.5 25t92.5 70v149
q-36 45 -92.5 69.5t-120.5 24.5q-85 0 -137.5 -48t-52.5 -120q0 -74 52.5 -122t137.5 -48z" />
    <glyph glyph-name="guillemotleft" unicode="&#xab;" horiz-adv-x="745" 
d="M684 129h-80l-328 369l328 362h80l-328 -362zM469 129h-80l-328 369l328 362h80l-328 -362z" />
    <glyph glyph-name="logicalnot" unicode="&#xac;" horiz-adv-x="1011" 
d="M952 918v-467h-65v405h-828v62h893z" />
    <glyph glyph-name="uni00AD" unicode="&#xad;" horiz-adv-x="614" 
d="M553 465h-492v61h492v-61z" />
    <glyph glyph-name="registered" unicode="&#xae;" horiz-adv-x="1011" 
d="M940 952q0 -180 -126.5 -307t-307.5 -127q-180 0 -307 127t-127 307q0 181 127 307.5t307 126.5q119 0 219 -57.5t157.5 -157.5t57.5 -219zM887 952q0 159 -111 270t-270 111t-270 -111t-111 -270q0 -157 111.5 -269t269.5 -112t269.5 112t111.5 269zM702 702h-75
l-129 197h-97v-197h-59v498h203q64 0 107.5 -41.5t43.5 -109.5q0 -72 -46 -110t-81 -38zM635 1049q0 40 -28 68t-62 28h-144v-189h144q33 0 61.5 28t28.5 65z" />
    <glyph glyph-name="macron" unicode="&#xaf;" horiz-adv-x="743" 
d="M743 1190h-743v55h743v-55z" />
    <glyph glyph-name="degree" unicode="&#xb0;" horiz-adv-x="559" 
d="M506 1159q0 -94 -66.5 -159.5t-160.5 -65.5t-160 65.5t-66 159.5t66 160.5t160 66.5t160.5 -66.5t66.5 -160.5zM444 1159q0 68 -49 117t-116 49t-115.5 -49t-48.5 -117q0 -67 48.5 -115.5t115.5 -48.5q68 0 116.5 48.5t48.5 115.5z" />
    <glyph glyph-name="plusminus" unicode="&#xb1;" horiz-adv-x="1011" 
d="M952 659h-413v-454h-66v454h-414v62h414v442h66v-442h413v-62zM952 0h-893v61h893v-61z" />
    <glyph glyph-name="twosuperior" unicode="&#xb2;" horiz-adv-x="778" 
d="M666 862h-555v49q117 85 196.5 149.5t151.5 136.5t107.5 137.5t35.5 127.5q0 90 -61 134t-144 44q-77 0 -138.5 -29.5t-94.5 -78.5l-41 37q41 58 114.5 91.5t161.5 33.5q37 0 72.5 -7.5t70.5 -25t61.5 -43.5t42.5 -66t16 -88q0 -56 -25.5 -114.5t-64.5 -109.5
t-103.5 -110.5t-123.5 -106t-144 -108.5h465v-53z" />
    <glyph glyph-name="threesuperior" unicode="&#xb3;" horiz-adv-x="778" 
d="M668 1081q0 -103 -76 -168t-207 -65q-98 0 -172.5 38t-110.5 97l41 35q37 -53 99.5 -85t142.5 -32q102 0 161.5 48t59.5 132q0 90 -67 134.5t-172 44.5q-56 0 -74 -3v56q12 -2 74 -2q98 0 162.5 41t64.5 125q0 75 -61 119t-150 44q-74 0 -128.5 -25.5t-102.5 -80.5
l-39 37q103 123 272 123q112 0 190 -58t78 -157q0 -47 -18.5 -84.5t-47.5 -59t-58 -33.5t-58 -16q29 -2 61.5 -15.5t63.5 -37t51.5 -63.5t20.5 -89z" />
    <glyph glyph-name="acute" unicode="&#xb4;" horiz-adv-x="419" 
d="M420 1434l-359 -295h-61l328 295h92z" />
    <glyph glyph-name="mu" unicode="&#xb5;" horiz-adv-x="1110" 
d="M238 109v-486h-62v1366h62v-694q0 -268 260 -268q95 0 193.5 54t152.5 130v778h61v-815q0 -66 26.5 -104.5t80.5 -38.5q25 0 41 4l6 -55q-30 -5 -47 -5q-154 0 -168 177q-66 -76 -159 -126.5t-187 -50.5q-195 0 -260 134z" />
    <glyph glyph-name="paragraph" unicode="&#xb6;" horiz-adv-x="919" 
d="M731 -205h-61v1510h-201v-1510h-61v867q-146 0 -249.5 103t-103.5 249t103.5 249t249.5 103h323v-1571z" />
    <glyph glyph-name="periodcentered" unicode="&#xb7;" horiz-adv-x="425" 
d="M281 502q0 -28 -20 -48t-48 -20t-48 20t-20 48q0 26 20 45.5t48 19.5t48 -19.5t20 -45.5z" />
    <glyph glyph-name="cedilla" unicode="&#xb8;" horiz-adv-x="391" 
d="M190 -383q-56 0 -107.5 16.5t-82.5 40.5l29 56q66 -58 161 -58q59 0 100.5 27.5t41.5 73.5q0 41 -22.5 64.5t-67.5 23.5q-57 0 -88 -39l-45 26l63 175h61l-53 -142q31 25 78 25q60 0 96.5 -36t36.5 -97q0 -68 -57.5 -112t-143.5 -44z" />
    <glyph glyph-name="onesuperior" unicode="&#xb9;" horiz-adv-x="393" 
d="M270 862h-61v737l-129 -141l-39 41l174 182h55v-819z" />
    <glyph glyph-name="ordmasculine" unicode="&#xba;" horiz-adv-x="829" 
d="M414 651q-139 0 -227.5 97.5t-88.5 240.5q0 144 88.5 241t227.5 97q142 0 229.5 -96.5t87.5 -241.5q0 -144 -87.5 -241t-229.5 -97zM414 705q119 0 188.5 82.5t69.5 201.5t-69.5 201t-188.5 82q-117 0 -185.5 -82t-68.5 -201t68.5 -201.5t185.5 -82.5z" />
    <glyph glyph-name="guillemotright" unicode="&#xbb;" horiz-adv-x="745" 
d="M469 498l-328 -369h-80l328 369l-328 362h80zM684 498l-328 -369h-80l328 369l-328 362h80z" />
    <glyph glyph-name="onequarter" unicode="&#xbc;" horiz-adv-x="1464" 
d="M270 547h-61v737l-129 -141l-39 41l174 182h55v-819zM1370 231h-127v-231h-59v231h-402v54l381 534h80v-534h127v-54zM1184 285v475l-338 -475h338zM1118 1366l-874 -1366h-74l872 1366h76z" />
    <glyph glyph-name="onehalf" unicode="&#xbd;" horiz-adv-x="1546" 
d="M270 547h-61v737l-129 -141l-39 41l174 182h55v-819zM1434 0h-555v49q117 85 196.5 149.5t151.5 136.5t107.5 137.5t35.5 127.5q0 90 -61 134t-144 44q-77 0 -138.5 -29.5t-94.5 -78.5l-41 37q41 58 114.5 91t161.5 33q47 0 91 -12.5t84 -38.5t64 -72t24 -106
q0 -56 -25.5 -114.5t-64.5 -109.5t-103.5 -110.5t-123.5 -106t-144 -108.5h465v-53zM1118 1366l-874 -1366h-74l872 1366h76z" />
    <glyph glyph-name="threequarters" unicode="&#xbe;" horiz-adv-x="1722" 
d="M1628 231h-127v-231h-59v231h-402v54l381 534h80v-534h127v-54zM1442 285v475l-338 -475h338zM1376 1366l-874 -1366h-74l872 1366h76zM668 766q0 -103 -76 -168.5t-207 -65.5q-98 0 -172.5 38.5t-110.5 97.5l41 34q37 -53 99.5 -84.5t142.5 -31.5q102 0 161.5 48
t59.5 132q0 90 -67 134t-172 44q-62 0 -74 -2v55q12 -2 74 -2q98 0 162.5 41t64.5 125q0 75 -61 119.5t-150 44.5q-74 0 -128.5 -25.5t-102.5 -80.5l-39 36q103 123 272 123q112 0 190 -58t78 -157q0 -47 -18.5 -84t-48 -58.5t-58 -33.5t-57.5 -16q29 -2 61.5 -15.5
t63.5 -37t51.5 -63.5t20.5 -89z" />
    <glyph glyph-name="questiondown" unicode="&#xbf;" horiz-adv-x="800" 
d="M496 639q90 -67 90 -156q0 -56 -23.5 -103.5t-61.5 -81.5t-84 -66l-92 -64t-84 -67.5t-61.5 -84t-23.5 -106.5q0 -107 82 -179.5t227 -72.5q140 0 230.5 51t160.5 150l47 -43q-153 -219 -438 -219q-174 0 -277.5 91.5t-103.5 221.5q0 64 24.5 119t63 94t85.5 73.5t94 66
t85.5 63t63 71.5t24.5 86q0 25 -17.5 56t-49.5 53zM502 1008q28 0 47.5 -20t19.5 -48q0 -26 -19.5 -46t-47.5 -20t-48 20t-20 46q0 28 20 48t48 20z" />
    <glyph glyph-name="Agrave" unicode="&#xc0;" horiz-adv-x="1302" 
d="M1260 0h-76l-152 367h-762l-151 -367h-76l569 1366h78zM1008 428l-357 862l-356 -862h713zM756 1481h-62l-358 295h92z" />
    <glyph glyph-name="Aacute" unicode="&#xc1;" horiz-adv-x="1302" 
d="M1260 0h-76l-152 367h-762l-151 -367h-76l569 1366h78zM1008 428l-357 862l-356 -862h713zM967 1776l-359 -295h-61l327 295h93z" />
    <glyph glyph-name="Acircumflex" unicode="&#xc2;" horiz-adv-x="1302" 
d="M895 1481h-57l-187 245l-180 -245h-57l200 295h74zM1260 0h-76l-152 367h-762l-151 -367h-76l569 1366h78zM1008 428l-357 862l-356 -862h713z" />
    <glyph glyph-name="Atilde" unicode="&#xc3;" horiz-adv-x="1302" 
d="M1260 0h-76l-152 367h-762l-151 -367h-76l569 1366h78zM1008 428l-357 862l-356 -862h713zM780 1477q-44 0 -76 24t-51.5 57.5t-36.5 67.5t-41.5 58t-56.5 24q-54 0 -87.5 -54.5t-33.5 -164.5h-53q0 116 48 195t132 79q44 0 76 -24t51.5 -57.5t36.5 -67.5t41.5 -58
t56.5 -24q54 0 87.5 54.5t33.5 164.5h54q0 -116 -48.5 -195t-132.5 -79z" />
    <glyph glyph-name="Adieresis" unicode="&#xc4;" horiz-adv-x="1302" 
d="M918 1567q0 -23 -17.5 -40.5t-40.5 -17.5t-40 17.5t-17 40.5t17 40t40 17t40.5 -17t17.5 -40zM504 1567q0 -23 -17.5 -40.5t-40.5 -17.5t-40 17.5t-17 40.5t17 40t40 17t40.5 -17t17.5 -40zM1260 0h-76l-152 367h-762l-151 -367h-76l569 1366h78zM1008 428l-357 862
l-356 -862h713z" />
    <glyph glyph-name="Aring" unicode="&#xc5;" horiz-adv-x="1302" 
d="M1260 0h-76l-152 367h-762l-151 -367h-76l569 1366h78zM1008 428l-357 862l-356 -862h713zM653 1417q-78 0 -134 56.5t-56 134.5t56 134t134 56t133.5 -56t55.5 -134t-55.5 -134.5t-133.5 -56.5zM653 1466q58 0 99 41.5t41 100.5t-41 100t-99 41q-59 0 -100 -41.5
t-41 -99.5q0 -59 41.5 -100.5t99.5 -41.5z" />
    <glyph glyph-name="AE" unicode="&#xc6;" horiz-adv-x="1904" 
d="M1772 0h-836v367h-586l-231 -367h-76l870 1366h859v-61h-771v-572h756v-61h-756v-611h771v-61zM936 428v862l-551 -862h551z" />
    <glyph glyph-name="Ccedilla" unicode="&#xc7;" horiz-adv-x="1366" 
d="M803 -375q-56 0 -108 16.5t-83 41.5l29 55q65 -57 162 -57q59 0 100 27t41 73q0 41 -22.5 64.5t-67.5 23.5q-57 0 -88 -39l-45 27l43 120q-132 9 -248 64.5t-200.5 146.5t-133.5 219t-49 275q0 154 53.5 287t145 224.5t217 143.5t266.5 52q288 0 475 -215l-51 -46
q-73 92 -185.5 145.5t-238.5 53.5q-127 0 -239.5 -47t-194 -130.5t-129 -204.5t-47.5 -263q0 -140 47.5 -261t129 -205t194 -131.5t239.5 -47.5q126 0 238.5 53.5t185.5 145.5l53 -43q-191 -215 -467 -218l-32 -86q31 25 77 25q60 0 97 -36t37 -97q0 -68 -57.5 -112
t-143.5 -44z" />
    <glyph glyph-name="Egrave" unicode="&#xc8;" horiz-adv-x="1142" 
d="M1016 0h-836v1366h836v-61h-770v-572h755v-61h-755v-611h770v-61zM702 1481h-61l-358 295h92z" />
    <glyph glyph-name="Eacute" unicode="&#xc9;" horiz-adv-x="1142" 
d="M913 1776l-358 -295h-61l327 295h92zM1016 0h-836v1366h836v-61h-770v-572h755v-61h-755v-611h770v-61z" />
    <glyph glyph-name="Ecircumflex" unicode="&#xca;" horiz-adv-x="1142" 
d="M836 1481h-58l-186 245l-180 -245h-58l201 295h74zM1016 0h-836v1366h836v-61h-770v-572h755v-61h-755v-611h770v-61z" />
    <glyph glyph-name="Edieresis" unicode="&#xcb;" horiz-adv-x="1142" 
d="M858 1567q0 -23 -17 -40.5t-40 -17.5t-40.5 17.5t-17.5 40.5t17.5 40t40.5 17t40 -17t17 -40zM444 1567q0 -23 -17 -40.5t-40 -17.5t-40 17.5t-17 40.5t17 40t40 17t40 -17t17 -40zM1016 0h-836v1366h836v-61h-770v-572h755v-61h-755v-611h770v-61z" />
    <glyph glyph-name="Igrave" unicode="&#xcc;" horiz-adv-x="425" 
d="M246 0h-66v1366h66v-1366zM317 1481h-61l-358 295h92z" />
    <glyph glyph-name="Iacute" unicode="&#xcd;" horiz-adv-x="425" 
d="M246 0h-66v1366h66v-1366zM528 1776l-358 -295h-61l327 295h92z" />
    <glyph glyph-name="Icircumflex" unicode="&#xce;" horiz-adv-x="425" 
d="M457 1481h-58l-186 245l-180 -245h-58l201 295h74zM246 0h-66v1366h66v-1366z" />
    <glyph glyph-name="Idieresis" unicode="&#xcf;" horiz-adv-x="425" 
d="M477 1567q0 -23 -17 -40.5t-40 -17.5t-40.5 17.5t-17.5 40.5t17.5 40t40.5 17t40 -17t17 -40zM63 1567q0 -23 -17 -40.5t-40 -17.5t-40 17.5t-17 40.5t17 40t40 17t40 -17t17 -40zM246 0h-66v1366h66v-1366z" />
    <glyph glyph-name="Eth" unicode="&#xd0;" horiz-adv-x="1464" 
d="M649 0h-405v651h-219v62h219v653h405q155 0 284.5 -55.5t215 -149.5t133 -218t47.5 -261q0 -139 -47.5 -262.5t-133 -217t-215 -148t-284.5 -54.5zM649 61q142 0 258 48.5t192 132.5t117 197t41 243q0 103 -25.5 196t-77 171t-124 135t-170 89t-211.5 32h-340v-592h385
v-62h-385v-590h340z" />
    <glyph glyph-name="Ntilde" unicode="&#xd1;" horiz-adv-x="1413" 
d="M831 1477q-44 0 -76 24t-51.5 57.5t-36.5 67.5t-41.5 58t-56.5 24q-54 0 -87 -54.5t-33 -164.5h-54q0 116 48 195t132 79q44 0 76.5 -24t51.5 -57.5t36.5 -67.5t42 -58t56.5 -24q54 0 87 54.5t33 164.5h54q0 -116 -48.5 -195t-132.5 -79zM1233 0h-66l-921 1260v-1260h-66
v1366h66l921 -1247v1247h66v-1366z" />
    <glyph glyph-name="Ograve" unicode="&#xd2;" horiz-adv-x="1564" 
d="M887 1481h-62l-358 295h92zM782 -25q-194 0 -343 94.5t-227.5 254.5t-78.5 358t78.5 358t227.5 254.5t343 94.5q193 0 342.5 -94.5t228.5 -255t79 -357.5t-79 -357.5t-228.5 -255t-342.5 -94.5zM782 37q172 0 304 84t203 230t71 331q0 187 -71 333t-203 229t-304 83
q-174 0 -306 -83t-201.5 -229t-69.5 -333q0 -185 69.5 -331t201.5 -230t306 -84z" />
    <glyph glyph-name="Oacute" unicode="&#xd3;" horiz-adv-x="1564" 
d="M1098 1776l-359 -295h-61l328 295h92zM782 -25q-194 0 -343 94.5t-227.5 254.5t-78.5 358t78.5 358t227.5 254.5t343 94.5q193 0 342.5 -94.5t228.5 -255t79 -357.5t-79 -357.5t-228.5 -255t-342.5 -94.5zM782 37q172 0 304 84t203 230t71 331q0 187 -71 333t-203 229
t-304 83q-174 0 -306 -83t-201.5 -229t-69.5 -333q0 -185 69.5 -331t201.5 -230t306 -84z" />
    <glyph glyph-name="Ocircumflex" unicode="&#xd4;" horiz-adv-x="1564" 
d="M1026 1481h-57l-187 245l-180 -245h-57l200 295h74zM782 -25q-194 0 -343 94.5t-227.5 254.5t-78.5 358t78.5 358t227.5 254.5t343 94.5q193 0 342.5 -94.5t228.5 -255t79 -357.5t-79 -357.5t-228.5 -255t-342.5 -94.5zM782 37q172 0 304 84t203 230t71 331
q0 187 -71 333t-203 229t-304 83q-174 0 -306 -83t-201.5 -229t-69.5 -333q0 -185 69.5 -331t201.5 -230t306 -84z" />
    <glyph glyph-name="Otilde" unicode="&#xd5;" horiz-adv-x="1564" 
d="M782 -25q-194 0 -343 94.5t-227.5 254.5t-78.5 358t78.5 358t227.5 254.5t343 94.5q193 0 342.5 -94.5t228.5 -255t79 -357.5t-79 -357.5t-228.5 -255t-342.5 -94.5zM782 37q172 0 304 84t203 230t71 331q0 187 -71 333t-203 229t-304 83q-174 0 -306 -83t-201.5 -229
t-69.5 -333q0 -185 69.5 -331t201.5 -230t306 -84zM911 1477q-44 0 -76 24t-51.5 57.5t-36.5 67.5t-41.5 58t-56.5 24q-54 0 -87.5 -54.5t-33.5 -164.5h-53q0 116 48 195t132 79q44 0 76.5 -24t51.5 -57.5t36.5 -67.5t42 -58t56.5 -24q54 0 87 54.5t33 164.5h54
q0 -116 -48.5 -195t-132.5 -79z" />
    <glyph glyph-name="Odieresis" unicode="&#xd6;" horiz-adv-x="1564" 
d="M1042 1567q0 -23 -17 -40.5t-40 -17.5t-40 17.5t-17 40.5t17 40t40 17t40 -17t17 -40zM629 1567q0 -23 -17.5 -40.5t-40.5 -17.5t-40 17.5t-17 40.5t17 40t40 17t40.5 -17t17.5 -40zM782 -25q-194 0 -343 94.5t-227.5 254.5t-78.5 358t78.5 358t227.5 254.5t343 94.5
q193 0 342.5 -94.5t228.5 -255t79 -357.5t-79 -357.5t-228.5 -255t-342.5 -94.5zM782 37q172 0 304 84t203 230t71 331q0 187 -71 333t-203 229t-304 83q-174 0 -306 -83t-201.5 -229t-69.5 -333q0 -185 69.5 -331t201.5 -230t306 -84z" />
    <glyph glyph-name="multiply" unicode="&#xd7;" horiz-adv-x="1011" 
d="M823 324l-317 317l-318 -317l-43 43l318 317l-318 317l43 43l318 -317l317 317l43 -43l-317 -317l317 -317z" />
    <glyph glyph-name="Oslash" unicode="&#xd8;" horiz-adv-x="1564" 
d="M782 -25q-188 0 -333 88l-37 -63h-74l59 98q-126 95 -195 247.5t-69 336.5q0 198 78.5 358t227.5 254.5t343 94.5q180 0 332 -89l39 66h74l-62 -102q126 -94 196.5 -247t70.5 -335q0 -197 -79 -357.5t-228.5 -255t-342.5 -94.5zM782 37q172 0 304 84t203 230t71 331
q0 167 -59.5 304t-167.5 224l-652 -1093q132 -80 301 -80zM205 682q0 -168 58.5 -304.5t166.5 -223.5l651 1093q-132 80 -299 80q-174 0 -306 -83t-201.5 -229t-69.5 -333z" />
    <glyph glyph-name="Ugrave" unicode="&#xd9;" horiz-adv-x="1376" 
d="M688 -25q-246 0 -377 143.5t-131 399.5v848h66v-848q0 -229 114 -355t328 -126t328 126t114 355v848h66v-848q0 -257 -131 -400t-377 -143zM793 1481h-62l-358 295h92z" />
    <glyph glyph-name="Uacute" unicode="&#xda;" horiz-adv-x="1376" 
d="M1004 1776l-359 -295h-61l327 295h93zM688 -25q-246 0 -377 143.5t-131 399.5v848h66v-848q0 -229 114 -355t328 -126t328 126t114 355v848h66v-848q0 -257 -131 -400t-377 -143z" />
    <glyph glyph-name="Ucircumflex" unicode="&#xdb;" horiz-adv-x="1376" 
d="M936 1481h-57l-187 245l-180 -245h-57l200 295h74zM688 -25q-246 0 -377 143.5t-131 399.5v848h66v-848q0 -229 114 -355t328 -126t328 126t114 355v848h66v-848q0 -257 -131 -400t-377 -143z" />
    <glyph glyph-name="Udieresis" unicode="&#xdc;" horiz-adv-x="1376" 
d="M952 1567q0 -23 -17 -40.5t-40 -17.5t-40 17.5t-17 40.5t17 40t40 17t40 -17t17 -40zM539 1567q0 -23 -17.5 -40.5t-40.5 -17.5t-40 17.5t-17 40.5t17 40t40 17t40.5 -17t17.5 -40zM688 -25q-246 0 -377 143.5t-131 399.5v848h66v-848q0 -229 114 -355t328 -126t328 126
t114 355v848h66v-848q0 -257 -131 -400t-377 -143z" />
    <glyph glyph-name="Yacute" unicode="&#xdd;" horiz-adv-x="1249" 
d="M657 0h-65v592l-549 774h84l498 -709l497 709h84l-549 -774v-592zM940 1776l-358 -295h-62l328 295h92z" />
    <glyph glyph-name="Thorn" unicode="&#xde;" horiz-adv-x="1136" 
d="M246 0h-66v1366h66v-264h407q123 0 215.5 -54t138.5 -141.5t46 -193.5q0 -162 -109 -273.5t-291 -111.5h-407v-328zM651 389q149 0 239.5 90.5t90.5 233.5t-90.5 235t-239.5 92h-405v-651h405z" />
    <glyph glyph-name="germandbls" unicode="&#xdf;" horiz-adv-x="1142" 
d="M1098 260q0 -54 -20 -103.5t-60.5 -91t-111.5 -66t-163 -24.5q-71 0 -128 12t-100 36t-72 49t-62 61l49 45q112 -147 313 -147q141 0 217 67t76 162q0 61 -35 104t-91 66t-123.5 41t-135.5 38t-124 47t-91 76.5t-35 119.5q0 63 35 113t85 82.5t100 62t85 67.5t35 84
q0 78 -74.5 124t-166.5 46q-110 0 -186 -73.5t-76 -194.5v-1063h-62v1063q0 138 90.5 230.5t233.5 92.5q126 0 214.5 -62t88.5 -163q0 -44 -19 -80.5t-48.5 -61.5t-66 -47.5t-73 -44t-66 -45.5t-48.5 -58.5t-19 -75.5q0 -56 35 -94t91 -58.5t123.5 -37t135.5 -36.5t124 -49
t91 -83t35 -130z" />
    <glyph glyph-name="agrave" unicode="&#xe0;" horiz-adv-x="1052" 
d="M877 0h-62v121q-134 -146 -342 -146q-89 0 -166.5 37.5t-128.5 114.5t-51 178q0 151 103 240.5t243 89.5q208 0 342 -146v224q0 116 -79.5 180.5t-198.5 64.5q-98 0 -174 -36.5t-144 -118.5l-47 41q75 88 159.5 129t205.5 41q153 0 246.5 -76.5t93.5 -222.5v-715zM489 31
q99 0 184.5 38.5t141.5 112.5v246q-56 74 -141.5 113t-184.5 39q-132 0 -213 -78.5t-81 -196.5t81 -196t213 -78zM641 1139h-61l-359 295h92z" />
    <glyph glyph-name="aacute" unicode="&#xe1;" horiz-adv-x="1052" 
d="M877 0h-62v121q-134 -146 -342 -146q-89 0 -166.5 37.5t-128.5 114.5t-51 178q0 151 103 240.5t243 89.5q208 0 342 -146v224q0 116 -79.5 180.5t-198.5 64.5q-98 0 -174 -36.5t-144 -118.5l-47 41q75 88 159.5 129t205.5 41q153 0 246.5 -76.5t93.5 -222.5v-715zM489 31
q99 0 184.5 38.5t141.5 112.5v246q-56 74 -141.5 113t-184.5 39q-132 0 -213 -78.5t-81 -196.5t81 -196t213 -78zM852 1434l-358 -295h-62l328 295h92z" />
    <glyph glyph-name="acircumflex" unicode="&#xe2;" horiz-adv-x="1052" 
d="M877 0h-62v121q-134 -146 -342 -146q-89 0 -166.5 37.5t-128.5 114.5t-51 178q0 151 103 240.5t243 89.5q208 0 342 -146v224q0 116 -79.5 180.5t-198.5 64.5q-98 0 -174 -36.5t-144 -118.5l-47 41q75 88 159.5 129t205.5 41q153 0 246.5 -76.5t93.5 -222.5v-715zM489 31
q99 0 184.5 38.5t141.5 112.5v246q-56 74 -141.5 113t-184.5 39q-132 0 -213 -78.5t-81 -196.5t81 -196t213 -78zM780 1139h-57l-186 245l-181 -245h-57l201 295h73z" />
    <glyph glyph-name="atilde" unicode="&#xe3;" horiz-adv-x="1052" 
d="M877 0h-62v121q-134 -146 -342 -146q-89 0 -166.5 37.5t-128.5 114.5t-51 178q0 151 103 240.5t243 89.5q208 0 342 -146v224q0 116 -79.5 180.5t-198.5 64.5q-98 0 -174 -36.5t-144 -118.5l-47 41q75 88 159.5 129t205.5 41q153 0 246.5 -76.5t93.5 -222.5v-715zM489 31
q99 0 184.5 38.5t141.5 112.5v246q-56 74 -141.5 113t-184.5 39q-132 0 -213 -78.5t-81 -196.5t81 -196t213 -78zM664 1135q-44 0 -76.5 24t-51.5 57.5t-36.5 67.5t-42 58t-56.5 24q-54 0 -87 -54.5t-33 -164.5h-54q0 116 48.5 195t132.5 79q44 0 76 -24t51.5 -57.5
t36.5 -67.5t41.5 -58t56.5 -24q54 0 87.5 54.5t33.5 164.5h53q0 -116 -48 -195t-132 -79z" />
    <glyph glyph-name="adieresis" unicode="&#xe4;" horiz-adv-x="1052" 
d="M877 0h-62v121q-134 -146 -342 -146q-89 0 -166.5 37.5t-128.5 114.5t-51 178q0 151 103 240.5t243 89.5q208 0 342 -146v224q0 116 -79.5 180.5t-198.5 64.5q-98 0 -174 -36.5t-144 -118.5l-47 41q75 88 159.5 129t205.5 41q153 0 246.5 -76.5t93.5 -222.5v-715zM489 31
q99 0 184.5 38.5t141.5 112.5v246q-56 74 -141.5 113t-184.5 39q-132 0 -213 -78.5t-81 -196.5t81 -196t213 -78zM797 1225q0 -23 -17.5 -40.5t-40.5 -17.5t-40 17.5t-17 40.5t17 40t40 17t40.5 -17t17.5 -40zM383 1225q0 -23 -17 -40.5t-40 -17.5t-40.5 17.5t-17.5 40.5
t17.5 40t40.5 17t40 -17t17 -40z" />
    <glyph glyph-name="aring" unicode="&#xe5;" horiz-adv-x="1052" 
d="M877 0h-62v121q-134 -146 -342 -146q-89 0 -166.5 37.5t-128.5 114.5t-51 178q0 151 103 240.5t243 89.5q208 0 342 -146v224q0 116 -79.5 180.5t-198.5 64.5q-98 0 -174 -36.5t-144 -118.5l-47 41q75 88 159.5 129t205.5 41q153 0 246.5 -76.5t93.5 -222.5v-715zM489 31
q99 0 184.5 38.5t141.5 112.5v246q-56 74 -141.5 113t-184.5 39q-132 0 -213 -78.5t-81 -196.5t81 -196t213 -78zM535 1133q-78 0 -134.5 56t-56.5 134t56.5 134t134.5 56t133 -56t55 -134t-55 -134t-133 -56zM535 1182q58 0 98.5 41t40.5 100t-40.5 100t-98.5 41
q-59 0 -100.5 -41.5t-41.5 -99.5t41.5 -99.5t100.5 -41.5z" />
    <glyph glyph-name="ae" unicode="&#xe6;" horiz-adv-x="1853" 
d="M1731 475h-801q6 -188 111 -316t274 -128q190 0 321 149l37 -39q-73 -83 -157 -124.5t-199 -41.5q-140 0 -247 75.5t-159 215.5q-43 -134 -148.5 -212.5t-244.5 -78.5q-172 0 -281.5 89t-109.5 243q0 102 52.5 178t135 113t181.5 37q228 0 372 -141v219q0 117 -82.5 181
t-220.5 64q-107 0 -189.5 -36.5t-156.5 -118.5l-47 41q144 170 410 170q56 0 109.5 -12.5t105.5 -40t87 -79.5t42 -122q47 110 148 182t222 72q85 0 156.5 -27.5t122.5 -76t86.5 -114t52.5 -141.5t17 -159v-21zM930 530h735q0 59 -13 117.5t-42 115t-70.5 99.5t-104.5 69.5
t-139 26.5q-68 0 -127.5 -26t-101.5 -68.5t-73 -98.5t-46.5 -115.5t-17.5 -119.5zM868 385v39q-61 75 -153.5 115.5t-198.5 40.5q-145 0 -233 -78.5t-88 -196.5t88 -196t233 -78q160 0 256 104t96 250z" />
    <glyph glyph-name="ccedilla" unicode="&#xe7;" horiz-adv-x="1009" 
d="M590 -379q-56 0 -108 16.5t-83 40.5l29 56q66 -58 162 -58q59 0 100 27.5t41 73.5q0 41 -22.5 64.5t-67.5 23.5q-57 0 -88 -39l-45 27l45 124q-130 9 -229 81.5t-150 186.5t-51 251q0 143 56 260t163.5 187.5t247.5 70.5q115 0 192.5 -41t145.5 -125l-45 -37
q-58 79 -128.5 113t-160.5 34q-124 0 -216.5 -62t-140 -166t-47.5 -234q0 -200 109.5 -332.5t294.5 -132.5q180 0 289 149l45 -39q-64 -80 -137.5 -121t-178.5 -45l-32 -90q31 25 77 25q60 0 97 -36t37 -97q0 -68 -57.5 -112t-143.5 -44z" />
    <glyph glyph-name="egrave" unicode="&#xe8;" horiz-adv-x="1169" 
d="M608 -25q-214 0 -349.5 147t-135.5 374q0 142 60 260.5t167.5 188t237.5 69.5q110 0 199 -42t145 -114.5t85.5 -165t29.5 -196.5v-21h-854q3 -122 53 -222t145 -161t217 -61q204 0 344 149l37 -39q-79 -82 -170 -124t-211 -42zM981 530q0 58 -15 117.5t-47 115.5t-77 99
t-111.5 69.5t-144.5 26.5q-74 0 -137.5 -26t-109 -68.5t-78.5 -98.5t-49.5 -115.5t-18.5 -119.5h788zM692 1139h-61l-359 295h93z" />
    <glyph glyph-name="eacute" unicode="&#xe9;" horiz-adv-x="1169" 
d="M903 1434l-358 -295h-62l328 295h92zM608 -25q-214 0 -349.5 147t-135.5 374q0 142 60 260.5t167.5 188t237.5 69.5q110 0 199 -42t145 -114.5t85.5 -165t29.5 -196.5v-21h-854q3 -122 53 -222t145 -161t217 -61q204 0 344 149l37 -39q-79 -82 -170 -124t-211 -42z
M981 530q0 58 -15 117.5t-47 115.5t-77 99t-111.5 69.5t-144.5 26.5q-74 0 -137.5 -26t-109 -68.5t-78.5 -98.5t-49.5 -115.5t-18.5 -119.5h788z" />
    <glyph glyph-name="ecircumflex" unicode="&#xea;" horiz-adv-x="1169" 
d="M834 1139h-58l-186 245l-180 -245h-58l201 295h74zM608 -25q-214 0 -349.5 147t-135.5 374q0 142 60 260.5t167.5 188t237.5 69.5q110 0 199 -42t145 -114.5t85.5 -165t29.5 -196.5v-21h-854q3 -122 53 -222t145 -161t217 -61q204 0 344 149l37 -39q-79 -82 -170 -124
t-211 -42zM981 530q0 58 -15 117.5t-47 115.5t-77 99t-111.5 69.5t-144.5 26.5q-74 0 -137.5 -26t-109 -68.5t-78.5 -98.5t-49.5 -115.5t-18.5 -119.5h788z" />
    <glyph glyph-name="edieresis" unicode="&#xeb;" horiz-adv-x="1169" 
d="M854 1225q0 -23 -17 -40.5t-40 -17.5t-40.5 17.5t-17.5 40.5t17.5 40t40.5 17t40 -17t17 -40zM440 1225q0 -23 -17 -40.5t-40 -17.5t-40 17.5t-17 40.5t17 40t40 17t40 -17t17 -40zM608 -25q-214 0 -349.5 147t-135.5 374q0 142 60 260.5t167.5 188t237.5 69.5
q110 0 199 -42t145 -114.5t85.5 -165t29.5 -196.5v-21h-854q3 -122 53 -222t145 -161t217 -61q204 0 344 149l37 -39q-79 -82 -170 -124t-211 -42zM981 530q0 58 -15 117.5t-47 115.5t-77 99t-111.5 69.5t-144.5 26.5q-74 0 -137.5 -26t-109 -68.5t-78.5 -98.5t-49.5 -115.5
t-18.5 -119.5h788z" />
    <glyph glyph-name="igrave" unicode="&#xec;" horiz-adv-x="413" 
d="M238 0h-62v989h62v-989zM311 1139h-61l-359 295h93z" />
    <glyph glyph-name="iacute" unicode="&#xed;" horiz-adv-x="413" 
d="M522 1434l-358 -295h-62l328 295h92zM238 0h-62v989h62v-989z" />
    <glyph glyph-name="icircumflex" unicode="&#xee;" horiz-adv-x="413" 
d="M449 1139h-58l-186 245l-180 -245h-58l201 295h74zM238 0h-62v989h62v-989z" />
    <glyph glyph-name="idieresis" unicode="&#xef;" horiz-adv-x="413" 
d="M471 1225q0 -23 -17 -40.5t-40 -17.5t-40.5 17.5t-17.5 40.5t17.5 40t40.5 17t40 -17t17 -40zM57 1225q0 -23 -17 -40.5t-40 -17.5t-40 17.5t-17 40.5t17 40t40 17t40 -17t17 -40zM238 0h-62v989h62v-989z" />
    <glyph glyph-name="eth" unicode="&#xf0;" horiz-adv-x="1167" 
d="M283 1069l-23 53l258 115q-76 54 -178 117l37 55q131 -81 211 -141l227 100l23 -53l-199 -88q405 -334 405 -731q0 -146 -55.5 -264t-161.5 -187.5t-243 -69.5q-136 0 -242 69.5t-162.5 188t-56.5 263.5t56.5 262.5t162.5 186.5t242 69q94 0 172.5 -39.5t146.5 -134.5
q-129 202 -332 356zM584 31q92 0 168 38.5t124.5 103.5t74.5 148t26 175q0 91 -26 173.5t-74.5 147t-124.5 103t-168 38.5q-121 0 -212.5 -66t-136.5 -170t-45 -226q0 -123 45 -227.5t136.5 -171t212.5 -66.5z" />
    <glyph glyph-name="ntilde" unicode="&#xf1;" 
d="M905 0h-61v690q0 147 -66 207.5t-190 60.5q-98 0 -196.5 -54.5t-153.5 -131.5v-772h-62v989h62v-155q60 73 160.5 126.5t197.5 53.5q153 0 231 -77t78 -247v-690zM670 1135q-44 0 -76 24t-51.5 57.5t-36.5 67.5t-41.5 58t-56.5 24q-54 0 -87.5 -54.5t-33.5 -164.5h-54
q0 116 48.5 195t132.5 79q44 0 76 -24t51.5 -57.5t36.5 -67.5t41.5 -58t56.5 -24q54 0 87.5 54.5t33.5 164.5h53q0 -116 -48 -195t-132 -79z" />
    <glyph glyph-name="ograve" unicode="&#xf2;" horiz-adv-x="1167" 
d="M584 -25q-136 0 -242 69.5t-162.5 188t-56.5 263.5t56.5 262.5t162.5 186.5t242 69q137 0 243 -69t161.5 -186t55.5 -263t-55.5 -264t-161.5 -187.5t-243 -69.5zM584 31q92 0 168 38.5t124.5 103.5t74.5 148t26 175q0 91 -26 173.5t-74.5 147t-124.5 103t-168 38.5
q-121 0 -212.5 -66t-136.5 -170t-45 -226q0 -123 45 -227.5t136.5 -171t212.5 -66.5zM688 1139h-61l-359 295h92z" />
    <glyph glyph-name="oacute" unicode="&#xf3;" horiz-adv-x="1167" 
d="M899 1434l-358 -295h-62l328 295h92zM584 -25q-136 0 -242 69.5t-162.5 188t-56.5 263.5t56.5 262.5t162.5 186.5t242 69q137 0 243 -69t161.5 -186t55.5 -263t-55.5 -264t-161.5 -187.5t-243 -69.5zM584 31q92 0 168 38.5t124.5 103.5t74.5 148t26 175q0 91 -26 173.5
t-74.5 147t-124.5 103t-168 38.5q-121 0 -212.5 -66t-136.5 -170t-45 -226q0 -123 45 -227.5t136.5 -171t212.5 -66.5z" />
    <glyph glyph-name="ocircumflex" unicode="&#xf4;" horiz-adv-x="1167" 
d="M827 1139h-57l-186 245l-181 -245h-57l201 295h74zM584 -25q-136 0 -242 69.5t-162.5 188t-56.5 263.5t56.5 262.5t162.5 186.5t242 69q137 0 243 -69t161.5 -186t55.5 -263t-55.5 -264t-161.5 -187.5t-243 -69.5zM584 31q92 0 168 38.5t124.5 103.5t74.5 148t26 175
q0 91 -26 173.5t-74.5 147t-124.5 103t-168 38.5q-121 0 -212.5 -66t-136.5 -170t-45 -226q0 -123 45 -227.5t136.5 -171t212.5 -66.5z" />
    <glyph glyph-name="otilde" unicode="&#xf5;" horiz-adv-x="1167" 
d="M584 -25q-136 0 -242 69.5t-162.5 188t-56.5 263.5t56.5 262.5t162.5 186.5t242 69q137 0 243 -69t161.5 -186t55.5 -263t-55.5 -264t-161.5 -187.5t-243 -69.5zM584 31q92 0 168 38.5t124.5 103.5t74.5 148t26 175q0 91 -26 173.5t-74.5 147t-124.5 103t-168 38.5
q-121 0 -212.5 -66t-136.5 -170t-45 -226q0 -123 45 -227.5t136.5 -171t212.5 -66.5zM713 1135q-44 0 -76 24t-51.5 57.5t-36.5 67.5t-41.5 58t-56.5 24q-54 0 -87.5 -54.5t-33.5 -164.5h-54q0 116 48.5 195t132.5 79q44 0 76 -24t51.5 -57.5t36.5 -67.5t41.5 -58t56.5 -24
q54 0 87.5 54.5t33.5 164.5h53q0 -116 -48 -195t-132 -79z" />
    <glyph glyph-name="odieresis" unicode="&#xf6;" horiz-adv-x="1167" 
d="M848 1225q0 -23 -17 -40.5t-40 -17.5t-40.5 17.5t-17.5 40.5t17.5 40t40.5 17t40 -17t17 -40zM434 1225q0 -23 -17 -40.5t-40 -17.5t-40.5 17.5t-17.5 40.5t17.5 40t40.5 17t40 -17t17 -40zM584 -25q-136 0 -242 69.5t-162.5 188t-56.5 263.5t56.5 262.5t162.5 186.5
t242 69q137 0 243 -69t161.5 -186t55.5 -263t-55.5 -264t-161.5 -187.5t-243 -69.5zM584 31q92 0 168 38.5t124.5 103.5t74.5 148t26 175q0 91 -26 173.5t-74.5 147t-124.5 103t-168 38.5q-121 0 -212.5 -66t-136.5 -170t-45 -226q0 -123 45 -227.5t136.5 -171t212.5 -66.5z
" />
    <glyph glyph-name="divide" unicode="&#xf7;" horiz-adv-x="1046" 
d="M592 1098q0 -28 -20 -49t-48 -21q-27 0 -47 21t-20 49t19.5 46.5t47.5 18.5t48 -19t20 -46zM987 659h-928v62h928v-62zM592 272q0 -28 -20 -47.5t-48 -19.5t-47.5 19.5t-19.5 47.5t19.5 48t47.5 20t48 -20t20 -48z" />
    <glyph glyph-name="oslash" unicode="&#xf8;" horiz-adv-x="1167" 
d="M242 0h-70l86 115q-135 148 -135 381q0 145 56.5 262.5t162.5 186.5t242 69q155 0 272 -90l49 65h68l-76 -102q71 -71 109 -172t38 -219q0 -146 -55.5 -264t-161.5 -187.5t-243 -69.5q-163 0 -285 101zM584 31q92 0 168 38.5t124.5 103.5t74.5 148t26 175q0 98 -30.5 187
t-86.5 153l-526 -711q100 -94 250 -94zM190 496q0 -197 107 -328l522 706q-100 84 -235 84q-121 0 -212.5 -66t-136.5 -170t-45 -226z" />
    <glyph glyph-name="ugrave" unicode="&#xf9;" 
d="M905 0h-61v152q-68 -76 -164.5 -126.5t-194.5 -50.5q-153 0 -231 75.5t-78 244.5v694h62v-694q0 -147 65.5 -205.5t190.5 -58.5q99 0 197.5 52t152.5 128v778h61v-989zM645 1139h-61l-359 295h92z" />
    <glyph glyph-name="uacute" unicode="&#xfa;" 
d="M856 1434l-358 -295h-62l328 295h92zM905 0h-61v152q-68 -76 -164.5 -126.5t-194.5 -50.5q-153 0 -231 75.5t-78 244.5v694h62v-694q0 -147 65.5 -205.5t190.5 -58.5q99 0 197.5 52t152.5 128v778h61v-989z" />
    <glyph glyph-name="ucircumflex" unicode="&#xfb;" 
d="M780 1139h-57l-186 245l-181 -245h-57l201 295h73zM905 0h-61v152q-68 -76 -164.5 -126.5t-194.5 -50.5q-153 0 -231 75.5t-78 244.5v694h62v-694q0 -147 65.5 -205.5t190.5 -58.5q99 0 197.5 52t152.5 128v778h61v-989z" />
    <glyph glyph-name="udieresis" unicode="&#xfc;" 
d="M813 1225q0 -23 -17 -40.5t-40 -17.5t-40.5 17.5t-17.5 40.5t17.5 40t40.5 17t40 -17t17 -40zM399 1225q0 -23 -17 -40.5t-40 -17.5t-40 17.5t-17 40.5t17 40t40 17t40 -17t17 -40zM905 0h-61v152q-68 -76 -164.5 -126.5t-194.5 -50.5q-153 0 -231 75.5t-78 244.5v694h62
v-694q0 -147 65.5 -205.5t190.5 -58.5q99 0 197.5 52t152.5 128v778h61v-989z" />
    <glyph glyph-name="yacute" unicode="&#xfd;" horiz-adv-x="964" 
d="M102 -387l13 57q37 -16 86 -16q52 0 87 29t68 106l90 205l-423 995h71l389 -917l387 917h72l-524 -1222q-74 -168 -217 -168q-55 0 -99 14zM799 1434l-359 -295h-61l328 295h92z" />
    <glyph glyph-name="thorn" unicode="&#xfe;" horiz-adv-x="1150" 
d="M594 -25q-108 0 -201.5 52.5t-154.5 142.5v-547h-62v1743h62v-543q55 82 150 136.5t206 54.5q200 0 321 -141.5t121 -376.5q0 -234 -121.5 -377.5t-320.5 -143.5zM594 31q176 0 275.5 131.5t99.5 333.5t-99.5 332t-275.5 130q-111 0 -209.5 -57t-146.5 -139v-531
q48 -83 147 -141.5t209 -58.5z" />
    <glyph glyph-name="ydieresis" unicode="&#xff;" horiz-adv-x="964" 
d="M102 -387l13 57q37 -16 86 -16q52 0 87 29t68 106l90 205l-423 995h71l389 -917l387 917h72l-524 -1222q-74 -168 -217 -168q-55 0 -99 14zM748 1225q0 -23 -17.5 -40.5t-40.5 -17.5t-40 17.5t-17 40.5t17 40t40 17t40.5 -17t17.5 -40zM334 1225q0 -23 -17.5 -40.5
t-40.5 -17.5t-40 17.5t-17 40.5t17 40t40 17t40.5 -17t17.5 -40z" />
    <glyph glyph-name="Amacron" unicode="&#x100;" horiz-adv-x="1302" 
d="M1260 0h-76l-152 367h-762l-151 -367h-76l569 1366h78zM1008 428l-357 862l-356 -862h713zM1022 1532h-743v55h743v-55z" />
    <glyph glyph-name="amacron" unicode="&#x101;" horiz-adv-x="1052" 
d="M877 0h-62v121q-134 -146 -342 -146q-89 0 -166.5 37.5t-128.5 114.5t-51 178q0 151 103 240.5t243 89.5q208 0 342 -146v224q0 116 -79.5 180.5t-198.5 64.5q-98 0 -174 -36.5t-144 -118.5l-47 41q75 88 159.5 129t205.5 41q153 0 246.5 -76.5t93.5 -222.5v-715zM489 31
q99 0 184.5 38.5t141.5 112.5v246q-56 74 -141.5 113t-184.5 39q-132 0 -213 -78.5t-81 -196.5t81 -196t213 -78zM897 1190h-743v55h743v-55z" />
    <glyph glyph-name="Abreve" unicode="&#x102;" horiz-adv-x="1302" 
d="M1260 0h-76l-152 367h-762l-151 -367h-76l569 1366h78zM1008 428l-357 862l-356 -862h713zM1010 1636q-62 -84 -156 -132t-203 -48q-107 0 -201.5 48t-158.5 132l43 39q55 -77 137 -120.5t180 -43.5t180.5 43.5t137.5 120.5z" />
    <glyph glyph-name="abreve" unicode="&#x103;" horiz-adv-x="1052" 
d="M877 0h-62v121q-134 -146 -342 -146q-89 0 -166.5 37.5t-128.5 114.5t-51 178q0 151 103 240.5t243 89.5q208 0 342 -146v224q0 116 -79.5 180.5t-198.5 64.5q-98 0 -174 -36.5t-144 -118.5l-47 41q75 88 159.5 129t205.5 41q153 0 246.5 -76.5t93.5 -222.5v-715zM489 31
q99 0 184.5 38.5t141.5 112.5v246q-56 74 -141.5 113t-184.5 39q-132 0 -213 -78.5t-81 -196.5t81 -196t213 -78zM885 1294q-62 -84 -156 -132t-203 -48q-107 0 -201.5 48t-158.5 132l43 39q55 -77 137 -120.5t180 -43.5t180.5 43.5t137.5 120.5z" />
    <glyph glyph-name="Aogonek" unicode="&#x104;" horiz-adv-x="1302" 
d="M1317 -229l51 -23q-47 -129 -170 -129q-72 0 -119 43t-47 129q0 65 40 124.5t106 98.5l-146 353h-762l-151 -367h-76l569 1366h78l570 -1366q-168 -81 -168 -209q0 -57 27.5 -87t78.5 -30q88 0 119 97zM1008 428l-357 862l-356 -862h713z" />
    <glyph glyph-name="aogonek" unicode="&#x105;" horiz-adv-x="1052" 
d="M934 -229l51 -23q-47 -129 -170 -129q-72 0 -119 43t-47 129q0 69 46 133t120 103v94q-134 -146 -342 -146q-89 0 -166.5 37.5t-128.5 114.5t-51 178q0 151 103 240.5t243 89.5q208 0 342 -146v224q0 116 -79.5 180.5t-198.5 64.5q-98 0 -174 -36.5t-144 -118.5l-47 41
q75 88 159.5 129t205.5 41q153 0 246.5 -76.5t93.5 -222.5v-715q-168 -81 -168 -209q0 -57 27.5 -87t78.5 -30q88 0 119 97zM489 31q99 0 184.5 38.5t141.5 112.5v246q-56 74 -141.5 113t-184.5 39q-132 0 -213 -78.5t-81 -196.5t81 -196t213 -78z" />
    <glyph glyph-name="Cacute" unicode="&#x106;" horiz-adv-x="1366" 
d="M1130 1776l-358 -295h-61l327 295h92zM815 -25q-141 0 -266.5 52t-217 143.5t-145 224.5t-53.5 287t53.5 287t145 224.5t217 143.5t266.5 52q288 0 475 -215l-51 -46q-73 92 -185.5 145.5t-238.5 53.5q-127 0 -239.5 -47t-194 -130.5t-129 -204.5t-47.5 -263
q0 -140 47.5 -261t129 -205t194 -131.5t239.5 -47.5q126 0 238.5 53.5t185.5 145.5l53 -43q-194 -218 -477 -218z" />
    <glyph glyph-name="cacute" unicode="&#x107;" horiz-adv-x="1009" 
d="M905 1434l-358 -295h-62l328 295h92zM590 -25q-140 0 -247.5 71t-163.5 189t-56 261t56 260t163.5 187.5t247.5 70.5q115 0 192.5 -41t145.5 -125l-45 -37q-58 79 -128.5 113t-160.5 34q-124 0 -216.5 -62t-140 -166t-47.5 -234q0 -200 109.5 -332.5t294.5 -132.5
q180 0 289 149l45 -39q-68 -84 -145.5 -125t-192.5 -41z" />
    <glyph glyph-name="Ccircumflex" unicode="&#x108;" horiz-adv-x="1366" 
d="M1057 1481h-58l-186 245l-180 -245h-58l201 295h74zM815 -25q-141 0 -266.5 52t-217 143.5t-145 224.5t-53.5 287t53.5 287t145 224.5t217 143.5t266.5 52q288 0 475 -215l-51 -46q-73 92 -185.5 145.5t-238.5 53.5q-127 0 -239.5 -47t-194 -130.5t-129 -204.5
t-47.5 -263q0 -140 47.5 -261t129 -205t194 -131.5t239.5 -47.5q126 0 238.5 53.5t185.5 145.5l53 -43q-194 -218 -477 -218z" />
    <glyph glyph-name="ccircumflex" unicode="&#x109;" horiz-adv-x="1009" 
d="M834 1139h-58l-186 245l-180 -245h-58l201 295h74zM590 -25q-140 0 -247.5 71t-163.5 189t-56 261t56 260t163.5 187.5t247.5 70.5q115 0 192.5 -41t145.5 -125l-45 -37q-58 79 -128.5 113t-160.5 34q-124 0 -216.5 -62t-140 -166t-47.5 -234q0 -200 109.5 -332.5
t294.5 -132.5q180 0 289 149l45 -39q-68 -84 -145.5 -125t-192.5 -41z" />
    <glyph glyph-name="Cdotaccent" unicode="&#x10a;" horiz-adv-x="1366" 
d="M815 -25q-141 0 -266.5 52t-217 143.5t-145 224.5t-53.5 287t53.5 287t145 224.5t217 143.5t266.5 52q288 0 475 -215l-51 -46q-73 92 -185.5 145.5t-238.5 53.5q-127 0 -239.5 -47t-194 -130.5t-129 -204.5t-47.5 -263q0 -140 47.5 -261t129 -205t194 -131.5
t239.5 -47.5q126 0 238.5 53.5t185.5 145.5l53 -43q-194 -218 -477 -218zM819 1501q-23 0 -41 17.5t-18 42.5q0 24 17.5 41.5t41.5 17.5q25 0 42.5 -17t17.5 -42t-17.5 -42.5t-42.5 -17.5z" />
    <glyph glyph-name="cdotaccent" unicode="&#x10b;" horiz-adv-x="1009" 
d="M590 -25q-140 0 -247.5 71t-163.5 189t-56 261t56 260t163.5 187.5t247.5 70.5q115 0 192.5 -41t145.5 -125l-45 -37q-58 79 -128.5 113t-160.5 34q-124 0 -216.5 -62t-140 -166t-47.5 -234q0 -200 109.5 -332.5t294.5 -132.5q180 0 289 149l45 -39q-68 -84 -145.5 -125
t-192.5 -41zM596 1159q-24 0 -41.5 17.5t-17.5 42.5q0 24 17.5 41.5t41.5 17.5q25 0 42 -17t17 -42t-17 -42.5t-42 -17.5z" />
    <glyph glyph-name="Ccaron" unicode="&#x10c;" horiz-adv-x="1366" 
d="M856 1481h-74l-207 295h58l186 -246l180 246h58zM815 -25q-141 0 -266.5 52t-217 143.5t-145 224.5t-53.5 287t53.5 287t145 224.5t217 143.5t266.5 52q288 0 475 -215l-51 -46q-73 92 -185.5 145.5t-238.5 53.5q-127 0 -239.5 -47t-194 -130.5t-129 -204.5t-47.5 -263
q0 -140 47.5 -261t129 -205t194 -131.5t239.5 -47.5q126 0 238.5 53.5t185.5 145.5l53 -43q-194 -218 -477 -218z" />
    <glyph glyph-name="ccaron" unicode="&#x10d;" horiz-adv-x="1009" 
d="M633 1139h-74l-207 295h58l186 -246l180 246h58zM590 -25q-140 0 -247.5 71t-163.5 189t-56 261t56 260t163.5 187.5t247.5 70.5q115 0 192.5 -41t145.5 -125l-45 -37q-58 79 -128.5 113t-160.5 34q-124 0 -216.5 -62t-140 -166t-47.5 -234q0 -200 109.5 -332.5
t294.5 -132.5q180 0 289 149l45 -39q-68 -84 -145.5 -125t-192.5 -41z" />
    <glyph glyph-name="Dcaron" unicode="&#x10e;" horiz-adv-x="1400" 
d="M739 1481h-73l-207 295h57l186 -246l181 246h57zM586 0h-406v1366h406q155 0 284.5 -55.5t215 -149.5t133 -218t47.5 -261q0 -139 -47.5 -262.5t-133 -217t-215 -148t-284.5 -54.5zM586 61q142 0 258 48.5t192 132.5t117 197t41 243q0 103 -25.5 196t-77 171t-124 135
t-170 89t-211.5 32h-340v-1244h340z" />
    <glyph glyph-name="dcaron" unicode="&#x10f;" horiz-adv-x="1239" 
d="M1245 1284q0 -73 -37.5 -142t-89.5 -106l-45 37q49 36 79 89t30 100q-13 -2 -17 -2q-29 0 -47 19.5t-18 47.5q0 27 18.5 46.5t46.5 19.5q34 0 57 -29t23 -80zM983 0h-61v166q-54 -82 -150 -136.5t-207 -54.5q-200 0 -321 142t-121 377q0 234 121.5 377t320.5 143
q108 0 202 -52.5t155 -142.5v547h61v-1366zM565 31q111 0 210 57t147 139v531q-48 83 -147 141.5t-210 58.5q-176 0 -275.5 -131t-99.5 -333t99.5 -332.5t275.5 -130.5z" />
    <glyph glyph-name="Dcroat" unicode="&#x110;" horiz-adv-x="1464" 
d="M649 0h-405v651h-219v62h219v653h405q155 0 284.5 -55.5t215 -149.5t133 -218t47.5 -261q0 -139 -47.5 -262.5t-133 -217t-215 -148t-284.5 -54.5zM649 61q142 0 258 48.5t192 132.5t117 197t41 243q0 103 -25.5 196t-77 171t-124 135t-170 89t-211.5 32h-340v-592h385
v-62h-385v-590h340z" />
    <glyph glyph-name="dcroat" unicode="&#x111;" horiz-adv-x="1159" 
d="M983 0h-61v166q-54 -82 -150 -136.5t-207 -54.5q-200 0 -321 142t-121 377q0 234 121.5 377t320.5 143q108 0 202 -52.5t155 -142.5v289h-340v55h340v203h61v-203h158v-55h-158v-1108zM565 31q111 0 210 57t147 139v531q-48 83 -147 141.5t-210 58.5q-176 0 -275.5 -131
t-99.5 -333t99.5 -332.5t275.5 -130.5z" />
    <glyph glyph-name="Emacron" unicode="&#x112;" horiz-adv-x="1142" 
d="M1016 0h-836v1366h836v-61h-770v-572h755v-61h-755v-611h770v-61zM965 1532h-744v55h744v-55z" />
    <glyph glyph-name="emacron" unicode="&#x113;" horiz-adv-x="1169" 
d="M608 -25q-214 0 -349.5 147t-135.5 374q0 142 60 260.5t167.5 188t237.5 69.5q110 0 199 -42t145 -114.5t85.5 -165t29.5 -196.5v-21h-854q3 -122 53 -222t145 -161t217 -61q204 0 344 149l37 -39q-79 -82 -170 -124t-211 -42zM981 530q0 58 -15 117.5t-47 115.5t-77 99
t-111.5 69.5t-144.5 26.5q-74 0 -137.5 -26t-109 -68.5t-78.5 -98.5t-49.5 -115.5t-18.5 -119.5h788zM956 1190h-743v55h743v-55z" />
    <glyph glyph-name="Ebreve" unicode="&#x114;" horiz-adv-x="1142" 
d="M1016 0h-836v1366h836v-61h-770v-572h755v-61h-755v-611h770v-61zM958 1636q-62 -84 -155.5 -132t-202.5 -48q-107 0 -201.5 48t-158.5 132l43 39q55 -77 137 -120.5t180 -43.5t180.5 43.5t137.5 120.5z" />
    <glyph glyph-name="ebreve" unicode="&#x115;" horiz-adv-x="1169" 
d="M608 -25q-214 0 -349.5 147t-135.5 374q0 142 60 260.5t167.5 188t237.5 69.5q110 0 199 -42t145 -114.5t85.5 -165t29.5 -196.5v-21h-854q3 -122 53 -222t145 -161t217 -61q204 0 344 149l37 -39q-79 -82 -170 -124t-211 -42zM981 530q0 58 -15 117.5t-47 115.5t-77 99
t-111.5 69.5t-144.5 26.5q-74 0 -137.5 -26t-109 -68.5t-78.5 -98.5t-49.5 -115.5t-18.5 -119.5h788zM952 1294q-62 -84 -155.5 -132t-202.5 -48q-108 0 -202.5 48t-158.5 132l43 39q55 -77 137.5 -120.5t180.5 -43.5t180 43.5t137 120.5z" />
    <glyph glyph-name="Edotaccent" unicode="&#x116;" horiz-adv-x="1142" 
d="M1016 0h-836v1366h836v-61h-770v-572h755v-61h-755v-611h770v-61zM612 1501q-24 0 -41.5 17.5t-17.5 42.5q0 24 17.5 41.5t41.5 17.5q25 0 42.5 -17t17.5 -42t-17.5 -42.5t-42.5 -17.5z" />
    <glyph glyph-name="edotaccent" unicode="&#x117;" horiz-adv-x="1169" 
d="M608 -25q-214 0 -349.5 147t-135.5 374q0 142 60 260.5t167.5 188t237.5 69.5q110 0 199 -42t145 -114.5t85.5 -165t29.5 -196.5v-21h-854q3 -122 53 -222t145 -161t217 -61q204 0 344 149l37 -39q-79 -82 -170 -124t-211 -42zM981 530q0 58 -15 117.5t-47 115.5t-77 99
t-111.5 69.5t-144.5 26.5q-74 0 -137.5 -26t-109 -68.5t-78.5 -98.5t-49.5 -115.5t-18.5 -119.5h788zM590 1159q-24 0 -42 18t-18 42t18 41.5t42 17.5q25 0 42 -17t17 -42t-17 -42.5t-42 -17.5z" />
    <glyph glyph-name="Eogonek" unicode="&#x118;" horiz-adv-x="1142" 
d="M1016 0q-168 -81 -168 -209q0 -57 27.5 -87t78.5 -30q88 0 119 97l51 -23q-47 -129 -170 -129q-72 0 -119 43t-47 129q0 59 33 113.5t90 95.5h-731v1366h836v-61h-770v-572h755v-61h-755v-611h770v-61z" />
    <glyph glyph-name="eogonek" unicode="&#x119;" horiz-adv-x="1169" 
d="M608 -25q-214 0 -349.5 147t-135.5 374q0 142 60 260.5t167.5 188t237.5 69.5q110 0 199 -42t145 -114.5t85.5 -165t29.5 -196.5v-21h-854q3 -122 53 -222t145 -161t217 -61q204 0 344 149l37 -39q-98 -102 -215 -141q-168 -81 -168 -209q0 -57 28 -87t79 -30
q87 0 118 97l52 -23q-47 -129 -170 -129q-72 0 -119 43t-47 129q0 101 92 186q-5 0 -15.5 -1t-15.5 -1zM981 530q0 58 -15 117.5t-47 115.5t-77 99t-111.5 69.5t-144.5 26.5q-74 0 -137.5 -26t-109 -68.5t-78.5 -98.5t-49.5 -115.5t-18.5 -119.5h788z" />
    <glyph glyph-name="Ecaron" unicode="&#x11a;" horiz-adv-x="1142" 
d="M641 1481h-74l-207 295h58l186 -246l180 246h58zM1016 0h-836v1366h836v-61h-770v-572h755v-61h-755v-611h770v-61z" />
    <glyph glyph-name="ecaron" unicode="&#x11b;" horiz-adv-x="1169" 
d="M631 1139h-74l-207 295h58l186 -246l180 246h57zM608 -25q-214 0 -349.5 147t-135.5 374q0 142 60 260.5t167.5 188t237.5 69.5q110 0 199 -42t145 -114.5t85.5 -165t29.5 -196.5v-21h-854q3 -122 53 -222t145 -161t217 -61q204 0 344 149l37 -39q-79 -82 -170 -124
t-211 -42zM981 530q0 58 -15 117.5t-47 115.5t-77 99t-111.5 69.5t-144.5 26.5q-74 0 -137.5 -26t-109 -68.5t-78.5 -98.5t-49.5 -115.5t-18.5 -119.5h788z" />
    <glyph glyph-name="Gcircumflex" unicode="&#x11c;" horiz-adv-x="1449" 
d="M1067 1481h-57l-187 245l-180 -245h-57l200 295h74zM815 -27q-141 0 -266.5 52.5t-217 144t-145 225t-53.5 287.5t53.5 287t145 224.5t217 143.5t266.5 52q295 0 500 -211l-43 -45q-80 91 -200.5 142.5t-256.5 51.5q-127 0 -239.5 -47t-194 -130.5t-129 -204.5
t-47.5 -263q0 -140 47.5 -261.5t129 -205.5t194 -132t239.5 -48q137 0 250 54.5t184 129.5v375h-563v61h629v-462q-91 -102 -221 -161t-279 -59z" />
    <glyph glyph-name="gcircumflex" unicode="&#x11d;" horiz-adv-x="1159" 
d="M823 1139h-57l-186 245l-181 -245h-57l201 295h73zM565 -401q-130 0 -213 30.5t-166 118.5l45 51q64 -79 140.5 -112t193.5 -33q158 0 257.5 84.5t99.5 255.5v172q-55 -83 -150.5 -139t-206.5 -56q-199 0 -320.5 143t-121.5 378q0 234 121.5 378t320.5 144
q108 0 202 -52.5t155 -142.5v170h61v-995q0 -202 -113 -298.5t-305 -96.5zM565 27q111 0 210 58.5t147 141.5v531q-48 83 -147 141.5t-210 58.5q-118 0 -204 -63t-128.5 -167t-42.5 -236q0 -202 99.5 -333.5t275.5 -131.5z" />
    <glyph glyph-name="Gbreve" unicode="&#x11e;" horiz-adv-x="1449" 
d="M815 -27q-141 0 -266.5 52.5t-217 144t-145 225t-53.5 287.5t53.5 287t145 224.5t217 143.5t266.5 52q295 0 500 -211l-43 -45q-80 91 -200.5 142.5t-256.5 51.5q-127 0 -239.5 -47t-194 -130.5t-129 -204.5t-47.5 -263q0 -140 47.5 -261.5t129 -205.5t194 -132
t239.5 -48q137 0 250 54.5t184 129.5v375h-563v61h629v-462q-91 -102 -221 -161t-279 -59zM1182 1636q-62 -84 -156 -132t-203 -48q-107 0 -201.5 48t-158.5 132l43 39q55 -77 137 -120.5t180 -43.5t180.5 43.5t137.5 120.5z" />
    <glyph glyph-name="gbreve" unicode="&#x11f;" horiz-adv-x="1159" 
d="M565 -401q-130 0 -213 30.5t-166 118.5l45 51q64 -79 140.5 -112t193.5 -33q158 0 257.5 84.5t99.5 255.5v172q-55 -83 -150.5 -139t-206.5 -56q-199 0 -320.5 143t-121.5 378q0 234 121.5 378t320.5 144q108 0 202 -52.5t155 -142.5v170h61v-995q0 -202 -113 -298.5
t-305 -96.5zM565 27q111 0 210 58.5t147 141.5v531q-48 83 -147 141.5t-210 58.5q-118 0 -204 -63t-128.5 -167t-42.5 -236q0 -202 99.5 -333.5t275.5 -131.5zM938 1294q-62 -84 -155.5 -132t-202.5 -48q-108 0 -202.5 48t-158.5 132l43 39q55 -77 137.5 -120.5t180.5 -43.5
t180 43.5t137 120.5z" />
    <glyph glyph-name="Gdotaccent" unicode="&#x120;" horiz-adv-x="1449" 
d="M815 -27q-141 0 -266.5 52.5t-217 144t-145 225t-53.5 287.5t53.5 287t145 224.5t217 143.5t266.5 52q295 0 500 -211l-43 -45q-80 91 -200.5 142.5t-256.5 51.5q-127 0 -239.5 -47t-194 -130.5t-129 -204.5t-47.5 -263q0 -140 47.5 -261.5t129 -205.5t194 -132
t239.5 -48q137 0 250 54.5t184 129.5v375h-563v61h629v-462q-91 -102 -221 -161t-279 -59zM821 1501q-23 0 -41 17.5t-18 42.5q0 24 17.5 41.5t41.5 17.5q25 0 42.5 -17t17.5 -42t-17.5 -42.5t-42.5 -17.5z" />
    <glyph glyph-name="gdotaccent" unicode="&#x121;" horiz-adv-x="1159" 
d="M565 -401q-130 0 -213 30.5t-166 118.5l45 51q64 -79 140.5 -112t193.5 -33q158 0 257.5 84.5t99.5 255.5v172q-55 -83 -150.5 -139t-206.5 -56q-199 0 -320.5 143t-121.5 378q0 234 121.5 378t320.5 144q108 0 202 -52.5t155 -142.5v170h61v-995q0 -202 -113 -298.5
t-305 -96.5zM565 27q111 0 210 58.5t147 141.5v531q-48 83 -147 141.5t-210 58.5q-118 0 -204 -63t-128.5 -167t-42.5 -236q0 -202 99.5 -333.5t275.5 -131.5zM575 1159q-23 0 -41 17.5t-18 42.5q0 24 17.5 41.5t41.5 17.5q25 0 42.5 -17t17.5 -42t-17.5 -42.5t-42.5 -17.5z
" />
    <glyph glyph-name="Gcommaaccent" unicode="&#x122;" horiz-adv-x="1449" 
d="M899 -281q0 -73 -37 -141.5t-90 -105.5l-45 36q49 36 79 89t30 100q-13 -2 -17 -2q-29 0 -47 19.5t-18 47.5q0 27 18.5 46.5t46.5 19.5q34 0 57 -29t23 -80zM815 -27q-141 0 -266.5 52.5t-217 144t-145 225t-53.5 287.5t53.5 287t145 224.5t217 143.5t266.5 52
q295 0 500 -211l-43 -45q-80 91 -200.5 142.5t-256.5 51.5q-127 0 -239.5 -47t-194 -130.5t-129 -204.5t-47.5 -263q0 -140 47.5 -261.5t129 -205.5t194 -132t239.5 -48q137 0 250 54.5t184 129.5v375h-563v61h629v-462q-91 -102 -221 -161t-279 -59z" />
    <glyph glyph-name="gcommaaccent" unicode="&#x123;" horiz-adv-x="1159" 
d="M494 1249q0 82 38 156.5t84 107.5l50 -38q-49 -36 -79 -89t-30 -100q4 2 8 2q26 0 47 -20t21 -47q0 -26 -20 -46t-48 -20q-32 0 -51.5 27t-19.5 67zM565 -401q-130 0 -213 30.5t-166 118.5l45 51q64 -79 140.5 -112t193.5 -33q158 0 257.5 84.5t99.5 255.5v172
q-55 -83 -150.5 -139t-206.5 -56q-199 0 -320.5 143t-121.5 378q0 234 121.5 378t320.5 144q108 0 202 -52.5t155 -142.5v170h61v-995q0 -202 -113 -298.5t-305 -96.5zM565 27q111 0 210 58.5t147 141.5v531q-48 83 -147 141.5t-210 58.5q-118 0 -204 -63t-128.5 -167
t-42.5 -236q0 -202 99.5 -333.5t275.5 -131.5z" />
    <glyph glyph-name="Hcircumflex" unicode="&#x124;" horiz-adv-x="1423" 
d="M946 1481h-57l-187 245l-180 -245h-57l201 295h73zM1243 0h-65v672h-932v-672h-66v1366h66v-633h932v633h65v-1366z" />
    <glyph glyph-name="hcircumflex" unicode="&#x125;" 
d="M788 1481h-57l-186 245l-180 -245h-58l201 295h74zM905 0h-61v694q0 147 -65.5 205.5t-190.5 58.5q-98 0 -196.5 -54.5t-153.5 -131.5v-772h-62v1366h62v-532q60 73 160.5 126.5t197.5 53.5q153 0 231 -75.5t78 -244.5v-694z" />
    <glyph glyph-name="Hbar" unicode="&#x126;" horiz-adv-x="1468" 
d="M1268 0h-66v672h-932v-672h-65v1026h-180v55h180v285h65v-285h932v285h66v-285h176v-55h-176v-1026zM270 733h932v293h-932v-293z" />
    <glyph glyph-name="hbar" unicode="&#x127;" 
d="M578 1108h-340v-274q60 73 160.5 126.5t197.5 53.5q153 0 231 -75.5t78 -244.5v-694h-61v694q0 147 -65.5 205.5t-190.5 58.5q-98 0 -196.5 -54.5t-153.5 -131.5v-772h-62v1108h-156v55h156v203h62v-203h340v-55z" />
    <glyph glyph-name="Itilde" unicode="&#x128;" horiz-adv-x="425" 
d="M246 0h-66v1366h66v-1366zM340 1477q-44 0 -76 24t-51.5 57.5t-36.5 67.5t-41.5 58t-56.5 24q-54 0 -87.5 -54.5t-33.5 -164.5h-53q0 116 48 195t132 79q44 0 76 -24t51.5 -57.5t36.5 -67.5t41.5 -58t56.5 -24q54 0 87.5 54.5t33.5 164.5h53q0 -116 -48 -195t-132 -79z
" />
    <glyph glyph-name="itilde" unicode="&#x129;" horiz-adv-x="413" 
d="M238 0h-62v989h62v-989zM334 1135q-44 0 -76 24t-51.5 57.5t-36.5 67.5t-41.5 58t-56.5 24q-54 0 -87.5 -54.5t-33.5 -164.5h-53q0 116 48 195t132 79q44 0 76 -24t51.5 -57.5t36.5 -67.5t41.5 -58t56.5 -24q54 0 87.5 54.5t33.5 164.5h53q0 -116 -48 -195t-132 -79z" />
    <glyph glyph-name="Imacron" unicode="&#x12a;" horiz-adv-x="425" 
d="M246 0h-66v1366h66v-1366zM586 1532h-744v55h744v-55z" />
    <glyph glyph-name="imacron" unicode="&#x12b;" horiz-adv-x="413" 
d="M238 0h-62v989h62v-989zM580 1190h-744v55h744v-55z" />
    <glyph glyph-name="Ibreve" unicode="&#x12c;" horiz-adv-x="425" 
d="M246 0h-66v1366h66v-1366zM573 1636q-62 -84 -155.5 -132t-202.5 -48q-107 0 -201.5 48t-158.5 132l43 39q55 -77 137 -120.5t180 -43.5t180 43.5t137 120.5z" />
    <glyph glyph-name="ibreve" unicode="&#x12d;" horiz-adv-x="413" 
d="M238 0h-62v989h62v-989zM567 1294q-62 -84 -155.5 -132t-202.5 -48q-108 0 -202.5 48t-158.5 132l43 39q55 -77 137.5 -120.5t180.5 -43.5t180 43.5t137 120.5z" />
    <glyph glyph-name="Iogonek" unicode="&#x12e;" horiz-adv-x="425" 
d="M303 -229l51 -23q-47 -129 -170 -129q-72 0 -119 43t-47 129q0 67 45 130t117 104v1341h66v-1366q-168 -81 -168 -209q0 -57 27.5 -87t78.5 -30q88 0 119 97z" />
    <glyph glyph-name="iogonek" unicode="&#x12f;" horiz-adv-x="413" 
d="M295 -229l51 -23q-47 -129 -170 -129q-72 0 -119 43t-47 129q0 69 46 133t120 103v962h62v-989q-168 -81 -168 -209q0 -57 27.5 -87t78.5 -30q88 0 119 97zM207 1159q-24 0 -42 18t-18 42t18 41.5t42 17.5q25 0 42 -17t17 -42t-17 -42.5t-42 -17.5z" />
    <glyph glyph-name="Idotaccent" unicode="&#x130;" horiz-adv-x="425" 
d="M246 0h-66v1366h66v-1366zM213 1501q-23 0 -41 17.5t-18 42.5q0 24 17.5 41.5t41.5 17.5q25 0 42 -17t17 -42t-17 -42.5t-42 -17.5z" />
    <glyph glyph-name="dotlessi" unicode="&#x131;" horiz-adv-x="413" 
d="M238 0h-62v989h62v-989z" />
    <glyph glyph-name="IJ" unicode="&#x132;" horiz-adv-x="1378" 
d="M246 0h-66v1366h66v-1366zM805 -25q-112 0 -196 43.5t-150 135.5l55 49q116 -166 291 -166q150 0 239 94.5t89 247.5v987h65v-987q0 -99 -31.5 -177.5t-86 -127t-125 -74t-150.5 -25.5z" />
    <glyph glyph-name="ij" unicode="&#x133;" horiz-adv-x="827" 
d="M207 1159q-24 0 -42 18t-18 42t18 41.5t42 17.5q25 0 42 -17t17 -42t-17 -42.5t-42 -17.5zM238 0h-62v989h62v-989zM621 1159q-24 0 -42 18t-18 42t18 41.5t42 17.5q25 0 42 -17t17 -42t-17 -42.5t-42 -17.5zM408 -401q-106 0 -189 77l39 52q66 -74 150 -74q82 0 132 47
t50 143v1145h61v-1145q0 -124 -63.5 -184.5t-179.5 -60.5z" />
    <glyph glyph-name="Jcircumflex" unicode="&#x134;" horiz-adv-x="952" 
d="M979 1481h-57l-187 245l-180 -245h-57l200 295h74zM379 -25q-112 0 -196 43.5t-150 135.5l55 49q116 -166 291 -166q150 0 239 94.5t89 247.5v987h65v-987q0 -99 -31.5 -177.5t-86 -127t-125 -74t-150.5 -25.5z" />
    <glyph glyph-name="jcircumflex" unicode="&#x135;" horiz-adv-x="413" 
d="M451 1139h-58l-186 245l-180 -245h-58l201 295h74zM-6 -401q-106 0 -189 77l39 52q66 -74 150 -74q82 0 132 47t50 143v1145h62v-1145q0 -124 -64 -184.5t-180 -60.5z" />
    <glyph glyph-name="Kcommaaccent" unicode="&#x136;" horiz-adv-x="1169" 
d="M676 -281q0 -73 -37 -141.5t-90 -105.5l-45 36q49 36 78.5 89t29.5 100q-12 -2 -16 -2q-29 0 -47.5 19.5t-18.5 47.5q0 27 18.5 46.5t47.5 19.5q34 0 57 -29t23 -80zM1106 0h-88l-608 672l-164 -178v-494h-66v1366h66v-788l710 788h88l-593 -653z" />
    <glyph glyph-name="kcommaaccent" unicode="&#x137;" horiz-adv-x="1015" 
d="M600 -281q0 -73 -37 -141.5t-90 -105.5l-45 36q49 36 79 89t30 100q-13 -2 -17 -2q-29 0 -47 19.5t-18 47.5q0 27 18.5 46.5t46.5 19.5q34 0 57 -29t23 -80zM965 0h-88l-435 498l-204 -189v-309h-62v1366h62v-979l645 602h88l-482 -446z" />
    <glyph glyph-name="kgreenlandic" unicode="&#x138;" horiz-adv-x="1015" 
d="M965 0h-88l-435 498l-204 -189v-309h-62v989h62v-602l645 602h88l-482 -446z" />
    <glyph glyph-name="Lacute" unicode="&#x139;" horiz-adv-x="1021" 
d="M870 1776l-358 -295h-61l327 295h92zM932 0h-752v1366h66v-1305h686v-61z" />
    <glyph glyph-name="lacute" unicode="&#x13a;" horiz-adv-x="413" 
d="M522 1776l-358 -295h-62l328 295h92zM238 0h-62v1366h62v-1366z" />
    <glyph glyph-name="Lcommaaccent" unicode="&#x13b;" horiz-adv-x="1021" 
d="M641 -281q0 -73 -37 -141.5t-90 -105.5l-45 36q49 36 79 89t30 100q-13 -2 -17 -2q-29 0 -47 19.5t-18 47.5q0 27 18.5 46.5t46.5 19.5q34 0 57 -29t23 -80zM932 0h-752v1366h66v-1305h686v-61z" />
    <glyph glyph-name="lcommaaccent" unicode="&#x13c;" horiz-adv-x="413" 
d="M299 -281q0 -73 -37 -141.5t-90 -105.5l-45 36q49 36 79 89t30 100q-13 -2 -17 -2q-29 0 -47 19.5t-18 47.5q0 27 18.5 46.5t46.5 19.5q34 0 57 -29t23 -80zM238 0h-62v1366h62v-1366z" />
    <glyph glyph-name="Lcaron" unicode="&#x13d;" horiz-adv-x="1021" 
d="M610 1282q0 -73 -37.5 -142t-89.5 -106l-45 37q49 36 79 89t30 100q-13 -3 -17 -3q-29 0 -47 20t-18 48q0 27 18.5 46.5t46.5 19.5q34 0 57 -29t23 -80zM932 0h-752v1366h66v-1305h686v-61z" />
    <glyph glyph-name="lcaron" unicode="&#x13e;" horiz-adv-x="485" 
d="M530 1282q0 -73 -37.5 -142t-89.5 -106l-45 37q49 36 79 89t30 100q-12 -3 -16 -3q-29 0 -47.5 20t-18.5 48q0 27 18.5 46.5t47.5 19.5q34 0 56.5 -29t22.5 -80zM238 0h-62v1366h62v-1366z" />
    <glyph glyph-name="Ldot" unicode="&#x13f;" horiz-adv-x="1021" 
d="M932 0h-752v1366h66v-1305h686v-61zM774 700q0 -28 -19.5 -47.5t-47.5 -19.5t-48 19.5t-20 47.5q0 26 20 46t48 20q27 0 47 -20t20 -46z" />
    <glyph glyph-name="ldot" unicode="&#x140;" horiz-adv-x="491" 
d="M238 0h-62v1366h62v-1366zM520 502q0 -28 -19.5 -48t-47.5 -20t-48 20t-20 48q0 26 20 45.5t48 19.5t47.5 -19.5t19.5 -45.5z" />
    <glyph glyph-name="Lslash" unicode="&#x141;" horiz-adv-x="1071" 
d="M25 504v69l204 119v674h66v-637l233 137v-69l-233 -138v-598h686v-61h-752v623z" />
    <glyph glyph-name="lslash" unicode="&#x142;" horiz-adv-x="548" 
d="M25 508v65l219 125v668h61v-633l219 127v-65l-219 -127v-668h-61v633z" />
    <glyph glyph-name="Nacute" unicode="&#x143;" horiz-adv-x="1413" 
d="M1065 1776l-358 -295h-62l328 295h92zM1233 0h-66l-921 1260v-1260h-66v1366h66l921 -1247v1247h66v-1366z" />
    <glyph glyph-name="nacute" unicode="&#x144;" 
d="M856 1434l-358 -295h-62l328 295h92zM905 0h-61v690q0 147 -66 207.5t-190 60.5q-98 0 -196.5 -54.5t-153.5 -131.5v-772h-62v989h62v-155q60 73 160.5 126.5t197.5 53.5q153 0 231 -77t78 -247v-690z" />
    <glyph glyph-name="Ncommaaccent" unicode="&#x145;" horiz-adv-x="1413" 
d="M799 -281q0 -73 -37 -141.5t-90 -105.5l-45 36q49 36 78.5 89t29.5 100q-12 -2 -16 -2q-29 0 -47.5 19.5t-18.5 47.5q0 27 18.5 46.5t47.5 19.5q34 0 57 -29t23 -80zM1233 0h-66l-921 1260v-1260h-66v1366h66l921 -1247v1247h66v-1366z" />
    <glyph glyph-name="ncommaaccent" unicode="&#x146;" 
d="M633 -281q0 -73 -37 -141.5t-90 -105.5l-45 36q49 36 78.5 89t29.5 100q-12 -2 -16 -2q-29 0 -47.5 19.5t-18.5 47.5q0 27 18.5 46.5t47.5 19.5q34 0 57 -29t23 -80zM905 0h-61v690q0 147 -66 207.5t-190 60.5q-98 0 -196.5 -54.5t-153.5 -131.5v-772h-62v989h62v-155
q60 73 160.5 126.5t197.5 53.5q153 0 231 -77t78 -247v-690z" />
    <glyph glyph-name="Ncaron" unicode="&#x147;" horiz-adv-x="1413" 
d="M745 1481h-73l-207 295h57l187 -246l180 246h57zM1233 0h-66l-921 1260v-1260h-66v1366h66l921 -1247v1247h66v-1366z" />
    <glyph glyph-name="ncaron" unicode="&#x148;" 
d="M580 1139h-74l-207 295h57l187 -246l180 246h57zM905 0h-61v690q0 147 -66 207.5t-190 60.5q-98 0 -196.5 -54.5t-153.5 -131.5v-772h-62v989h62v-155q60 73 160.5 126.5t197.5 53.5q153 0 231 -77t78 -247v-690z" />
    <glyph glyph-name="napostrophe" unicode="&#x149;" 
d="M305 1376q0 -73 -37.5 -142t-89.5 -106l-45 37q49 36 79 89t30 100q-13 -2 -17 -2q-29 0 -47 19.5t-18 47.5q0 27 18.5 46.5t46.5 19.5q34 0 57 -29t23 -80zM905 0h-61v690q0 147 -66 207.5t-190 60.5q-98 0 -196.5 -54.5t-153.5 -131.5v-772h-62v989h62v-155
q60 73 160.5 126.5t197.5 53.5q153 0 231 -77t78 -247v-690z" />
    <glyph glyph-name="Eng" unicode="&#x14a;" horiz-adv-x="1413" 
d="M840 -401q-113 0 -196.5 43t-149.5 135l55 49q116 -166 291 -166q151 0 239 92t88 244v4l-921 1260v-1260h-66v1366h66l921 -1247v1247h66v-1370q0 -131 -55 -222.5t-142 -133t-196 -41.5z" />
    <glyph glyph-name="eng" unicode="&#x14b;" 
d="M905 690v-846q0 -124 -63.5 -184.5t-179.5 -60.5q-106 0 -189 77l39 52q66 -74 150 -74q82 0 132 47t50 143v846q0 147 -66 207.5t-190 60.5q-98 0 -196.5 -54.5t-153.5 -131.5v-772h-62v989h62v-155q60 73 160.5 126.5t197.5 53.5q153 0 231 -77t78 -247z" />
    <glyph glyph-name="Omacron" unicode="&#x14c;" horiz-adv-x="1564" 
d="M1153 1532h-743v55h743v-55zM782 -25q-194 0 -343 94.5t-227.5 254.5t-78.5 358t78.5 358t227.5 254.5t343 94.5q193 0 342.5 -94.5t228.5 -255t79 -357.5t-79 -357.5t-228.5 -255t-342.5 -94.5zM782 37q172 0 304 84t203 230t71 331q0 187 -71 333t-203 229t-304 83
q-174 0 -306 -83t-201.5 -229t-69.5 -333q0 -185 69.5 -331t201.5 -230t306 -84z" />
    <glyph glyph-name="omacron" unicode="&#x14d;" horiz-adv-x="1167" 
d="M954 1190h-743v55h743v-55zM584 -25q-136 0 -242 69.5t-162.5 188t-56.5 263.5t56.5 262.5t162.5 186.5t242 69q137 0 243 -69t161.5 -186t55.5 -263t-55.5 -264t-161.5 -187.5t-243 -69.5zM584 31q92 0 168 38.5t124.5 103.5t74.5 148t26 175q0 91 -26 173.5t-74.5 147
t-124.5 103t-168 38.5q-121 0 -212.5 -66t-136.5 -170t-45 -226q0 -123 45 -227.5t136.5 -171t212.5 -66.5z" />
    <glyph glyph-name="Obreve" unicode="&#x14e;" horiz-adv-x="1564" 
d="M782 -25q-194 0 -343 94.5t-227.5 254.5t-78.5 358t78.5 358t227.5 254.5t343 94.5q193 0 342.5 -94.5t228.5 -255t79 -357.5t-79 -357.5t-228.5 -255t-342.5 -94.5zM782 37q172 0 304 84t203 230t71 331q0 187 -71 333t-203 229t-304 83q-174 0 -306 -83t-201.5 -229
t-69.5 -333q0 -185 69.5 -331t201.5 -230t306 -84zM1139 1636q-62 -84 -156 -132t-203 -48q-107 0 -201.5 48t-158.5 132l43 39q55 -77 137 -120.5t180 -43.5t180.5 43.5t137.5 120.5z" />
    <glyph glyph-name="obreve" unicode="&#x14f;" horiz-adv-x="1167" 
d="M584 -25q-136 0 -242 69.5t-162.5 188t-56.5 263.5t56.5 262.5t162.5 186.5t242 69q137 0 243 -69t161.5 -186t55.5 -263t-55.5 -264t-161.5 -187.5t-243 -69.5zM584 31q92 0 168 38.5t124.5 103.5t74.5 148t26 175q0 91 -26 173.5t-74.5 147t-124.5 103t-168 38.5
q-121 0 -212.5 -66t-136.5 -170t-45 -226q0 -123 45 -227.5t136.5 -171t212.5 -66.5zM946 1294q-62 -84 -155.5 -132t-202.5 -48q-108 0 -202.5 48t-158.5 132l43 39q55 -77 137.5 -120.5t180.5 -43.5t180 43.5t137 120.5z" />
    <glyph glyph-name="Ohungarumlaut" unicode="&#x150;" horiz-adv-x="1564" 
d="M868 1776l-235 -295h-53l204 295h84zM1147 1776l-236 -295h-53l205 295h84zM782 -25q-194 0 -343 94.5t-227.5 254.5t-78.5 358t78.5 358t227.5 254.5t343 94.5q193 0 342.5 -94.5t228.5 -255t79 -357.5t-79 -357.5t-228.5 -255t-342.5 -94.5zM782 37q172 0 304 84
t203 230t71 331q0 187 -71 333t-203 229t-304 83q-174 0 -306 -83t-201.5 -229t-69.5 -333q0 -185 69.5 -331t201.5 -230t306 -84z" />
    <glyph glyph-name="ohungarumlaut" unicode="&#x151;" horiz-adv-x="1167" 
d="M670 1434l-236 -295h-53l205 295h84zM948 1434l-235 -295h-54l205 295h84zM584 -25q-136 0 -242 69.5t-162.5 188t-56.5 263.5t56.5 262.5t162.5 186.5t242 69q137 0 243 -69t161.5 -186t55.5 -263t-55.5 -264t-161.5 -187.5t-243 -69.5zM584 31q92 0 168 38.5
t124.5 103.5t74.5 148t26 175q0 91 -26 173.5t-74.5 147t-124.5 103t-168 38.5q-121 0 -212.5 -66t-136.5 -170t-45 -226q0 -123 45 -227.5t136.5 -171t212.5 -66.5z" />
    <glyph glyph-name="OE" unicode="&#x152;" horiz-adv-x="2301" 
d="M2169 0h-836v322q-80 -166 -228 -256.5t-323 -90.5q-194 0 -343 94.5t-227.5 254.5t-78.5 358q0 147 46 276.5t129 224t205.5 149t268.5 54.5q175 0 323 -88.5t228 -253.5v322h836v-61h-770v-572h755v-61h-755v-611h770v-61zM1333 446v474q-69 200 -214 302.5t-337 102.5
q-262 0 -419.5 -179t-157.5 -464q0 -186 69.5 -332t201.5 -229.5t306 -83.5q191 0 336.5 104t214.5 305z" />
    <glyph glyph-name="oe" unicode="&#x153;" horiz-adv-x="2023" 
d="M1901 475h-854q3 -122 53 -222t145 -161t217 -61q204 0 344 149l37 -39q-79 -82 -170 -124t-211 -42q-82 0 -153 23t-119.5 58t-86.5 81.5t-59 89t-32 84.5q-12 -41 -30.5 -81t-54.5 -88t-81 -83.5t-113.5 -59.5t-148.5 -24q-136 0 -242 69.5t-162.5 188t-56.5 263.5
t56.5 262.5t162.5 186.5t242 69q67 0 127 -16.5t103.5 -45t78.5 -63t59 -73.5t38.5 -73t21.5 -65q11 39 31.5 81t57.5 88.5t83.5 82.5t114 60t143.5 24q110 0 199 -42t145 -114.5t85.5 -165t29.5 -196.5v-21zM1047 530h788q0 58 -15 117.5t-47 115.5t-77 99t-111.5 69.5
t-144.5 26.5q-74 0 -137.5 -26t-109 -68.5t-78.5 -98.5t-49.5 -115.5t-18.5 -119.5zM977 496q0 91 -26 173.5t-74.5 147t-124.5 103t-168 38.5q-121 0 -212.5 -66t-136.5 -170t-45 -226q0 -124 45 -228.5t136.5 -171.5t212.5 -67q92 0 168 39t124.5 104t74.5 148.5t26 175.5
z" />
    <glyph glyph-name="Racute" unicode="&#x154;" horiz-adv-x="1185" 
d="M922 1776l-359 -295h-61l327 295h93zM1073 0h-84l-416 590h-327v-590h-66v1366h471q173 0 288.5 -103t115.5 -284t-115.5 -285t-288.5 -104zM651 651q149 0 240.5 92.5t91.5 235.5t-91.5 234.5t-240.5 91.5h-405v-654h405z" />
    <glyph glyph-name="racute" unicode="&#x155;" horiz-adv-x="622" 
d="M692 1434l-358 -295h-62l328 295h92zM238 0h-62v989h62v-180q150 199 340 199v-74q-18 2 -50 2q-76 0 -165.5 -62t-124.5 -133v-741z" />
    <glyph glyph-name="Rcommaaccent" unicode="&#x156;" horiz-adv-x="1185" 
d="M684 -281q0 -73 -37 -141.5t-90 -105.5l-45 36q49 36 79 89t30 100q-13 -2 -17 -2q-29 0 -47 19.5t-18 47.5q0 27 18.5 46.5t46.5 19.5q34 0 57 -29t23 -80zM1073 0h-84l-416 590h-327v-590h-66v1366h471q173 0 288.5 -103t115.5 -284t-115.5 -285t-288.5 -104zM651 651
q149 0 240.5 92.5t91.5 235.5t-91.5 234.5t-240.5 91.5h-405v-654h405z" />
    <glyph glyph-name="rcommaaccent" unicode="&#x157;" horiz-adv-x="622" 
d="M403 -281q0 -73 -37 -141.5t-90 -105.5l-45 36q49 36 79 89t30 100q-12 -2 -16 -2q-29 0 -47.5 19.5t-18.5 47.5q0 27 18.5 46.5t47.5 19.5q34 0 56.5 -29t22.5 -80zM238 0h-62v989h62v-180q150 199 340 199v-74q-18 2 -50 2q-76 0 -165.5 -62t-124.5 -133v-741z" />
    <glyph glyph-name="Rcaron" unicode="&#x158;" horiz-adv-x="1185" 
d="M633 1481h-74l-207 295h58l186 -246l180 246h58zM1073 0h-84l-416 590h-327v-590h-66v1366h471q173 0 288.5 -103t115.5 -284t-115.5 -285t-288.5 -104zM651 651q149 0 240.5 92.5t91.5 235.5t-91.5 234.5t-240.5 91.5h-405v-654h405z" />
    <glyph glyph-name="rcaron" unicode="&#x159;" horiz-adv-x="622" 
d="M412 1139h-74l-207 295h57l187 -246l180 246h57zM238 0h-62v989h62v-180q150 199 340 199v-74q-18 2 -50 2q-76 0 -165.5 -62t-124.5 -133v-741z" />
    <glyph glyph-name="Sacute" unicode="&#x15a;" horiz-adv-x="1177" 
d="M897 1776l-358 -295h-62l328 295h92zM586 -25q-153 0 -276 59.5t-201 158.5l53 47q72 -87 180 -145t244 -58q112 0 193.5 29.5t123 77.5t60 98t18.5 104q0 72 -28.5 127t-76.5 89t-110 60t-131 45.5t-137.5 39t-130.5 46.5t-110 62.5t-76.5 92.5t-28.5 132
q0 107 60.5 188t157 121t210.5 40q286 0 442 -193l-51 -47q-137 178 -391 178q-151 0 -254 -81t-103 -206q0 -79 46 -133.5t119 -85.5t161.5 -56t177 -55t161.5 -71t119 -115.5t46 -177.5q0 -50 -12.5 -98t-46 -98.5t-84.5 -88.5t-134.5 -62t-189.5 -24z" />
    <glyph glyph-name="sacute" unicode="&#x15b;" horiz-adv-x="929" 
d="M764 1434l-358 -295h-62l328 295h92zM453 -25q-118 0 -204 37t-159 121l49 45q49 -66 130 -106.5t184 -40.5q134 0 213 64.5t79 164.5q0 61 -35 104t-91 66t-123.5 41t-135 38t-123.5 47t-91 76.5t-35 119.5q0 113 90 187.5t245 74.5q225 0 340 -150l-45 -41
q-44 63 -120.5 99t-174.5 36q-126 0 -200 -58t-74 -148q0 -49 27.5 -85t72 -55.5t101.5 -37.5t116.5 -31t116.5 -35.5t101.5 -51t72 -79t27.5 -117.5q0 -123 -91 -204t-263 -81z" />
    <glyph glyph-name="Scircumflex" unicode="&#x15c;" horiz-adv-x="1177" 
d="M813 1481h-57l-187 245l-180 -245h-57l200 295h74zM586 -25q-153 0 -276 59.5t-201 158.5l53 47q72 -87 180 -145t244 -58q112 0 193.5 29.5t123 77.5t60 98t18.5 104q0 72 -28.5 127t-76.5 89t-110 60t-131 45.5t-137.5 39t-130.5 46.5t-110 62.5t-76.5 92.5t-28.5 132
q0 107 60.5 188t157 121t210.5 40q286 0 442 -193l-51 -47q-137 178 -391 178q-151 0 -254 -81t-103 -206q0 -79 46 -133.5t119 -85.5t161.5 -56t177 -55t161.5 -71t119 -115.5t46 -177.5q0 -50 -12.5 -98t-46 -98.5t-84.5 -88.5t-134.5 -62t-189.5 -24z" />
    <glyph glyph-name="scircumflex" unicode="&#x15d;" horiz-adv-x="929" 
d="M694 1139h-57l-186 245l-181 -245h-57l201 295h73zM453 -25q-118 0 -204 37t-159 121l49 45q49 -66 130 -106.5t184 -40.5q134 0 213 64.5t79 164.5q0 61 -35 104t-91 66t-123.5 41t-135 38t-123.5 47t-91 76.5t-35 119.5q0 113 90 187.5t245 74.5q225 0 340 -150
l-45 -41q-44 63 -120.5 99t-174.5 36q-126 0 -200 -58t-74 -148q0 -49 27.5 -85t72 -55.5t101.5 -37.5t116.5 -31t116.5 -35.5t101.5 -51t72 -79t27.5 -117.5q0 -123 -91 -204t-263 -81z" />
    <glyph glyph-name="Scedilla" unicode="&#x15e;" horiz-adv-x="1177" 
d="M582 -383q-56 0 -108 16.5t-83 40.5l29 56q66 -58 162 -58q59 0 100 27.5t41 73.5q0 41 -22.5 64.5t-67.5 23.5q-57 0 -88 -39l-45 26l45 129q-139 7 -251 65.5t-185 150.5l53 47q72 -87 180 -145t244 -58q112 0 193.5 29.5t123 77.5t60 98t18.5 104q0 72 -28.5 127
t-76.5 89t-110 60t-131 45.5t-137.5 39t-130.5 46.5t-110 62.5t-76.5 92.5t-28.5 132q0 107 60.5 188t157 121t210.5 40q286 0 442 -193l-51 -47q-137 178 -391 178q-151 0 -254 -81t-103 -206q0 -79 46 -133.5t119 -85.5t161.5 -56t177 -55t161.5 -71t119 -115.5t46 -177.5
q0 -49 -12 -96.5t-44 -97t-81 -87.5t-129 -63t-181 -27l-35 -94q31 25 78 25q60 0 96.5 -36t36.5 -97q0 -68 -57 -112t-143 -44z" />
    <glyph glyph-name="scedilla" unicode="&#x15f;" horiz-adv-x="929" 
d="M451 -383q-56 0 -108 16.5t-83 40.5l29 56q66 -58 162 -58q59 0 100 27.5t41 73.5q0 41 -22.5 64.5t-67.5 23.5q-57 0 -88 -39l-45 26l45 129q-102 5 -179.5 42t-144.5 114l49 45q49 -66 130 -106.5t184 -40.5q134 0 213 64.5t79 164.5q0 61 -35 104t-91 66t-123.5 41
t-135 38t-123.5 47t-91 76.5t-35 119.5q0 113 90 187.5t245 74.5q225 0 340 -150l-45 -41q-44 63 -120.5 99t-174.5 36q-126 0 -200 -58t-74 -148q0 -49 27.5 -85t72 -55.5t101.5 -37.5t116.5 -31t116.5 -35.5t101.5 -51t72 -79t27.5 -117.5q0 -119 -86 -199t-246 -86
l-35 -94q31 25 78 25q60 0 96.5 -36t36.5 -97q0 -68 -57 -112t-143 -44z" />
    <glyph glyph-name="Scaron" unicode="&#x160;" horiz-adv-x="1177" 
d="M612 1481h-73l-207 295h57l186 -246l181 246h57zM586 -25q-153 0 -276 59.5t-201 158.5l53 47q72 -87 180 -145t244 -58q112 0 193.5 29.5t123 77.5t60 98t18.5 104q0 72 -28.5 127t-76.5 89t-110 60t-131 45.5t-137.5 39t-130.5 46.5t-110 62.5t-76.5 92.5t-28.5 132
q0 107 60.5 188t157 121t210.5 40q286 0 442 -193l-51 -47q-137 178 -391 178q-151 0 -254 -81t-103 -206q0 -79 46 -133.5t119 -85.5t161.5 -56t177 -55t161.5 -71t119 -115.5t46 -177.5q0 -50 -12.5 -98t-46 -98.5t-84.5 -88.5t-134.5 -62t-189.5 -24z" />
    <glyph glyph-name="scaron" unicode="&#x161;" horiz-adv-x="929" 
d="M494 1139h-74l-207 295h57l187 -246l180 246h57zM453 -25q-118 0 -204 37t-159 121l49 45q49 -66 130 -106.5t184 -40.5q134 0 213 64.5t79 164.5q0 61 -35 104t-91 66t-123.5 41t-135 38t-123.5 47t-91 76.5t-35 119.5q0 113 90 187.5t245 74.5q225 0 340 -150l-45 -41
q-44 63 -120.5 99t-174.5 36q-126 0 -200 -58t-74 -148q0 -49 27.5 -85t72 -55.5t101.5 -37.5t116.5 -31t116.5 -35.5t101.5 -51t72 -79t27.5 -117.5q0 -123 -91 -204t-263 -81z" />
    <glyph glyph-name="Tcommaaccent" unicode="&#x162;" horiz-adv-x="1144" 
d="M664 -281q0 -73 -37 -141.5t-90 -105.5l-45 36q49 36 78.5 89t29.5 100q-12 -2 -16 -2q-29 0 -47.5 19.5t-18.5 47.5q0 27 18.5 46.5t47.5 19.5q34 0 57 -29t23 -80zM604 0h-65v1305h-461v61h989v-61h-463v-1305z" />
    <glyph glyph-name="tcommaaccent" unicode="&#x163;" horiz-adv-x="524" 
d="M354 -281q0 -73 -37 -141.5t-90 -105.5l-45 36q49 36 79 89t30 100q-13 -2 -17 -2q-29 0 -47 19.5t-18 47.5q0 27 18.5 46.5t46.5 19.5q34 0 57 -29t23 -80zM356 -25q-84 0 -126 52t-42 147v760h-163v55h163v271h62v-271h201v-55h-201v-760q0 -66 26.5 -104.5t79.5 -38.5
q71 0 117 53l37 -47q-65 -62 -154 -62z" />
    <glyph glyph-name="Tcaron" unicode="&#x164;" horiz-adv-x="1144" 
d="M612 1481h-73l-207 295h57l186 -246l181 246h57zM604 0h-65v1305h-461v61h989v-61h-463v-1305z" />
    <glyph glyph-name="tcaron" unicode="&#x165;" horiz-adv-x="524" 
d="M532 1376q0 -73 -37 -142t-89 -106l-46 37q49 36 79 89t30 100q-12 -2 -16 -2q-29 0 -47.5 19.5t-18.5 47.5q0 27 18.5 46.5t47.5 19.5q34 0 56.5 -29t22.5 -80zM356 -25q-84 0 -126 52t-42 147v760h-163v55h163v271h62v-271h201v-55h-201v-760q0 -66 26.5 -104.5
t79.5 -38.5q71 0 117 53l37 -47q-65 -62 -154 -62z" />
    <glyph glyph-name="Tbar" unicode="&#x166;" horiz-adv-x="1144" 
d="M604 0h-65v657h-338v56h338v592h-461v61h989v-61h-463v-592h340v-56h-340v-657z" />
    <glyph glyph-name="tbar" unicode="&#x167;" horiz-adv-x="524" 
d="M356 -25q-84 0 -126 52t-42 147v322h-163v55h163v383h-163v55h163v271h62v-271h201v-55h-201v-383h145v-55h-145v-322q0 -66 26.5 -104.5t79.5 -38.5q71 0 117 53l37 -47q-65 -62 -154 -62z" />
    <glyph glyph-name="Utilde" unicode="&#x168;" horiz-adv-x="1376" 
d="M688 -25q-246 0 -377 143.5t-131 399.5v848h66v-848q0 -229 114 -355t328 -126t328 126t114 355v848h66v-848q0 -257 -131 -400t-377 -143zM821 1477q-44 0 -76 24t-51.5 57.5t-36.5 67.5t-41.5 58t-56.5 24q-54 0 -87.5 -54.5t-33.5 -164.5h-53q0 116 48 195t132 79
q44 0 76 -24t51.5 -57.5t36.5 -67.5t41.5 -58t56.5 -24q54 0 87.5 54.5t33.5 164.5h53q0 -116 -48 -195t-132 -79z" />
    <glyph glyph-name="utilde" unicode="&#x169;" 
d="M905 0h-61v152q-68 -76 -164.5 -126.5t-194.5 -50.5q-153 0 -231 75.5t-78 244.5v694h62v-694q0 -147 65.5 -205.5t190.5 -58.5q99 0 197.5 52t152.5 128v778h61v-989zM668 1135q-44 0 -76 24t-51.5 57.5t-36.5 67.5t-41.5 58t-56.5 24q-54 0 -87.5 -54.5t-33.5 -164.5
h-54q0 116 48.5 195t132.5 79q44 0 76 -24t51.5 -57.5t36.5 -67.5t41.5 -58t56.5 -24q54 0 87.5 54.5t33.5 164.5h53q0 -116 -48 -195t-132 -79z" />
    <glyph glyph-name="Umacron" unicode="&#x16a;" horiz-adv-x="1376" 
d="M688 -25q-246 0 -377 143.5t-131 399.5v848h66v-848q0 -229 114 -355t328 -126t328 126t114 355v848h66v-848q0 -257 -131 -400t-377 -143zM1059 1532h-744v55h744v-55z" />
    <glyph glyph-name="umacron" unicode="&#x16b;" 
d="M905 0h-61v152q-68 -76 -164.5 -126.5t-194.5 -50.5q-153 0 -231 75.5t-78 244.5v694h62v-694q0 -147 65.5 -205.5t190.5 -58.5q99 0 197.5 52t152.5 128v778h61v-989zM911 1190h-743v55h743v-55z" />
    <glyph glyph-name="Ubreve" unicode="&#x16c;" horiz-adv-x="1376" 
d="M688 -25q-246 0 -377 143.5t-131 399.5v848h66v-848q0 -229 114 -355t328 -126t328 126t114 355v848h66v-848q0 -257 -131 -400t-377 -143zM1055 1636q-62 -84 -156 -132t-203 -48q-107 0 -201.5 48t-158.5 132l43 39q55 -77 137 -120.5t180 -43.5t180.5 43.5
t137.5 120.5z" />
    <glyph glyph-name="ubreve" unicode="&#x16d;" 
d="M905 0h-61v152q-68 -76 -164.5 -126.5t-194.5 -50.5q-153 0 -231 75.5t-78 244.5v694h62v-694q0 -147 65.5 -205.5t190.5 -58.5q99 0 197.5 52t152.5 128v778h61v-989zM903 1294q-62 -84 -155.5 -132t-202.5 -48q-108 0 -202.5 48t-158.5 132l43 39q55 -77 137.5 -120.5
t180.5 -43.5t180 43.5t137 120.5z" />
    <glyph glyph-name="Uring" unicode="&#x16e;" horiz-adv-x="1376" 
d="M688 1475q-78 0 -134 56t-56 134t56 134t134 56t133.5 -56t55.5 -134t-55.5 -134t-133.5 -56zM688 1524q58 0 98.5 41t40.5 100t-40.5 100t-98.5 41t-99.5 -41t-41.5 -100t41.5 -100t99.5 -41zM688 -25q-246 0 -377 143.5t-131 399.5v848h66v-848q0 -229 114 -355
t328 -126t328 126t114 355v848h66v-848q0 -257 -131 -400t-377 -143z" />
    <glyph glyph-name="uring" unicode="&#x16f;" 
d="M541 1133q-78 0 -134.5 56t-56.5 134t56.5 134t134.5 56t133 -56t55 -134t-55 -134t-133 -56zM541 1182q58 0 98.5 41t40.5 100t-40.5 100t-98.5 41q-59 0 -100.5 -41.5t-41.5 -99.5t41.5 -99.5t100.5 -41.5zM905 0h-61v152q-68 -76 -164.5 -126.5t-194.5 -50.5
q-153 0 -231 75.5t-78 244.5v694h62v-694q0 -147 65.5 -205.5t190.5 -58.5q99 0 197.5 52t152.5 128v778h61v-989z" />
    <glyph glyph-name="Uhungarumlaut" unicode="&#x170;" horiz-adv-x="1376" 
d="M688 -25q-246 0 -377 143.5t-131 399.5v848h66v-848q0 -229 114 -355t328 -126t328 126t114 355v848h66v-848q0 -257 -131 -400t-377 -143zM774 1776l-235 -295h-54l205 295h84zM1053 1776l-236 -295h-53l205 295h84z" />
    <glyph glyph-name="uhungarumlaut" unicode="&#x171;" 
d="M905 0h-61v152q-68 -76 -164.5 -126.5t-194.5 -50.5q-153 0 -231 75.5t-78 244.5v694h62v-694q0 -147 65.5 -205.5t190.5 -58.5q99 0 197.5 52t152.5 128v778h61v-989zM627 1434l-236 -295h-53l205 295h84zM905 1434l-235 -295h-54l205 295h84z" />
    <glyph glyph-name="Uogonek" unicode="&#x172;" horiz-adv-x="1376" 
d="M688 -25q-246 0 -377 143.5t-131 399.5v848h66v-848q0 -229 114 -355t328 -126t328 126t114 355v848h66v-848q0 -204 -84.5 -338.5t-245.5 -179.5q-164 -80 -164 -209q0 -57 28 -87t79 -30q88 0 119 97l51 -23q-47 -129 -170 -129q-72 0 -119 43t-47 129q0 102 94 186
q-16 -2 -49 -2z" />
    <glyph glyph-name="uogonek" unicode="&#x173;" 
d="M905 0q-168 -81 -168 -209q0 -57 28 -87t79 -30q88 0 119 97l51 -23q-47 -129 -170 -129q-72 0 -119 43t-47 129q0 69 46 133t120 103v125q-68 -76 -164.5 -126.5t-194.5 -50.5q-153 0 -231 75.5t-78 244.5v694h62v-694q0 -147 65.5 -205.5t190.5 -58.5q99 0 197.5 52
t152.5 128v778h61v-989z" />
    <glyph glyph-name="Wcircumflex" unicode="&#x174;" horiz-adv-x="1744" 
d="M1114 1481h-57l-187 245l-180 -245h-57l201 295h73zM1305 0h-78l-355 1243l-354 -1243h-78l-389 1366h72l356 -1268l359 1268h69l359 -1268l356 1268h72z" />
    <glyph glyph-name="wcircumflex" unicode="&#x175;" horiz-adv-x="1441" 
d="M963 1139h-58l-186 245l-180 -245h-58l201 295h74zM1069 0h-49l-299 897l-299 -897h-49l-328 989h68l286 -893l297 893h49l297 -893l287 893h68z" />
    <glyph glyph-name="Ycircumflex" unicode="&#x176;" horiz-adv-x="1249" 
d="M868 1481h-57l-186 245l-181 -245h-57l201 295h74zM657 0h-65v592l-549 774h84l498 -709l497 709h84l-549 -774v-592z" />
    <glyph glyph-name="ycircumflex" unicode="&#x177;" horiz-adv-x="964" 
d="M102 -387l13 57q37 -16 86 -16q52 0 87 29t68 106l90 205l-423 995h71l389 -917l387 917h72l-524 -1222q-74 -168 -217 -168q-55 0 -99 14zM725 1139h-57l-187 245l-180 -245h-57l200 295h74z" />
    <glyph glyph-name="Ydieresis" unicode="&#x178;" horiz-adv-x="1249" 
d="M897 1567q0 -23 -17 -40.5t-40 -17.5t-40.5 17.5t-17.5 40.5t17.5 40t40.5 17t40 -17t17 -40zM483 1567q0 -23 -17 -40.5t-40 -17.5t-40 17.5t-17 40.5t17 40t40 17t40 -17t17 -40zM657 0h-65v592l-549 774h84l498 -709l497 709h84l-549 -774v-592z" />
    <glyph glyph-name="Zacute" unicode="&#x179;" horiz-adv-x="1183" 
d="M907 1776l-358 -295h-62l328 295h92zM1075 0h-966v61l874 1244h-874v61h952v-61l-877 -1244h891v-61z" />
    <glyph glyph-name="zacute" unicode="&#x17a;" horiz-adv-x="954" 
d="M793 1434l-359 -295h-61l327 295h93zM831 0h-708v55l629 879h-629v55h700v-55l-633 -879h641v-55z" />
    <glyph glyph-name="Zdotaccent" unicode="&#x17b;" horiz-adv-x="1183" 
d="M1075 0h-966v61l874 1244h-874v61h952v-61l-877 -1244h891v-61zM592 1501q-24 0 -42 18t-18 42t18 41.5t42 17.5q25 0 42 -17t17 -42t-17 -42.5t-42 -17.5z" />
    <glyph glyph-name="zdotaccent" unicode="&#x17c;" horiz-adv-x="954" 
d="M831 0h-708v55l629 879h-629v55h700v-55l-633 -879h641v-55zM477 1159q-23 0 -41 17.5t-18 42.5q0 24 17.5 41.5t41.5 17.5q25 0 42.5 -17t17.5 -42t-17.5 -42.5t-42.5 -17.5z" />
    <glyph glyph-name="Zcaron" unicode="&#x17d;" horiz-adv-x="1183" 
d="M631 1481h-74l-207 295h58l186 -246l180 246h57zM1075 0h-966v61l874 1244h-874v61h952v-61l-877 -1244h891v-61z" />
    <glyph glyph-name="zcaron" unicode="&#x17e;" horiz-adv-x="954" 
d="M502 1139h-74l-207 295h58l186 -246l180 246h57zM831 0h-708v55l629 879h-629v55h700v-55l-633 -879h641v-55z" />
    <glyph glyph-name="longs" unicode="&#x17f;" horiz-adv-x="503" 
d="M266 0h-61v934h-164v55h164v105q0 138 65.5 215t182.5 77q50 0 86.5 -12.5t81.5 -48.5l-37 -49q-58 55 -131 55q-93 0 -140 -61.5t-47 -175.5v-1094z" />
    <glyph glyph-name="florin" unicode="&#x192;" horiz-adv-x="843" 
d="M147 -330h-65l194 877h-163v61h176l108 486q31 138 114 215t200 77q95 0 153 -61l-47 -49q-40 49 -106 49q-92 0 -158.5 -62t-89.5 -169l-109 -486h332v-61h-344z" />
    <glyph glyph-name="Ohorn" unicode="&#x1a0;" horiz-adv-x="1564" 
d="M782 -25q-194 0 -343 94.5t-227.5 254.5t-78.5 358t78.5 358t227.5 254.5t343 94.5q153 0 279.5 -61t214.5 -171q42 36 68 85.5t26 92.5q-12 -2 -16 -2q-29 0 -47.5 20t-18.5 48q0 27 18.5 46t47.5 19q34 0 57 -29t23 -79q0 -73 -36.5 -141t-88.5 -105q123 -183 123 -430
q0 -197 -79 -357.5t-228.5 -255t-342.5 -94.5zM782 37q172 0 304 84t203 230t71 331q0 187 -71 333t-203 229t-304 83q-174 0 -306 -83t-201.5 -229t-69.5 -333q0 -185 69.5 -331t201.5 -230t306 -84z" />
    <glyph glyph-name="ohorn" unicode="&#x1a1;" horiz-adv-x="1167" 
d="M1036 1083q0 -66 -30 -128t-76 -103q114 -142 114 -356q0 -146 -55.5 -264t-161.5 -187.5t-243 -69.5q-136 0 -242 69.5t-162.5 188t-56.5 263.5t56.5 262.5t162.5 186.5t242 69q181 0 305 -121q38 37 61 82.5t23 85.5q-13 -2 -17 -2q-29 0 -47 19.5t-18 47.5
q0 27 18.5 46.5t46.5 19.5q34 0 57 -29t23 -80zM584 31q92 0 168 38.5t124.5 103.5t74.5 148t26 175q0 91 -26 173.5t-74.5 147t-124.5 103t-168 38.5q-121 0 -212.5 -66t-136.5 -170t-45 -226q0 -123 45 -227.5t136.5 -171t212.5 -66.5z" />
    <glyph glyph-name="Uhorn" unicode="&#x1af;" horiz-adv-x="1376" 
d="M1442 1495q0 -103 -68 -188.5t-178 -122.5v-666q0 -257 -131 -400t-377 -143t-377 143.5t-131 399.5v848h66v-848q0 -229 114 -355t328 -126t328 126t114 355v848h66v-125q78 33 130 98t52 134q-12 -3 -16 -3q-29 0 -47.5 20t-18.5 48q0 27 18.5 46.5t47.5 19.5
q34 0 57 -29t23 -80z" />
    <glyph glyph-name="uhorn" unicode="&#x1b0;" 
d="M905 0h-61v152q-68 -76 -164.5 -126.5t-194.5 -50.5q-153 0 -231 75.5t-78 244.5v694h62v-694q0 -147 65.5 -205.5t190.5 -58.5q99 0 197.5 52t152.5 128v778h61v-141q65 36 106.5 94.5t41.5 118.5q-13 -2 -17 -2q-29 0 -47 19.5t-18 47.5q0 27 18.5 46.5t46.5 19.5
q34 0 57 -29t23 -80q0 -95 -58 -175t-153 -124v-784z" />
    <glyph glyph-name="AEacute" unicode="&#x1fc;" horiz-adv-x="1904" 
d="M1284 1776l-358 -295h-62l328 295h92zM1772 0h-836v367h-586l-231 -367h-76l870 1366h859v-61h-771v-572h756v-61h-756v-611h771v-61zM936 428v862l-551 -862h551z" />
    <glyph glyph-name="aeacute" unicode="&#x1fd;" horiz-adv-x="1853" 
d="M1161 1434l-358 -295h-62l328 295h92zM1731 475h-801q6 -188 111 -316t274 -128q190 0 321 149l37 -39q-73 -83 -157 -124.5t-199 -41.5q-140 0 -247 75.5t-159 215.5q-43 -134 -148.5 -212.5t-244.5 -78.5q-172 0 -281.5 89t-109.5 243q0 102 52.5 178t135 113t181.5 37
q228 0 372 -141v219q0 117 -82.5 181t-220.5 64q-107 0 -189.5 -36.5t-156.5 -118.5l-47 41q144 170 410 170q56 0 109.5 -12.5t105.5 -40t87 -79.5t42 -122q47 110 148 182t222 72q85 0 156.5 -27.5t122.5 -76t86.5 -114t52.5 -141.5t17 -159v-21zM930 530h735
q0 59 -13 117.5t-42 115t-70.5 99.5t-104.5 69.5t-139 26.5q-68 0 -127.5 -26t-101.5 -68.5t-73 -98.5t-46.5 -115.5t-17.5 -119.5zM868 385v39q-61 75 -153.5 115.5t-198.5 40.5q-145 0 -233 -78.5t-88 -196.5t88 -196t233 -78q160 0 256 104t96 250z" />
    <glyph glyph-name="Oslashacute" unicode="&#x1fe;" horiz-adv-x="1564" 
d="M1098 1776l-359 -295h-61l328 295h92zM782 -25q-188 0 -333 88l-37 -63h-74l59 98q-126 95 -195 247.5t-69 336.5q0 198 78.5 358t227.5 254.5t343 94.5q180 0 332 -89l39 66h74l-62 -102q126 -94 196.5 -247t70.5 -335q0 -197 -79 -357.5t-228.5 -255t-342.5 -94.5z
M782 37q172 0 304 84t203 230t71 331q0 167 -59.5 304t-167.5 224l-652 -1093q132 -80 301 -80zM205 682q0 -168 58.5 -304.5t166.5 -223.5l651 1093q-132 80 -299 80q-174 0 -306 -83t-201.5 -229t-69.5 -333z" />
    <glyph glyph-name="oslashacute" unicode="&#x1ff;" horiz-adv-x="1167" 
d="M899 1434l-358 -295h-62l328 295h92zM242 0h-70l86 115q-135 148 -135 381q0 145 56.5 262.5t162.5 186.5t242 69q155 0 272 -90l49 65h68l-76 -102q71 -71 109 -172t38 -219q0 -146 -55.5 -264t-161.5 -187.5t-243 -69.5q-163 0 -285 101zM584 31q92 0 168 38.5
t124.5 103.5t74.5 148t26 175q0 98 -30.5 187t-86.5 153l-526 -711q100 -94 250 -94zM190 496q0 -197 107 -328l522 706q-100 84 -235 84q-121 0 -212.5 -66t-136.5 -170t-45 -226z" />
    <glyph glyph-name="Scommaaccent" unicode="&#x218;" horiz-adv-x="1177" 
d="M670 -281q0 -73 -37 -141.5t-90 -105.5l-45 36q49 36 78.5 89t29.5 100q-12 -2 -16 -2q-29 0 -47.5 19.5t-18.5 47.5q0 27 18.5 46.5t47.5 19.5q34 0 57 -29t23 -80zM586 -25q-153 0 -276 59.5t-201 158.5l53 47q72 -87 180 -145t244 -58q112 0 193.5 29.5t123 77.5
t60 98t18.5 104q0 72 -28.5 127t-76.5 89t-110 60t-131 45.5t-137.5 39t-130.5 46.5t-110 62.5t-76.5 92.5t-28.5 132q0 107 60.5 188t157 121t210.5 40q286 0 442 -193l-51 -47q-137 178 -391 178q-151 0 -254 -81t-103 -206q0 -79 46 -133.5t119 -85.5t161.5 -56t177 -55
t161.5 -71t119 -115.5t46 -177.5q0 -50 -12.5 -98t-46 -98.5t-84.5 -88.5t-134.5 -62t-189.5 -24z" />
    <glyph glyph-name="scommaaccent" unicode="&#x219;" horiz-adv-x="929" 
d="M557 -281q0 -73 -37 -141.5t-90 -105.5l-45 36q49 36 79 89t30 100q-13 -2 -17 -2q-29 0 -47 19.5t-18 47.5q0 27 18.5 46.5t46.5 19.5q34 0 57 -29t23 -80zM453 -25q-118 0 -204 37t-159 121l49 45q49 -66 130 -106.5t184 -40.5q134 0 213 64.5t79 164.5q0 61 -35 104
t-91 66t-123.5 41t-135 38t-123.5 47t-91 76.5t-35 119.5q0 113 90 187.5t245 74.5q225 0 340 -150l-45 -41q-44 63 -120.5 99t-174.5 36q-126 0 -200 -58t-74 -148q0 -49 27.5 -85t72 -55.5t101.5 -37.5t116.5 -31t116.5 -35.5t101.5 -51t72 -79t27.5 -117.5
q0 -123 -91 -204t-263 -81z" />
    <glyph glyph-name="uni021A" unicode="&#x21a;" horiz-adv-x="1144" 
d="M664 -281q0 -73 -37 -141.5t-90 -105.5l-45 36q49 36 78.5 89t29.5 100q-12 -2 -16 -2q-29 0 -47.5 19.5t-18.5 47.5q0 27 18.5 46.5t47.5 19.5q34 0 57 -29t23 -80zM604 0h-65v1305h-461v61h989v-61h-463v-1305z" />
    <glyph glyph-name="uni021B" unicode="&#x21b;" horiz-adv-x="524" 
d="M354 -281q0 -73 -37 -141.5t-90 -105.5l-45 36q49 36 79 89t30 100q-13 -2 -17 -2q-29 0 -47 19.5t-18 47.5q0 27 18.5 46.5t46.5 19.5q34 0 57 -29t23 -80zM356 -25q-84 0 -126 52t-42 147v760h-163v55h163v271h62v-271h201v-55h-201v-760q0 -66 26.5 -104.5t79.5 -38.5
q71 0 117 53l37 -47q-65 -62 -154 -62z" />
    <glyph glyph-name="uni0237" unicode="&#x237;" horiz-adv-x="413" 
d="M-6 -401q-106 0 -189 77l39 52q66 -74 150 -74q82 0 132 47t50 143v1145h62v-1145q0 -124 -64 -184.5t-180 -60.5z" />
    <glyph glyph-name="hsuperior" unicode="&#x2b0;" horiz-adv-x="792" 
d="M651 668h-57v438q0 96 -43.5 135t-124.5 39q-64 0 -127.5 -35t-99.5 -82v-495h-58v888h58v-346q40 47 107.5 82t133.5 35q105 0 158 -52t53 -171v-436z" />
    <glyph glyph-name="uni02BC" unicode="&#x2bc;" horiz-adv-x="425" 
d="M291 1278q0 -73 -37.5 -142t-89.5 -106l-45 37q49 36 78.5 88.5t29.5 99.5q-12 -2 -16 -2q-29 0 -47.5 20t-18.5 48q0 27 18.5 46t47.5 19q34 0 57 -29t23 -79z" />
    <glyph glyph-name="circumflex" unicode="&#x2c6;" horiz-adv-x="481" 
d="M481 1139h-57l-186 245l-181 -245h-57l201 295h73z" />
    <glyph glyph-name="caron" unicode="&#x2c7;" horiz-adv-x="481" 
d="M281 1139h-74l-207 295h57l187 -246l180 246h57z" />
    <glyph glyph-name="uni02C9" unicode="&#x2c9;" horiz-adv-x="743" 
d="M743 1210h-743v56h743v-56z" />
    <glyph glyph-name="uni02CB" unicode="&#x2cb;" horiz-adv-x="419" 
d="M420 1139h-62l-358 295h92z" />
    <glyph glyph-name="breve" unicode="&#x2d8;" horiz-adv-x="718" 
d="M719 1294q-62 -84 -156 -132t-203 -48q-107 0 -201.5 48t-158.5 132l43 39q55 -77 137 -120.5t180 -43.5t180.5 43.5t137.5 120.5z" />
    <glyph glyph-name="dotaccent" unicode="&#x2d9;" horiz-adv-x="118" 
d="M59 1159q-23 0 -41 17.5t-18 42.5q0 24 17.5 41.5t41.5 17.5q25 0 42.5 -17t17.5 -42t-17.5 -42.5t-42.5 -17.5z" />
    <glyph glyph-name="ring" unicode="&#x2da;" horiz-adv-x="378" 
d="M190 1133q-78 0 -134 56t-56 134t56 134t134 56t133.5 -56t55.5 -134t-55.5 -134t-133.5 -56zM190 1182q58 0 99 41t41 100t-41 100t-99 41t-99.5 -41t-41.5 -100t41.5 -100t99.5 -41z" />
    <glyph glyph-name="ogonek" unicode="&#x2db;" horiz-adv-x="335" 
d="M285 -229l51 -23q-47 -129 -170 -129q-72 0 -119 43t-47 129q0 72 50.5 138.5t129.5 105.5l47 -35q-168 -81 -168 -209q0 -57 28 -87t79 -30q88 0 119 97z" />
    <glyph glyph-name="tilde" unicode="&#x2dc;" horiz-adv-x="616" 
d="M436 1135q-44 0 -76 24t-51.5 57.5t-36.5 67.5t-41.5 58t-56.5 24q-54 0 -87.5 -54.5t-33.5 -164.5h-53q0 116 48 195t132 79q44 0 76 -24t51.5 -57.5t36.5 -67.5t41.5 -58t56.5 -24q54 0 87.5 54.5t33.5 164.5h53q0 -116 -48 -195t-132 -79z" />
    <glyph glyph-name="hungarumlaut" unicode="&#x2dd;" horiz-adv-x="567" 
d="M289 1434l-236 -295h-53l205 295h84zM567 1434l-235 -295h-53l204 295h84z" />
    <glyph glyph-name="hookabovecomb" unicode="&#x309;" horiz-adv-x="335" 
d="M76 1497l-43 12q14 45 48.5 77t88.5 32q57 0 95 -34.5t38 -102.5q0 -58 -45 -115h-55q53 53 53 115q0 44 -23 68t-63 24q-70 0 -94 -76z" />
    <glyph glyph-name="uni037E" unicode="&#x37e;" horiz-adv-x="425" 
d="M213 870q-28 0 -48 20t-20 46q0 28 20 48t48 20t48 -20t20 -48q0 -26 -20 -46t-48 -20zM291 6q0 -73 -37.5 -142t-89.5 -106l-45 37q49 36 78.5 89t29.5 100q-12 -2 -16 -2q-29 0 -47.5 19.5t-18.5 47.5q0 27 18.5 46.5t47.5 19.5q34 0 57 -29t23 -80z" />
    <glyph glyph-name="tonos" unicode="&#x384;" horiz-adv-x="360" 
d="M233 1178h-45l35 389h107z" />
    <glyph glyph-name="dieresistonos" unicode="&#x385;" 
d="M543 1178h-45l34 389h107zM846 1225q0 -23 -17.5 -40.5t-40.5 -17.5t-40 17.5t-17 40.5t17 40t40 17t40.5 -17t17.5 -40zM350 1225q0 -23 -17 -40.5t-40 -17.5t-40 17.5t-17 40.5t17 40t40 17t40 -17t17 -40z" />
    <glyph glyph-name="Alphatonos" unicode="&#x386;" horiz-adv-x="1302" 
d="M403 1178h-45l35 389h107zM1260 0h-76l-152 367h-762l-151 -367h-76l569 1366h78zM1008 428l-357 862l-356 -862h713z" />
    <glyph glyph-name="Epsilontonos" unicode="&#x388;" horiz-adv-x="1142" 
d="M27 1178h-45l34 389h107zM1016 0h-836v1366h836v-61h-770v-572h755v-61h-755v-611h770v-61z" />
    <glyph glyph-name="Etatonos" unicode="&#x389;" horiz-adv-x="1423" 
d="M27 1178h-45l34 389h107zM1243 0h-65v672h-932v-672h-66v1366h66v-633h932v633h65v-1366z" />
    <glyph glyph-name="Iotatonos" unicode="&#x38a;" horiz-adv-x="425" 
d="M27 1178h-45l34 389h107zM246 0h-66v1366h66v-1366z" />
    <glyph glyph-name="Omicrontonos" unicode="&#x38c;" horiz-adv-x="1564" 
d="M129 1178h-45l35 389h106zM782 -25q-194 0 -343 94.5t-227.5 254.5t-78.5 358t78.5 358t227.5 254.5t343 94.5q193 0 342.5 -94.5t228.5 -255t79 -357.5t-79 -357.5t-228.5 -255t-342.5 -94.5zM782 37q172 0 304 84t203 230t71 331q0 187 -71 333t-203 229t-304 83
q-174 0 -306 -83t-201.5 -229t-69.5 -333q0 -185 69.5 -331t201.5 -230t306 -84z" />
    <glyph glyph-name="Upsilontonos" unicode="&#x38e;" horiz-adv-x="1320" 
d="M27 1178h-45l34 389h107zM729 0h-65v592l-549 774h84l497 -709l498 709h84l-549 -774v-592z" />
    <glyph glyph-name="Omegatonos" unicode="&#x38f;" horiz-adv-x="1564" 
d="M129 1178h-45l35 389h106zM172 61h303q-163 93 -252.5 248.5t-89.5 372.5q0 198 78.5 358t227.5 254.5t343 94.5q146 0 268.5 -55t205.5 -150t129.5 -224.5t46.5 -277.5q0 -427 -340 -621h303v-61h-441v61q73 18 142 64.5t129.5 121t97.5 188t37 247.5q0 187 -70 332.5
t-202 228t-306 82.5q-262 0 -419.5 -179t-157.5 -464q0 -134 37 -247.5t98 -188t130 -121t142 -64.5v-61h-440v61z" />
    <glyph glyph-name="iotadieresistonos" unicode="&#x390;" horiz-adv-x="442" 
d="M223 1178h-45l35 389h106zM526 1225q0 -23 -17 -40.5t-40 -17.5t-40 17.5t-17 40.5t17 40t40 17t40 -17t17 -40zM31 1225q0 -23 -17.5 -40.5t-40.5 -17.5t-40 17.5t-17 40.5t17 40t40 17t40.5 -17t17.5 -40zM344 -25q-84 0 -126 52t-42 147v815h62v-815
q0 -66 26.5 -104.5t79.5 -38.5q25 0 41 4l6 -55q-30 -5 -47 -5z" />
    <glyph glyph-name="Alpha" unicode="&#x391;" horiz-adv-x="1302" 
d="M1260 0h-76l-152 367h-762l-151 -367h-76l569 1366h78zM1008 428l-357 862l-356 -862h713z" />
    <glyph glyph-name="Beta" unicode="&#x392;" horiz-adv-x="1228" 
d="M702 0h-522v1366h514q168 0 270.5 -91.5t102.5 -256.5q0 -122 -72 -207.5t-170 -105.5q109 -17 189 -117t80 -219q0 -173 -105.5 -271t-286.5 -98zM694 733q145 0 223 80t78 205q0 124 -78.5 205.5t-222.5 81.5h-448v-572h448zM702 61q150 0 235 82.5t85 223.5
q0 126 -84.5 215.5t-235.5 89.5h-456v-611h456z" />
    <glyph glyph-name="Gamma" unicode="&#x393;" horiz-adv-x="1091" 
d="M246 0h-66v1366h836v-61h-770v-1305z" />
    <glyph glyph-name="uni0394" unicode="&#x394;" horiz-adv-x="1302" 
d="M1260 0h-1217l569 1366h78zM1161 61l-510 1229l-510 -1229h1020z" />
    <glyph glyph-name="Epsilon" unicode="&#x395;" horiz-adv-x="1142" 
d="M1016 0h-836v1366h836v-61h-770v-572h755v-61h-755v-611h770v-61z" />
    <glyph glyph-name="Zeta" unicode="&#x396;" horiz-adv-x="1183" 
d="M1075 0h-966v61l874 1244h-874v61h952v-61l-877 -1244h891v-61z" />
    <glyph glyph-name="Eta" unicode="&#x397;" horiz-adv-x="1423" 
d="M1243 0h-65v672h-932v-672h-66v1366h66v-633h932v633h65v-1366z" />
    <glyph glyph-name="Theta" unicode="&#x398;" horiz-adv-x="1564" 
d="M1223 672h-881v61h881v-61zM782 -25q-194 0 -343 94.5t-227.5 254.5t-78.5 358t78.5 358t227.5 254.5t343 94.5q193 0 342.5 -94.5t228.5 -255t79 -357.5t-79 -357.5t-228.5 -255t-342.5 -94.5zM782 37q172 0 304 84t203 230t71 331q0 187 -71 333t-203 229t-304 83
q-174 0 -306 -83t-201.5 -229t-69.5 -333q0 -185 69.5 -331t201.5 -230t306 -84z" />
    <glyph glyph-name="Iota" unicode="&#x399;" horiz-adv-x="425" 
d="M246 0h-66v1366h66v-1366z" />
    <glyph glyph-name="Kappa" unicode="&#x39a;" horiz-adv-x="1169" 
d="M1106 0h-88l-608 672l-164 -178v-494h-66v1366h66v-788l710 788h88l-593 -653z" />
    <glyph glyph-name="Lambda" unicode="&#x39b;" horiz-adv-x="1302" 
d="M1260 0h-76l-533 1290l-532 -1290h-76l569 1366h78z" />
    <glyph glyph-name="Mu" unicode="&#x39c;" horiz-adv-x="1576" 
d="M1397 0h-66v1288l-532 -1288h-21l-532 1288v-1288h-66v1366h105l503 -1223l504 1223h105v-1366z" />
    <glyph glyph-name="Nu" unicode="&#x39d;" horiz-adv-x="1413" 
d="M1233 0h-66l-921 1260v-1260h-66v1366h66l921 -1247v1247h66v-1366z" />
    <glyph glyph-name="Xi" unicode="&#x39e;" horiz-adv-x="1245" 
d="M1118 1305h-989v61h989v-61zM1116 0h-989v61h989v-61zM1104 672h-961v61h961v-61z" />
    <glyph glyph-name="Omicron" unicode="&#x39f;" horiz-adv-x="1564" 
d="M782 -25q-194 0 -343 94.5t-227.5 254.5t-78.5 358t78.5 358t227.5 254.5t343 94.5q193 0 342.5 -94.5t228.5 -255t79 -357.5t-79 -357.5t-228.5 -255t-342.5 -94.5zM782 37q172 0 304 84t203 230t71 331q0 187 -71 333t-203 229t-304 83q-174 0 -306 -83t-201.5 -229
t-69.5 -333q0 -185 69.5 -331t201.5 -230t306 -84z" />
    <glyph glyph-name="Pi" unicode="&#x3a0;" horiz-adv-x="1423" 
d="M1243 0h-65v1305h-932v-1305h-66v1366h1063v-1366z" />
    <glyph glyph-name="Rho" unicode="&#x3a1;" horiz-adv-x="1136" 
d="M246 0h-66v1366h473q184 0 292 -112t108 -275q0 -106 -47 -193t-139.5 -140.5t-213.5 -53.5h-407v-592zM651 653q149 0 239.5 91.5t90.5 234.5t-90.5 234.5t-239.5 91.5h-405v-652h405z" />
    <glyph glyph-name="Sigma" unicode="&#x3a3;" horiz-adv-x="1161" 
d="M207 1305l520 -598l-524 -646h831v-61h-907v61l522 644l-520 600v61h905v-61h-827z" />
    <glyph glyph-name="Tau" unicode="&#x3a4;" horiz-adv-x="1144" 
d="M604 0h-65v1305h-461v61h989v-61h-463v-1305z" />
    <glyph glyph-name="Upsilon" unicode="&#x3a5;" horiz-adv-x="1249" 
d="M657 0h-65v592l-549 774h84l498 -709l497 709h84l-549 -774v-592z" />
    <glyph glyph-name="Phi" unicode="&#x3a6;" horiz-adv-x="1564" 
d="M815 0h-65v131q-279 9 -448 165t-169 386q0 150 74.5 272.5t215.5 197t327 81.5v133h65v-133q139 -5 255 -49.5t195 -118t123 -172.5t44 -211q0 -230 -169.5 -386t-447.5 -165v-131zM205 682q0 -208 148 -344t397 -145v978q-249 -9 -397 -145t-148 -344zM1360 682
q0 208 -149 344t-396 145v-978q247 9 396 145t149 344z" />
    <glyph glyph-name="Chi" unicode="&#x3a7;" horiz-adv-x="1306" 
d="M1255 0h-86l-516 651l-516 -651h-86l565 700l-534 666h88l483 -612l484 612h88l-535 -664z" />
    <glyph glyph-name="Psi" unicode="&#x3a8;" horiz-adv-x="1507" 
d="M786 0h-65v254q-262 9 -401.5 152t-139.5 391v569h66v-569q0 -222 122.5 -348.5t352.5 -133.5v1051h65v-1051q229 7 352.5 134t123.5 348v569h65v-569q0 -249 -140 -392.5t-401 -150.5v-254z" />
    <glyph glyph-name="uni03A9" unicode="&#x3a9;" horiz-adv-x="1564" 
d="M172 61h303q-163 93 -252.5 248.5t-89.5 372.5q0 198 78.5 358t227.5 254.5t343 94.5q146 0 268.5 -55t205.5 -150t129.5 -224.5t46.5 -277.5q0 -427 -340 -621h303v-61h-441v61q73 18 142 64.5t129.5 121t97.5 188t37 247.5q0 187 -70 332.5t-202 228t-306 82.5
q-262 0 -419.5 -179t-157.5 -464q0 -134 37 -247.5t98 -188t130 -121t142 -64.5v-61h-440v61z" />
    <glyph glyph-name="Iotadieresis" unicode="&#x3aa;" horiz-adv-x="425" 
d="M246 0h-66v1366h66v-1366zM477 1602q0 -23 -17 -40.5t-40 -17.5t-40.5 17.5t-17.5 40.5t17.5 40t40.5 17t40 -17t17 -40zM63 1602q0 -23 -17 -40.5t-40 -17.5t-40 17.5t-17 40.5t17 40t40 17t40 -17t17 -40z" />
    <glyph glyph-name="Upsilondieresis" unicode="&#x3ab;" horiz-adv-x="1249" 
d="M657 0h-65v592l-549 774h84l498 -709l497 709h84l-549 -774v-592zM889 1602q0 -23 -17.5 -40.5t-40.5 -17.5t-40 17.5t-17 40.5t17 40t40 17t40.5 -17t17.5 -40zM475 1602q0 -23 -17 -40.5t-40 -17.5t-40.5 17.5t-17.5 40.5t17.5 40t40.5 17t40 -17t17 -40z" />
    <glyph glyph-name="alphatonos" unicode="&#x3ac;" horiz-adv-x="1187" 
d="M598 1178h-45l35 389h106zM1130 35l7 -55q-30 -5 -47 -5q-83 0 -124.5 50.5t-43.5 140.5q-54 -82 -150 -136.5t-207 -54.5q-200 0 -321 142t-121 377q0 234 121.5 377t320.5 143q108 0 202 -52.5t155 -142.5v170h61v-815q0 -65 27.5 -104t79.5 -39q24 0 40 4zM565 31
q111 0 210 57t147 139v531q-48 83 -147 141.5t-210 58.5q-176 0 -275.5 -131t-99.5 -333t99.5 -332.5t275.5 -130.5z" />
    <glyph glyph-name="epsilontonos" unicode="&#x3ad;" horiz-adv-x="1071" 
d="M541 1178h-45l34 389h107zM555 -25q-202 0 -317 80t-115 205q0 49 20 90.5t51.5 68t72 45.5t78 28t73.5 12q-43 5 -87.5 21.5t-88.5 45t-71.5 76t-27.5 105.5q0 122 125 192t307 70q241 0 394 -156l-41 -37q-128 137 -353 137q-157 0 -261.5 -57t-104.5 -149
q0 -107 108 -164.5t261 -57.5h237v-55h-237q-81 0 -147.5 -11t-122.5 -34.5t-87 -67t-31 -102.5q0 -104 101.5 -166.5t263.5 -62.5q257 0 397 149l37 -39q-160 -166 -434 -166z" />
    <glyph glyph-name="etatonos" unicode="&#x3ae;" 
d="M545 1178h-45l35 389h106zM905 -377h-61v1067q0 147 -66 207.5t-190 60.5q-98 0 -196.5 -54.5t-153.5 -131.5v-772h-62v989h62v-155q60 73 160.5 126.5t197.5 53.5q153 0 231 -77t78 -247v-1067z" />
    <glyph glyph-name="iotatonos" unicode="&#x3af;" horiz-adv-x="442" 
d="M227 1178h-45l35 389h107zM344 -25q-84 0 -126 52t-42 147v815h62v-815q0 -66 26.5 -104.5t79.5 -38.5q25 0 41 4l6 -55q-30 -5 -47 -5z" />
    <glyph glyph-name="upsilondieresistonos" unicode="&#x3b0;" horiz-adv-x="1124" 
d="M563 1178h-45l35 389h106zM866 1225q0 -23 -17 -40.5t-40 -17.5t-40 17.5t-17 40.5t17 40t40 17t40 -17t17 -40zM371 1225q0 -23 -17.5 -40.5t-40.5 -17.5t-40 17.5t-17 40.5t17 40t40 17t40.5 -17t17.5 -40zM541 -25q-177 0 -271 119t-94 330v565h62v-565
q0 -185 79 -289t224 -104q92 0 168 38.5t124.5 103.5t74.5 148t26 175q0 294 -174 477l49 41q192 -218 192 -518q0 -146 -55.5 -264t-161.5 -187.5t-243 -69.5z" />
    <glyph glyph-name="alpha" unicode="&#x3b1;" horiz-adv-x="1187" 
d="M1130 35l7 -55q-30 -5 -47 -5q-83 0 -124.5 50.5t-43.5 140.5q-54 -82 -150 -136.5t-207 -54.5q-200 0 -321 142t-121 377q0 234 121.5 377t320.5 143q108 0 202 -52.5t155 -142.5v170h61v-815q0 -65 27.5 -104t79.5 -39q24 0 40 4zM565 31q111 0 210 57t147 139v531
q-48 83 -147 141.5t-210 58.5q-176 0 -275.5 -131t-99.5 -333t99.5 -332.5t275.5 -130.5z" />
    <glyph glyph-name="beta" unicode="&#x3b2;" horiz-adv-x="1159" 
d="M238 944v-717q48 -82 146.5 -139t209.5 -57q179 0 277 88.5t98 242.5q0 107 -56 180t-142.5 104.5t-195.5 31.5h-63v55h63q99 0 179 30t132 99t52 168q0 136 -95.5 218.5t-232.5 82.5q-74 0 -140 -23.5t-118.5 -69.5t-83 -122t-30.5 -172zM238 166v-543h-62v1321
q0 109 35.5 195.5t96 139t137.5 80t165 27.5q104 0 192.5 -39.5t146 -122.5t57.5 -194q0 -63 -19.5 -116.5t-49 -88t-68.5 -60.5t-74 -39t-70 -19q36 -3 76 -17t82.5 -42t76 -66.5t55 -95.5t21.5 -124q0 -177 -120 -282t-316 -105q-115 0 -211 54.5t-151 136.5z" />
    <glyph glyph-name="gamma" unicode="&#x3b3;" horiz-adv-x="964" 
d="M514 -377h-61v326q0 297 -127.5 579t-323.5 461h82q157 -146 279 -403.5t145 -489.5q144 191 233.5 428t89.5 465h62q0 -234 -101.5 -493.5t-277.5 -487.5v-385z" />
    <glyph glyph-name="delta" unicode="&#x3b4;" horiz-adv-x="1167" 
d="M584 -25q-135 0 -242 65t-163 168t-56 222q0 166 92 289t248 178q-106 39 -161.5 90.5t-55.5 140.5q0 113 90.5 188t245.5 75q225 0 340 -150l-45 -41q-44 63 -120.5 99t-174.5 36q-126 0 -200.5 -58.5t-74.5 -148.5q0 -46 25 -81t68 -57.5t98 -42t116.5 -39t122.5 -43
t116 -60.5t98 -85.5t68 -122.5t25 -167q0 -119 -55.5 -222t-162 -168t-242.5 -65zM983 430q0 48 -8.5 90t-21 75t-37 63.5t-44 51t-55.5 42.5t-59 34.5t-66 29.5t-65.5 24.5t-68.5 22.5q-2 1 -3 1q-177 -45 -271 -159.5t-94 -274.5q0 -71 26.5 -141t75 -128t125 -94
t167.5 -36t168.5 36t126.5 94t76.5 128t27.5 141z" />
    <glyph glyph-name="epsilon" unicode="&#x3b5;" horiz-adv-x="1071" 
d="M555 -25q-202 0 -317 80t-115 205q0 49 20 90.5t51.5 68t72 45.5t78 28t73.5 12q-43 5 -87.5 21.5t-88.5 45t-71.5 76t-27.5 105.5q0 122 125 192t307 70q241 0 394 -156l-41 -37q-128 137 -353 137q-157 0 -261.5 -57t-104.5 -149q0 -107 108 -164.5t261 -57.5h237v-55
h-237q-81 0 -147.5 -11t-122.5 -34.5t-87 -67t-31 -102.5q0 -104 101.5 -166.5t263.5 -62.5q257 0 397 149l37 -39q-160 -166 -434 -166z" />
    <glyph glyph-name="zeta" unicode="&#x3b6;" horiz-adv-x="1009" 
d="M840 -121q0 55 -36.5 75.5t-121.5 20.5q-251 0 -405 124t-154 335q0 486 700 877h-667v55h751v-55q-364 -215 -540.5 -422.5t-176.5 -454.5q0 -187 136 -295t360 -108q117 0 169 -33.5t52 -118.5q0 -77 -71 -201h-72q39 68 57.5 113t18.5 88z" />
    <glyph glyph-name="eta" unicode="&#x3b7;" 
d="M905 -377h-61v1067q0 147 -66 207.5t-190 60.5q-98 0 -196.5 -54.5t-153.5 -131.5v-772h-62v989h62v-155q60 73 160.5 126.5t197.5 53.5q153 0 231 -77t78 -247v-1067z" />
    <glyph glyph-name="theta" unicode="&#x3b8;" horiz-adv-x="1167" 
d="M584 -25q-94 0 -170.5 36t-130 100t-90 153t-53.5 194.5t-17 225.5q0 121 17 226t53.5 194t90 152.5t130 99t170.5 35.5q118 0 207.5 -54t144 -151t81.5 -223.5t27 -278.5t-27 -278t-81.5 -224t-144.5 -152.5t-207 -54.5zM584 31q103 0 180 50.5t121.5 140t67 198.5
t24.5 239h-787q2 -130 24 -239t67 -198.5t122.5 -140t180.5 -50.5zM584 1335q-82 0 -148.5 -33.5t-111 -91t-74.5 -137.5t-44 -168.5t-16 -189.5h787q-2 127 -24.5 234.5t-67 196t-121.5 139t-180 50.5z" />
    <glyph glyph-name="iota" unicode="&#x3b9;" horiz-adv-x="442" 
d="M344 -25q-84 0 -126 52t-42 147v815h62v-815q0 -66 26.5 -104.5t79.5 -38.5q25 0 41 4l6 -55q-30 -5 -47 -5z" />
    <glyph glyph-name="kappa" unicode="&#x3ba;" horiz-adv-x="1015" 
d="M965 0h-88l-435 498l-204 -189v-309h-62v989h62v-602l645 602h88l-482 -446z" />
    <glyph glyph-name="lambda" unicode="&#x3bb;" horiz-adv-x="964" 
d="M115 1319l-13 57q47 15 99 15q143 0 217 -168l524 -1223h-72l-387 918l-389 -918h-71l423 995l-90 205q-33 77 -68 106t-87 29q-49 0 -86 -16z" />
    <glyph glyph-name="uni03BC" unicode="&#x3bc;" horiz-adv-x="1110" 
d="M238 109v-486h-62v1366h62v-694q0 -268 260 -268q95 0 193.5 54t152.5 130v778h61v-815q0 -66 26.5 -104.5t80.5 -38.5q25 0 41 4l6 -55q-30 -5 -47 -5q-154 0 -168 177q-66 -76 -159 -126.5t-187 -50.5q-195 0 -260 134z" />
    <glyph glyph-name="nu" unicode="&#x3bd;" horiz-adv-x="964" 
d="M508 0h-62l-423 989h71l391 -923q160 212 253 452.5t93 470.5h62q0 -237 -103 -499t-282 -490z" />
    <glyph glyph-name="xi" unicode="&#x3be;" horiz-adv-x="1009" 
d="M682 -25q-266 0 -412.5 101t-146.5 286q0 67 21.5 124.5t55 96t76 67t82.5 42.5t76 17q-35 6 -71.5 18.5t-76.5 37t-71 56.5t-51.5 80.5t-20.5 104.5q0 95 70.5 182t171.5 123h-229v55h727v-55h-381q-122 -27 -206.5 -117t-84.5 -188q0 -87 54.5 -150t137.5 -92t181 -29
h284v-55h-284q-81 0 -150.5 -19t-124.5 -56t-87 -99.5t-32 -143.5q0 -157 130 -244t366 -87q117 0 169 -33.5t52 -118.5q0 -77 -71 -201h-72q39 68 57.5 113t18.5 88q0 55 -36.5 75.5t-121.5 20.5z" />
    <glyph glyph-name="omicron" unicode="&#x3bf;" horiz-adv-x="1167" 
d="M584 -25q-136 0 -242 69.5t-162.5 188t-56.5 263.5t56.5 262.5t162.5 186.5t242 69q137 0 243 -69t161.5 -186t55.5 -263t-55.5 -264t-161.5 -187.5t-243 -69.5zM584 31q92 0 168 38.5t124.5 103.5t74.5 148t26 175q0 91 -26 173.5t-74.5 147t-124.5 103t-168 38.5
q-121 0 -212.5 -66t-136.5 -170t-45 -226q0 -123 45 -227.5t136.5 -171t212.5 -66.5z" />
    <glyph glyph-name="pi" unicode="&#x3c0;" horiz-adv-x="1105" 
d="M918 0h-62v934h-606v-934h-62v934h-163v55h1056v-55h-163v-934z" />
    <glyph glyph-name="rho" unicode="&#x3c1;" horiz-adv-x="1150" 
d="M594 -25q-108 0 -201.5 52.5t-154.5 142.5v-547h-62v873q0 145 52 262.5t150.5 186.5t225.5 69q194 0 313 -147.5t119 -370.5q0 -234 -121.5 -377.5t-320.5 -143.5zM594 31q176 0 275.5 131.5t99.5 333.5q0 91 -24.5 173.5t-69.5 147t-116 103t-157 38.5t-156 -38.5
t-115 -103t-69 -147t-24 -173.5v-265q48 -83 147 -141.5t209 -58.5z" />
    <glyph glyph-name="sigma1" unicode="&#x3c2;" horiz-adv-x="972" 
d="M672 -25q-256 0 -402.5 138t-146.5 383q0 143 56 260t163.5 187.5t247.5 70.5q115 0 192.5 -41t145.5 -125l-45 -37q-58 79 -128.5 113t-160.5 34q-124 0 -216.5 -62t-140 -166t-47.5 -234q0 -227 132 -346t354 -119q117 0 169 -33.5t52 -118.5q0 -75 -72 -201h-61
q39 68 57.5 113t18.5 88q0 54 -40.5 75t-127.5 21z" />
    <glyph glyph-name="sigma" unicode="&#x3c3;" horiz-adv-x="1167" 
d="M1044 479q0 -138 -55.5 -252t-161.5 -183t-243 -69q-136 0 -242 69.5t-162.5 188t-56.5 263.5q0 137 58 247.5t173 178t269 67.5h483v-55h-279q217 -164 217 -455zM977 479q0 160 -71.5 280t-186.5 175h-96q-105 0 -189.5 -37.5t-136.5 -100t-79.5 -139.5t-27.5 -161
q0 -123 45 -227.5t136.5 -171t212.5 -66.5q92 0 168 38t124.5 101.5t74.5 143t26 165.5z" />
    <glyph glyph-name="tau" unicode="&#x3c4;" horiz-adv-x="935" 
d="M604 -25q-84 0 -126 52t-42 147v760h-373v55h809v-55h-374v-760q0 -66 26.5 -104.5t79.5 -38.5q71 0 117 53l37 -47q-65 -62 -154 -62z" />
    <glyph glyph-name="upsilon" unicode="&#x3c5;" horiz-adv-x="1124" 
d="M541 -25q-177 0 -271 119t-94 330v565h62v-565q0 -185 79 -289t224 -104q92 0 168 38.5t124.5 103.5t74.5 148t26 175q0 294 -174 477l49 41q192 -218 192 -518q0 -146 -55.5 -264t-161.5 -187.5t-243 -69.5z" />
    <glyph glyph-name="phi" unicode="&#x3c6;" horiz-adv-x="1433" 
d="M1311 496q0 -109 -34.5 -200.5t-102.5 -162t-177 -112.5t-249 -46v-352h-62v352q-276 9 -419.5 157t-143.5 386q0 166 99.5 293t254.5 203l29 -47q-316 -165 -316 -449q0 -99 27.5 -183t84.5 -151.5t155 -108t229 -44.5v983h31q148 0 263.5 -40t186.5 -111t107.5 -164
t36.5 -203zM1243 496q0 93 -28 172t-85.5 143t-155 103t-226.5 44v-927q130 4 228.5 43.5t155 105t84 145t27.5 171.5z" />
    <glyph glyph-name="chi" unicode="&#x3c7;" horiz-adv-x="966" 
d="M922 -377h-72l-367 645l-366 -645h-72l404 703l-381 663h71l344 -606l344 606h72l-381 -663z" />
    <glyph glyph-name="psi" unicode="&#x3c8;" horiz-adv-x="1433" 
d="M748 -377h-62v352q-247 7 -378.5 126t-131.5 323v565h62v-565q0 -179 116 -282.5t332 -110.5v1335h62v-1335q214 7 331 111t117 282v565h61v-565q0 -205 -131 -323.5t-378 -125.5v-352z" />
    <glyph glyph-name="omega" unicode="&#x3c9;" horiz-adv-x="1576" 
d="M1454 496q0 -223 -96.5 -372t-251.5 -149q-69 0 -127 30t-95.5 79.5t-61 102t-34.5 106.5q-9 -43 -24.5 -84.5t-42.5 -84.5t-61.5 -75.5t-83.5 -53t-105 -20.5q-155 0 -251.5 149t-96.5 372q0 172 45.5 308t142.5 210l39 -47q-90 -76 -125 -195t-35 -276
q0 -123 32.5 -227.5t98.5 -171t154 -66.5t154 66.5t97.5 170.5t31.5 228v254h61v-254q0 -124 31.5 -228t97.5 -170.5t154 -66.5t154 66.5t98 171t32 227.5q0 158 -34.5 276.5t-124.5 194.5l39 47q97 -74 142.5 -210t45.5 -308z" />
    <glyph glyph-name="iotadieresis" unicode="&#x3ca;" horiz-adv-x="442" 
d="M485 1225q0 -23 -17 -40.5t-40 -17.5t-40 17.5t-17 40.5t17 40t40 17t40 -17t17 -40zM72 1225q0 -23 -17.5 -40.5t-40.5 -17.5t-40 17.5t-17 40.5t17 40t40 17t40.5 -17t17.5 -40zM344 -25q-84 0 -126 52t-42 147v815h62v-815q0 -66 26.5 -104.5t79.5 -38.5q25 0 41 4
l6 -55q-30 -5 -47 -5z" />
    <glyph glyph-name="upsilondieresis" unicode="&#x3cb;" horiz-adv-x="1124" 
d="M825 1225q0 -23 -17 -40.5t-40 -17.5t-40 17.5t-17 40.5t17 40t40 17t40 -17t17 -40zM412 1225q0 -23 -17.5 -40.5t-40.5 -17.5t-40 17.5t-17 40.5t17 40t40 17t40.5 -17t17.5 -40zM541 -25q-177 0 -271 119t-94 330v565h62v-565q0 -185 79 -289t224 -104q92 0 168 38.5
t124.5 103.5t74.5 148t26 175q0 294 -174 477l49 41q192 -218 192 -518q0 -146 -55.5 -264t-161.5 -187.5t-243 -69.5z" />
    <glyph glyph-name="omicrontonos" unicode="&#x3cc;" horiz-adv-x="1167" 
d="M588 1178h-45l35 389h106zM584 -25q-136 0 -242 69.5t-162.5 188t-56.5 263.5t56.5 262.5t162.5 186.5t242 69q137 0 243 -69t161.5 -186t55.5 -263t-55.5 -264t-161.5 -187.5t-243 -69.5zM584 31q92 0 168 38.5t124.5 103.5t74.5 148t26 175q0 91 -26 173.5t-74.5 147
t-124.5 103t-168 38.5q-121 0 -212.5 -66t-136.5 -170t-45 -226q0 -123 45 -227.5t136.5 -171t212.5 -66.5z" />
    <glyph glyph-name="upsilontonos" unicode="&#x3cd;" horiz-adv-x="1124" 
d="M567 1178h-45l35 389h107zM541 -25q-177 0 -271 119t-94 330v565h62v-565q0 -185 79 -289t224 -104q92 0 168 38.5t124.5 103.5t74.5 148t26 175q0 294 -174 477l49 41q192 -218 192 -518q0 -146 -55.5 -264t-161.5 -187.5t-243 -69.5z" />
    <glyph glyph-name="omegatonos" unicode="&#x3ce;" horiz-adv-x="1576" 
d="M793 1178h-45l34 389h107zM1454 496q0 -223 -96.5 -372t-251.5 -149q-69 0 -127 30t-95.5 79.5t-61 102t-34.5 106.5q-9 -43 -24.5 -84.5t-42.5 -84.5t-61.5 -75.5t-83.5 -53t-105 -20.5q-155 0 -251.5 149t-96.5 372q0 172 45.5 308t142.5 210l39 -47q-90 -76 -125 -195
t-35 -276q0 -123 32.5 -227.5t98.5 -171t154 -66.5t154 66.5t97.5 170.5t31.5 228v254h61v-254q0 -124 31.5 -228t97.5 -170.5t154 -66.5t154 66.5t98 171t32 227.5q0 158 -34.5 276.5t-124.5 194.5l39 47q97 -74 142.5 -210t45.5 -308z" />
    <glyph glyph-name="afii10023" unicode="&#x401;" horiz-adv-x="1142" 
d="M864 1567q0 -23 -17 -40.5t-40 -17.5t-40 17.5t-17 40.5t17 40t40 17t40 -17t17 -40zM451 1567q0 -23 -17.5 -40.5t-40.5 -17.5t-40 17.5t-17 40.5t17 40t40 17t40.5 -17t17.5 -40zM1016 0h-836v1366h836v-61h-770v-572h755v-61h-755v-611h770v-61z" />
    <glyph glyph-name="afii10051" unicode="&#x402;" horiz-adv-x="1591" 
d="M1018 -25v62q153 0 240.5 103.5t87.5 287.5v10q0 204 -98 308t-285 104q-188 0 -359 -41v-809h-65v1305h-461v61h989v-61h-463v-435q78 15 110 20.5t104.5 13t144.5 7.5q221 0 334.5 -124t113.5 -349v-10q0 -115 -31.5 -204t-86.5 -142t-124.5 -80t-150.5 -27z" />
    <glyph glyph-name="afii10052" unicode="&#x403;" horiz-adv-x="1091" 
d="M913 1776l-358 -295h-61l327 295h92zM246 0h-66v1366h836v-61h-770v-1305z" />
    <glyph glyph-name="afii10053" unicode="&#x404;" horiz-adv-x="1366" 
d="M815 -25q-141 0 -266.5 52t-217 143.5t-145 224.5t-53.5 287t53.5 287t145 224.5t217 143.5t266.5 52q288 0 475 -215l-51 -46q-73 92 -185.5 145.5t-238.5 53.5q-163 0 -297 -73.5t-217 -209.5t-94 -311h780v-61h-782q2 -185 83.5 -330.5t219.5 -225t307 -79.5
q126 0 238.5 53.5t185.5 145.5l53 -43q-194 -218 -477 -218z" />
    <glyph glyph-name="afii10054" unicode="&#x405;" horiz-adv-x="1177" 
d="M586 -25q-153 0 -276 59.5t-201 158.5l53 47q72 -87 180 -145t244 -58q112 0 193.5 29.5t123 77.5t60 98t18.5 104q0 72 -28.5 127t-76.5 89t-110 60t-131 45.5t-137.5 39t-130.5 46.5t-110 62.5t-76.5 92.5t-28.5 132q0 107 60.5 188t157 121t210.5 40q286 0 442 -193
l-51 -47q-137 178 -391 178q-151 0 -254 -81t-103 -206q0 -79 46 -133.5t119 -85.5t161.5 -56t177 -55t161.5 -71t119 -115.5t46 -177.5q0 -50 -12.5 -98t-46 -98.5t-84.5 -88.5t-134.5 -62t-189.5 -24z" />
    <glyph glyph-name="afii10055" unicode="&#x406;" horiz-adv-x="425" 
d="M246 0h-66v1366h66v-1366z" />
    <glyph glyph-name="afii10056" unicode="&#x407;" horiz-adv-x="425" 
d="M246 0h-66v1366h66v-1366zM477 1567q0 -23 -17 -40.5t-40 -17.5t-40.5 17.5t-17.5 40.5t17.5 40t40.5 17t40 -17t17 -40zM63 1567q0 -23 -17 -40.5t-40 -17.5t-40 17.5t-17 40.5t17 40t40 17t40 -17t17 -40z" />
    <glyph glyph-name="afii10057" unicode="&#x408;" horiz-adv-x="952" 
d="M379 -25q-112 0 -196 43.5t-150 135.5l55 49q116 -166 291 -166q150 0 239 94.5t89 247.5v987h65v-987q0 -99 -31.5 -177.5t-86 -127t-125 -74t-150.5 -25.5z" />
    <glyph glyph-name="afii10058" unicode="&#x409;" horiz-adv-x="2134" 
d="M78 -25v62q59 0 104 16.5t87.5 60t75 118t60.5 192.5t50 281l90 661h698v-592h408q121 0 213.5 -53.5t139 -140.5t46.5 -193t-46 -193t-138 -140.5t-215 -53.5h-473v1305h-576l-82 -609q-25 -185 -59.5 -316t-72 -209t-89 -122.5t-102 -59t-119.5 -14.5zM1649 713h-406
v-652h406q149 0 239 91.5t90 234.5t-90 234.5t-239 91.5z" />
    <glyph glyph-name="afii10059" unicode="&#x40a;" horiz-adv-x="2134" 
d="M180 0v1366h66v-633h932v633h65v-633h428q173 0 276 -105.5t103 -260.5q0 -156 -102 -261.5t-277 -105.5h-493v672h-932v-672h-66zM1243 61h428q138 0 222.5 86t84.5 220t-84.5 219.5t-222.5 85.5h-428v-611z" />
    <glyph glyph-name="afii10060" unicode="&#x40b;" horiz-adv-x="1591" 
d="M1346 0v483q0 173 -99.5 270t-283.5 97q-188 0 -359 -41v-809h-65v1305h-461v61h989v-61h-463v-435q78 15 110 20.5t104.5 13t144.5 7.5q218 0 333 -117t115 -313v-481h-65z" />
    <glyph glyph-name="afii10061" unicode="&#x40c;" horiz-adv-x="1169" 
d="M909 1776l-358 -295h-62l328 295h92zM1106 0h-88l-608 672l-164 -178v-494h-66v1366h66v-788l710 788h88l-593 -653z" />
    <glyph glyph-name="afii10062" unicode="&#x40e;" horiz-adv-x="1249" 
d="M281 -25q-160 0 -248 131l53 44q77 -113 195 -113q73 0 119.5 44.5t115.5 170.5l70 129l-543 985h76l506 -917l505 917h76l-633 -1145q-72 -132 -134 -189t-158 -57zM985 1636q-62 -84 -155.5 -132t-202.5 -48q-108 0 -202.5 48t-158.5 132l43 39q55 -77 137.5 -120.5
t180.5 -43.5t180 43.5t137 120.5z" />
    <glyph glyph-name="afii10145" unicode="&#x40f;" horiz-adv-x="1423" 
d="M180 0v1366h66v-1305h932v1305h65v-1366h-498v-258h-65v258h-500z" />
    <glyph glyph-name="afii10017" unicode="&#x410;" horiz-adv-x="1302" 
d="M1260 0h-76l-152 367h-762l-151 -367h-76l569 1366h78zM1008 428l-357 862l-356 -862h713z" />
    <glyph glyph-name="afii10018" unicode="&#x411;" horiz-adv-x="1136" 
d="M180 1366h815v-61h-749v-531h407q121 0 213.5 -53.5t139.5 -140.5t47 -193q0 -163 -108 -275t-292 -112h-473v1366zM651 713h-405v-652h405q149 0 239.5 91.5t90.5 234.5t-90.5 234.5t-239.5 91.5z" />
    <glyph glyph-name="afii10019" unicode="&#x412;" horiz-adv-x="1228" 
d="M702 0h-522v1366h514q168 0 270.5 -91.5t102.5 -256.5q0 -122 -72 -207.5t-170 -105.5q109 -17 189 -117t80 -219q0 -173 -105.5 -271t-286.5 -98zM694 733q145 0 223 80t78 205q0 124 -78.5 205.5t-222.5 81.5h-448v-572h448zM702 61q150 0 235 82.5t85 223.5
q0 126 -84.5 215.5t-235.5 89.5h-456v-611h456z" />
    <glyph glyph-name="afii10020" unicode="&#x413;" horiz-adv-x="1091" 
d="M246 0h-66v1366h836v-61h-770v-1305z" />
    <glyph glyph-name="afii10021" unicode="&#x414;" horiz-adv-x="1454" 
d="M78 -252v313q60 0 104 14t87.5 54t75 111t60 186.5t50.5 278.5l90 661h698v-1305h121v-313h-66v252h-1155v-252h-65zM520 696q-38 -288 -100.5 -435.5t-153.5 -199.5h912v1244h-576z" />
    <glyph glyph-name="afii10022" unicode="&#x415;" horiz-adv-x="1142" 
d="M1016 0h-836v1366h836v-61h-770v-572h755v-61h-755v-611h770v-61z" />
    <glyph glyph-name="afii10024" unicode="&#x416;" horiz-adv-x="1789" 
d="M152 0h-89l656 713l-594 653h88l649 -721v721h66v-721l649 721h88l-594 -653l655 -713h-88l-608 672l-102 -113v-559h-66v559l-102 113z" />
    <glyph glyph-name="afii10025" unicode="&#x417;" horiz-adv-x="1150" 
d="M549 -25q-164 0 -288 65t-187 165l57 35q59 -91 167 -147t253 -56q183 0 288 86.5t105 238.5q0 81 -31 142.5t-85.5 98.5t-123 55t-149.5 18h-287v61h287q74 0 138.5 17t117 51.5t83 92t30.5 132.5q0 136 -106.5 215.5t-262.5 79.5q-128 0 -221 -45t-178 -139l-52 41
q77 92 192.5 148t258.5 56q115 0 213.5 -39.5t162.5 -122.5t64 -194q0 -78 -29.5 -140t-76.5 -98.5t-93 -56.5t-91 -28q36 -3 76 -17t82.5 -42t76 -66.5t55 -95.5t21.5 -124q0 -170 -125 -278.5t-342 -108.5z" />
    <glyph glyph-name="afii10026" unicode="&#x418;" horiz-adv-x="1413" 
d="M246 0h-66v1366h66v-1247l921 1247h66v-1366h-66v1260z" />
    <glyph glyph-name="afii10027" unicode="&#x419;" horiz-adv-x="1413" 
d="M246 0h-66v1366h66v-1247l921 1247h66v-1366h-66v1260zM1065 1636q-62 -84 -155.5 -132t-202.5 -48q-108 0 -202.5 48t-158.5 132l43 39q55 -77 137.5 -120.5t180.5 -43.5t180 43.5t137 120.5z" />
    <glyph glyph-name="afii10028" unicode="&#x41a;" horiz-adv-x="1169" 
d="M1106 0h-88l-608 672l-164 -178v-494h-66v1366h66v-788l710 788h88l-593 -653z" />
    <glyph glyph-name="afii10029" unicode="&#x41b;" horiz-adv-x="1423" 
d="M78 -25v62q59 0 104 16.5t87.5 60t75 118t60.5 192.5t50 281l90 661h698v-1366h-65v1305h-576l-82 -609q-25 -185 -59.5 -316t-72 -209t-89 -122.5t-102 -59t-119.5 -14.5z" />
    <glyph glyph-name="afii10030" unicode="&#x41c;" horiz-adv-x="1576" 
d="M1397 0h-66v1288l-532 -1288h-21l-532 1288v-1288h-66v1366h105l503 -1223l504 1223h105v-1366z" />
    <glyph glyph-name="afii10031" unicode="&#x41d;" horiz-adv-x="1423" 
d="M1243 0h-65v672h-932v-672h-66v1366h66v-633h932v633h65v-1366z" />
    <glyph glyph-name="afii10032" unicode="&#x41e;" horiz-adv-x="1564" 
d="M782 -25q-194 0 -343 94.5t-227.5 254.5t-78.5 358t78.5 358t227.5 254.5t343 94.5q193 0 342.5 -94.5t228.5 -255t79 -357.5t-79 -357.5t-228.5 -255t-342.5 -94.5zM782 37q172 0 304 84t203 230t71 331q0 187 -71 333t-203 229t-304 83q-174 0 -306 -83t-201.5 -229
t-69.5 -333q0 -185 69.5 -331t201.5 -230t306 -84z" />
    <glyph glyph-name="afii10033" unicode="&#x41f;" horiz-adv-x="1423" 
d="M1243 0h-65v1305h-932v-1305h-66v1366h1063v-1366z" />
    <glyph glyph-name="afii10034" unicode="&#x420;" horiz-adv-x="1136" 
d="M246 0h-66v1366h473q184 0 292 -112t108 -275q0 -106 -47 -193t-139.5 -140.5t-213.5 -53.5h-407v-592zM651 653q149 0 239.5 91.5t90.5 234.5t-90.5 234.5t-239.5 91.5h-405v-652h405z" />
    <glyph glyph-name="afii10035" unicode="&#x421;" horiz-adv-x="1366" 
d="M815 -25q-141 0 -266.5 52t-217 143.5t-145 224.5t-53.5 287t53.5 287t145 224.5t217 143.5t266.5 52q288 0 475 -215l-51 -46q-73 92 -185.5 145.5t-238.5 53.5q-127 0 -239.5 -47t-194 -130.5t-129 -204.5t-47.5 -263q0 -140 47.5 -261t129 -205t194 -131.5
t239.5 -47.5q126 0 238.5 53.5t185.5 145.5l53 -43q-194 -218 -477 -218z" />
    <glyph glyph-name="afii10036" unicode="&#x422;" horiz-adv-x="1144" 
d="M604 0h-65v1305h-461v61h989v-61h-463v-1305z" />
    <glyph glyph-name="afii10037" unicode="&#x423;" horiz-adv-x="1249" 
d="M281 -25q-160 0 -248 131l53 44q77 -113 195 -113q73 0 119.5 44.5t115.5 170.5l70 129l-543 985h76l506 -917l505 917h76l-633 -1145q-72 -132 -134 -189t-158 -57z" />
    <glyph glyph-name="afii10038" unicode="&#x424;" horiz-adv-x="1564" 
d="M815 0h-65v131q-279 9 -448 165t-169 386q0 150 74.5 272.5t215.5 197t327 81.5v133h65v-133q139 -5 255 -49.5t195 -118t123 -172.5t44 -211q0 -230 -169.5 -386t-447.5 -165v-131zM205 682q0 -208 148 -344t397 -145v978q-249 -9 -397 -145t-148 -344zM1360 682
q0 208 -149 344t-396 145v-978q247 9 396 145t149 344z" />
    <glyph glyph-name="afii10039" unicode="&#x425;" horiz-adv-x="1306" 
d="M1255 0h-86l-516 651l-516 -651h-86l565 700l-534 666h88l483 -612l484 612h88l-535 -664z" />
    <glyph glyph-name="afii10040" unicode="&#x426;" horiz-adv-x="1454" 
d="M1298 -252v252h-1118v1366h66v-1305h932v1305h65v-1305h121v-313h-66z" />
    <glyph glyph-name="afii10041" unicode="&#x427;" horiz-adv-x="1187" 
d="M201 1366v-346q0 -173 99.5 -270t283.5 -97q187 0 358 41v672h66v-1366h-66v633q-79 -15 -110 -20.5t-103.5 -13t-144.5 -7.5q-218 0 -333.5 117.5t-115.5 312.5v344h66z" />
    <glyph glyph-name="afii10042" unicode="&#x428;" horiz-adv-x="1978" 
d="M1733 1366h65v-1366h-1618v1366h66v-1305h710v1305h66v-1305h711v1305z" />
    <glyph glyph-name="afii10043" unicode="&#x429;" horiz-adv-x="2035" 
d="M1759 1366h66v-1305h121v-313h-66v252h-1673v1366h65v-1305h711v1305h66v-1305h710v1305z" />
    <glyph glyph-name="afii10044" unicode="&#x42a;" horiz-adv-x="1495" 
d="M1012 0h-473v1305h-461v61h526v-592h408q121 0 213.5 -53.5t139 -140.5t46.5 -193t-46 -193t-138 -140.5t-215 -53.5zM1010 713h-406v-652h406q149 0 239 91.5t90 234.5t-90 234.5t-239 91.5z" />
    <glyph glyph-name="afii10045" unicode="&#x42b;" horiz-adv-x="1476" 
d="M180 1366h66v-592h407q121 0 213.5 -53.5t139.5 -140.5t47 -193q0 -163 -108 -275t-292 -112h-473v1366zM651 713h-405v-652h405q149 0 239.5 91.5t90.5 234.5t-90.5 234.5t-239.5 91.5zM1296 0h-65v1366h65v-1366z" />
    <glyph glyph-name="afii10046" unicode="&#x42c;" horiz-adv-x="1136" 
d="M180 1366h66v-592h407q121 0 213.5 -53.5t139.5 -140.5t47 -193q0 -163 -108 -275t-292 -112h-473v1366zM651 713h-405v-652h405q149 0 239.5 91.5t90.5 234.5t-90.5 234.5t-239.5 91.5z" />
    <glyph glyph-name="afii10047" unicode="&#x42d;" horiz-adv-x="1366" 
d="M551 -25q-283 0 -477 218l53 43q73 -92 185.5 -145.5t238.5 -53.5q168 0 306 79.5t219.5 225t84.5 330.5h-782v61h780q-17 264 -189 429t-419 165q-126 0 -238.5 -53.5t-185.5 -145.5l-51 46q187 215 475 215q141 0 266.5 -52t217 -143.5t145 -224.5t53.5 -287
t-53.5 -287t-145 -224.5t-217 -143.5t-266.5 -52z" />
    <glyph glyph-name="afii10048" unicode="&#x42e;" horiz-adv-x="1959" 
d="M1178 -25q-193 0 -341.5 93t-227.5 250.5t-81 353.5h-282v-672h-66v1366h66v-633h282q10 186 91 334t227 235t332 87q193 0 342 -94.5t228 -254.5t79 -358t-79 -358t-228 -254.5t-342 -94.5zM1178 37q172 0 304 84t202.5 230t70.5 331q0 187 -70.5 333t-202.5 229
t-304 83q-262 0 -420 -180t-158 -465q0 -185 70 -331t202 -230t306 -84z" />
    <glyph glyph-name="afii10049" unicode="&#x42f;" horiz-adv-x="1185" 
d="M197 0h-84l422 590q-173 0 -288.5 104t-115.5 285t115.5 284t288.5 103h471v-1366h-66v590h-328zM535 651h405v654h-405q-149 0 -240.5 -91.5t-91.5 -234.5t91.5 -235.5t240.5 -92.5z" />
    <glyph glyph-name="afii10065" unicode="&#x430;" horiz-adv-x="1052" 
d="M877 0h-62v121q-134 -146 -342 -146q-89 0 -166.5 37.5t-128.5 114.5t-51 178q0 151 103 240.5t243 89.5q208 0 342 -146v224q0 116 -79.5 180.5t-198.5 64.5q-98 0 -174 -36.5t-144 -118.5l-47 41q75 88 159.5 129t205.5 41q153 0 246.5 -76.5t93.5 -222.5v-715zM489 31
q99 0 184.5 38.5t141.5 112.5v246q-56 74 -141.5 113t-184.5 39q-132 0 -213 -78.5t-81 -196.5t81 -196t213 -78z" />
    <glyph glyph-name="afii10066" unicode="&#x431;" horiz-adv-x="1181" 
d="M584 31q92 0 168 38.5t124.5 103.5t74.5 148t26 175q0 91 -26 173.5t-74.5 147t-124.5 103t-168 38.5q-121 0 -212.5 -66t-136.5 -170t-45 -226q0 -123 45 -227.5t136.5 -171t212.5 -66.5zM584 -25q-208 0 -334.5 156.5t-126.5 409.5q0 144 22.5 254t65 189.5t109.5 134
t152 86t196 46.5q167 28 230 54t63 61h55q0 -21 -6.5 -39.5t-22.5 -33t-31.5 -26t-44.5 -21.5t-49.5 -16.5t-59 -14.5t-60 -12t-64.5 -11q-93 -16 -163.5 -38t-121 -53.5t-84.5 -65t-58 -82.5t-37.5 -95t-27.5 -113q19 40 42.5 75.5t59.5 72t77.5 62.5t99 42.5t121.5 16.5
q205 0 331.5 -147.5t126.5 -368.5q0 -147 -55.5 -265.5t-161.5 -188t-243 -69.5z" />
    <glyph glyph-name="afii10067" unicode="&#x432;" horiz-adv-x="1079" 
d="M653 0h-477v989h473q117 0 187.5 -67t70.5 -187q0 -84 -45 -144.5t-108 -80.5q71 -20 121.5 -90.5t50.5 -151.5q0 -126 -73.5 -197t-199.5 -71zM643 55q101 0 158 56t57 155q0 89 -56.5 153t-158.5 64h-405v-428h405zM639 539q97 0 150 55t53 141q0 92 -53 145.5
t-150 53.5h-401v-395h401z" />
    <glyph glyph-name="afii10068" unicode="&#x433;" horiz-adv-x="845" 
d="M782 989v-55h-544v-934h-62v989h606z" />
    <glyph glyph-name="afii10069" unicode="&#x434;" horiz-adv-x="1116" 
d="M37 -252v301q41 4 72.5 26t60.5 70.5t52 135t40 211.5l68 497h575v-934h123v-307h-61v252h-869v-252h-61zM385 934l-63 -451q-27 -193 -65.5 -291.5t-96.5 -136.5h684v879h-459z" />
    <glyph glyph-name="afii10070" unicode="&#x435;" horiz-adv-x="1169" 
d="M608 -25q-214 0 -349.5 147t-135.5 374q0 142 60 260.5t167.5 188t237.5 69.5q110 0 199 -42t145 -114.5t85.5 -165t29.5 -196.5v-21h-854q3 -122 53 -222t145 -161t217 -61q204 0 344 149l37 -39q-79 -82 -170 -124t-211 -42zM981 530q0 58 -15 117.5t-47 115.5t-77 99
t-111.5 69.5t-144.5 26.5q-74 0 -137.5 -26t-109 -68.5t-78.5 -98.5t-49.5 -115.5t-18.5 -119.5h788z" />
    <glyph glyph-name="afii10072" unicode="&#x436;" horiz-adv-x="1392" 
d="M139 0h-88l475 543l-481 446h88l533 -497v497h61v-497l533 497h88l-482 -446l475 -543h-88l-434 498l-92 -84v-414h-61v414l-93 84z" />
    <glyph glyph-name="afii10073" unicode="&#x437;" horiz-adv-x="1071" 
d="M516 -25q-274 0 -434 166l37 39q140 -149 397 -149q162 0 263.5 62.5t101.5 166.5q0 59 -31 102.5t-86.5 67t-122 34.5t-147.5 11h-238v55h238q98 0 179 23t135 74.5t54 124.5q0 92 -104.5 149t-261.5 57q-225 0 -353 -137l-41 37q153 156 394 156q182 0 307 -70
t125 -192q0 -58 -27.5 -105.5t-71.5 -76t-88.5 -45t-87.5 -21.5q36 -3 73.5 -12t78 -28t72 -45.5t51.5 -68t20 -90.5q0 -125 -115 -205t-317 -80z" />
    <glyph glyph-name="afii10074" unicode="&#x438;" 
d="M233 0h-57v989h62v-891l610 891h57v-989h-61v899z" />
    <glyph glyph-name="afii10075" unicode="&#x439;" 
d="M233 0h-57v989h62v-891l610 891h57v-989h-61v899zM899 1294q-62 -84 -155.5 -132t-202.5 -48q-108 0 -202.5 48t-158.5 132l43 39q55 -77 137.5 -120.5t180.5 -43.5t180 43.5t137 120.5z" />
    <glyph glyph-name="afii10076" unicode="&#x43a;" horiz-adv-x="1015" 
d="M965 0h-88l-435 498l-204 -189v-309h-62v989h62v-602l645 602h88l-482 -446z" />
    <glyph glyph-name="afii10077" unicode="&#x43b;" 
d="M37 -25v56q80 0 135.5 107t89.5 354l68 497h575v-989h-61v934h-459l-63 -451q-39 -282 -104.5 -395t-180.5 -113z" />
    <glyph glyph-name="afii10078" unicode="&#x43c;" horiz-adv-x="1212" 
d="M1036 0h-61v909l-359 -909h-18l-360 909v-909h-62v989h86l344 -872l342 872h88v-989z" />
    <glyph glyph-name="afii10079" unicode="&#x43d;" 
d="M238 0h-62v989h62v-446h606v446h61v-989h-61v487h-606v-487z" />
    <glyph glyph-name="afii10080" unicode="&#x43e;" horiz-adv-x="1167" 
d="M584 -25q-136 0 -242 69.5t-162.5 188t-56.5 263.5t56.5 262.5t162.5 186.5t242 69q137 0 243 -69t161.5 -186t55.5 -263t-55.5 -264t-161.5 -187.5t-243 -69.5zM584 31q92 0 168 38.5t124.5 103.5t74.5 148t26 175q0 91 -26 173.5t-74.5 147t-124.5 103t-168 38.5
q-121 0 -212.5 -66t-136.5 -170t-45 -226q0 -123 45 -227.5t136.5 -171t212.5 -66.5z" />
    <glyph glyph-name="afii10081" unicode="&#x43f;" 
d="M905 0h-61v934h-606v-934h-62v989h729v-989z" />
    <glyph glyph-name="afii10082" unicode="&#x440;" horiz-adv-x="1150" 
d="M594 -25q-108 0 -201.5 52.5t-154.5 142.5v-547h-62v1366h62v-166q55 82 150 136.5t206 54.5q200 0 321 -141.5t121 -376.5q0 -234 -121.5 -377.5t-320.5 -143.5zM594 31q176 0 275.5 131.5t99.5 333.5t-99.5 332t-275.5 130q-111 0 -209.5 -57t-146.5 -139v-531
q48 -83 147 -141.5t209 -58.5z" />
    <glyph glyph-name="afii10083" unicode="&#x441;" horiz-adv-x="1009" 
d="M590 -25q-140 0 -247.5 71t-163.5 189t-56 261t56 260t163.5 187.5t247.5 70.5q115 0 192.5 -41t145.5 -125l-45 -37q-58 79 -128.5 113t-160.5 34q-124 0 -216.5 -62t-140 -166t-47.5 -234q0 -200 109.5 -332.5t294.5 -132.5q180 0 289 149l45 -39q-68 -84 -145.5 -125
t-192.5 -41z" />
    <glyph glyph-name="afii10084" unicode="&#x442;" horiz-adv-x="776" 
d="M418 0h-62v934h-293v55h650v-55h-295v-934z" />
    <glyph glyph-name="afii10085" unicode="&#x443;" horiz-adv-x="964" 
d="M102 -387l13 57q37 -16 86 -16q52 0 87 29t68 106l90 205l-423 995h71l389 -917l387 917h72l-524 -1222q-74 -168 -217 -168q-55 0 -99 14z" />
    <glyph glyph-name="afii10086" unicode="&#x444;" horiz-adv-x="1527" 
d="M461 1014q83 0 154 -52.5t118 -142.5v547h62v-543q41 82 114 136.5t158 54.5q152 0 245 -142t93 -376t-93 -377.5t-245 -143.5q-83 0 -154 52.5t-118 142.5v-547h-62v543q-41 -82 -114 -136.5t-158 -54.5q-152 0 -245 142t-93 377q0 233 93 376.5t245 143.5zM465 958
q-132 0 -206.5 -131t-74.5 -333t74.5 -332.5t206.5 -130.5q84 0 157.5 57t110.5 139v531q-38 83 -111 141.5t-157 58.5zM1063 31q132 0 206 131t74 334q0 202 -74 332t-206 130q-84 0 -157.5 -57t-110.5 -139v-531q38 -83 111 -141.5t157 -58.5z" />
    <glyph glyph-name="afii10087" unicode="&#x445;" horiz-adv-x="966" 
d="M922 0h-80l-359 467l-358 -467h-80l404 508l-381 481h79l336 -438l336 438h80l-381 -481z" />
    <glyph glyph-name="afii10088" unicode="&#x446;" horiz-adv-x="1116" 
d="M967 -252v252h-791v989h62v-934h606v934h61v-934h123v-307h-61z" />
    <glyph glyph-name="afii10089" unicode="&#x447;" 
d="M176 989h62v-297q0 -85 18 -142.5t55.5 -89t86 -44.5t118.5 -13q84 0 179.5 23.5t148.5 56.5v506h61v-989h-61v432q-65 -35 -158 -59.5t-170 -24.5q-176 0 -258 78t-82 266v297z" />
    <glyph glyph-name="afii10090" unicode="&#x448;" horiz-adv-x="1579" 
d="M1341 989h62v-989h-1227v989h62v-934h520v934h61v-934h522v934z" />
    <glyph glyph-name="afii10091" unicode="&#x449;" horiz-adv-x="1613" 
d="M1341 989h62v-934h123v-307h-62v252h-1288v989h62v-934h520v934h61v-934h522v934z" />
    <glyph glyph-name="afii10092" unicode="&#x44a;" horiz-adv-x="1196" 
d="M817 0h-461v934h-293v55h355v-422h399q134 0 211.5 -81.5t77.5 -202.5q0 -120 -77 -201.5t-212 -81.5zM817 512h-399v-457h399q107 0 165 62.5t58 165.5q0 104 -56.5 166.5t-166.5 62.5z" />
    <glyph glyph-name="afii10093" unicode="&#x44b;" horiz-adv-x="1341" 
d="M176 989h62v-422h399q134 0 211.5 -81.5t77.5 -202.5q0 -120 -77 -201.5t-212 -81.5h-461v989zM637 512h-399v-457h399q107 0 165 62.5t58 165.5q0 104 -56.5 166.5t-166.5 62.5zM1165 0h-61v989h61v-989z" />
    <glyph glyph-name="afii10094" unicode="&#x44c;" horiz-adv-x="1015" 
d="M176 989h62v-422h399q134 0 211.5 -81.5t77.5 -202.5q0 -120 -77 -201.5t-212 -81.5h-461v989zM637 512h-399v-457h399q107 0 165 62.5t58 165.5q0 104 -56.5 166.5t-166.5 62.5z" />
    <glyph glyph-name="afii10095" unicode="&#x44d;" horiz-adv-x="1009" 
d="M420 -25q-115 0 -192.5 41t-145.5 125l45 39q109 -149 289 -149t288.5 125.5t114.5 318.5h-571v57h569q-9 186 -116.5 306t-284.5 120q-90 0 -160.5 -34t-128.5 -113l-45 37q68 84 145.5 125t192.5 41q140 0 247.5 -70.5t163.5 -187.5t56 -260t-56 -261t-163.5 -189
t-247.5 -71z" />
    <glyph glyph-name="afii10096" unicode="&#x44e;" horiz-adv-x="1501" 
d="M918 -25q-135 0 -240.5 68t-162.5 184.5t-58 259.5h-219v-487h-62v989h62v-446h219q14 205 140 338t321 133q137 0 243 -69t161.5 -186t55.5 -263t-55.5 -264t-161.5 -187.5t-243 -69.5zM918 31q92 0 168 38.5t124.5 103.5t74.5 148t26 175q0 91 -26 173.5t-74.5 147
t-124.5 103t-168 38.5q-121 0 -212.5 -66t-136.5 -170t-45 -226q0 -123 45 -227.5t136.5 -171t212.5 -66.5z" />
    <glyph glyph-name="afii10097" unicode="&#x44f;" horiz-adv-x="1079" 
d="M225 0h-78l291 422q-129 1 -206.5 80.5t-77.5 204.5q0 124 78.5 203t211.5 79h459v-989h-61v422h-334zM444 477h398v457h-398q-107 0 -166 -62t-59 -165q0 -105 57.5 -167.5t167.5 -62.5z" />
    <glyph glyph-name="afii10071" unicode="&#x451;" horiz-adv-x="1169" 
d="M852 1225q0 -23 -17 -40.5t-40 -17.5t-40.5 17.5t-17.5 40.5t17.5 40t40.5 17t40 -17t17 -40zM438 1225q0 -23 -17 -40.5t-40 -17.5t-40 17.5t-17 40.5t17 40t40 17t40 -17t17 -40zM608 -25q-214 0 -349.5 147t-135.5 374q0 142 60 260.5t167.5 188t237.5 69.5
q110 0 199 -42t145 -114.5t85.5 -165t29.5 -196.5v-21h-854q3 -122 53 -222t145 -161t217 -61q204 0 344 149l37 -39q-79 -82 -170 -124t-211 -42zM981 530q0 58 -15 117.5t-47 115.5t-77 99t-111.5 69.5t-144.5 26.5q-74 0 -137.5 -26t-109 -68.5t-78.5 -98.5t-49.5 -115.5
t-18.5 -119.5h788z" />
    <glyph glyph-name="afii10099" unicode="&#x452;" 
d="M578 1108h-340v-274q60 73 160.5 126.5t197.5 53.5q153 0 231 -75.5t78 -244.5v-850q0 -124 -63.5 -184.5t-179.5 -60.5q-106 0 -189 77l39 52q66 -74 150 -74q82 0 132 47t50 143v850q0 147 -65.5 205.5t-190.5 58.5q-98 0 -196.5 -54.5t-153.5 -131.5v-772h-62v1108
h-156v55h156v203h62v-203h340v-55z" />
    <glyph glyph-name="afii10100" unicode="&#x453;" horiz-adv-x="845" 
d="M795 1434l-359 -295h-61l327 295h93zM782 989v-55h-544v-934h-62v989h606z" />
    <glyph glyph-name="afii10101" unicode="&#x454;" horiz-adv-x="1009" 
d="M590 -25q-140 0 -247.5 71t-163.5 189t-56 261t56 260t163.5 187.5t247.5 70.5q115 0 192.5 -41t145.5 -125l-45 -37q-58 79 -128.5 113t-160.5 34q-177 0 -285 -120t-119 -306h572v-57h-572q5 -193 114 -318.5t290 -125.5q180 0 289 149l45 -39q-68 -84 -145.5 -125
t-192.5 -41z" />
    <glyph glyph-name="afii10102" unicode="&#x455;" horiz-adv-x="929" 
d="M453 -25q-118 0 -204 37t-159 121l49 45q49 -66 130 -106.5t184 -40.5q134 0 213 64.5t79 164.5q0 61 -35 104t-91 66t-123.5 41t-135 38t-123.5 47t-91 76.5t-35 119.5q0 113 90 187.5t245 74.5q225 0 340 -150l-45 -41q-44 63 -120.5 99t-174.5 36q-126 0 -200 -58
t-74 -148q0 -49 27.5 -85t72 -55.5t101.5 -37.5t116.5 -31t116.5 -35.5t101.5 -51t72 -79t27.5 -117.5q0 -123 -91 -204t-263 -81z" />
    <glyph glyph-name="afii10103" unicode="&#x456;" horiz-adv-x="413" 
d="M207 1159q-24 0 -42 18t-18 42t18 41.5t42 17.5q25 0 42 -17t17 -42t-17 -42.5t-42 -17.5zM238 0h-62v989h62v-989z" />
    <glyph glyph-name="afii10104" unicode="&#x457;" horiz-adv-x="413" 
d="M471 1225q0 -23 -17 -40.5t-40 -17.5t-40.5 17.5t-17.5 40.5t17.5 40t40.5 17t40 -17t17 -40zM57 1225q0 -23 -17 -40.5t-40 -17.5t-40 17.5t-17 40.5t17 40t40 17t40 -17t17 -40zM238 0h-62v989h62v-989z" />
    <glyph glyph-name="afii10105" unicode="&#x458;" horiz-adv-x="413" 
d="M207 1159q-24 0 -42 18t-18 42t18 41.5t42 17.5q25 0 42 -17t17 -42t-17 -42.5t-42 -17.5zM-6 -401q-106 0 -189 77l39 52q66 -74 150 -74q82 0 132 47t50 143v1145h62v-1145q0 -124 -64 -184.5t-180 -60.5z" />
    <glyph glyph-name="afii10106" unicode="&#x459;" horiz-adv-x="1683" 
d="M37 -25v56q80 0 135.5 107t89.5 354l68 497h575v-422h400q134 0 211 -81.5t77 -202.5q0 -120 -76.5 -201.5t-211.5 -81.5h-461v934h-459l-63 -451q-39 -282 -104.5 -395t-180.5 -113zM1305 512h-400v-457h400q107 0 165 62.5t58 165.5q0 104 -56.5 166.5t-166.5 62.5z
" />
    <glyph glyph-name="afii10107" unicode="&#x45a;" horiz-adv-x="1683" 
d="M238 0h-62v989h62v-446h606v446h61v-446h414q128 0 201 -78.5t73 -194.5q0 -115 -72.5 -192.5t-201.5 -77.5h-475v487h-606v-487zM1317 487h-412v-432h412q101 0 156 59t55 156q0 99 -53.5 158t-157.5 59z" />
    <glyph glyph-name="afii10108" unicode="&#x45b;" 
d="M578 1108h-340v-274q60 73 160.5 126.5t197.5 53.5q153 0 231 -75.5t78 -244.5v-694h-61v694q0 147 -65.5 205.5t-190.5 58.5q-98 0 -196.5 -54.5t-153.5 -131.5v-772h-62v1108h-156v55h156v203h62v-203h340v-55z" />
    <glyph glyph-name="afii10109" unicode="&#x45c;" horiz-adv-x="1015" 
d="M823 1434l-358 -295h-62l328 295h92zM965 0h-88l-435 498l-204 -189v-309h-62v989h62v-602l645 602h88l-482 -446z" />
    <glyph glyph-name="afii10110" unicode="&#x45e;" horiz-adv-x="964" 
d="M102 -387l13 57q37 -16 86 -16q52 0 87 29t68 106l90 205l-423 995h71l389 -917l387 917h72l-524 -1222q-74 -168 -217 -168q-55 0 -99 14zM842 1294q-62 -84 -156 -132t-203 -48q-107 0 -201.5 48t-158.5 132l43 39q55 -77 137 -120.5t180 -43.5t180.5 43.5t137.5 120.5
z" />
    <glyph glyph-name="afii10193" unicode="&#x45f;" 
d="M510 -256v256h-334v989h62v-934h606v934h61v-989h-334v-256h-61z" />
    <glyph glyph-name="afii10050" unicode="&#x490;" horiz-adv-x="1091" 
d="M246 1305v-1305h-66v1366h770v254h66v-315h-770z" />
    <glyph glyph-name="afii10098" unicode="&#x491;" horiz-adv-x="845" 
d="M238 934v-934h-62v989h545v256h61v-311h-544z" />
    <glyph glyph-name="uni1E02" unicode="&#x1e02;" horiz-adv-x="1228" 
d="M702 0h-522v1366h514q168 0 270.5 -91.5t102.5 -256.5q0 -122 -72 -207.5t-170 -105.5q109 -17 189 -117t80 -219q0 -173 -105.5 -271t-286.5 -98zM694 733q145 0 223 80t78 205q0 124 -78.5 205.5t-222.5 81.5h-448v-572h448zM702 61q150 0 235 82.5t85 223.5
q0 126 -84.5 215.5t-235.5 89.5h-456v-611h456zM614 1501q-24 0 -41.5 17.5t-17.5 42.5q0 24 17.5 41.5t41.5 17.5q25 0 42.5 -17t17.5 -42t-17.5 -42.5t-42.5 -17.5z" />
    <glyph glyph-name="uni1E03" unicode="&#x1e03;" horiz-adv-x="1159" 
d="M238 227q48 -82 146.5 -139t209.5 -57q176 0 275.5 130.5t99.5 332.5t-99.5 333t-275.5 131q-110 0 -209 -58.5t-147 -141.5v-531zM238 0h-62v1366h62v-547q61 90 154.5 142.5t201.5 52.5q199 0 320.5 -143t121.5 -377q0 -235 -121 -377t-321 -142q-111 0 -206 54.5
t-150 136.5v-166zM594 1501q-24 0 -41.5 17.5t-17.5 42.5q0 24 17.5 41.5t41.5 17.5q25 0 42 -17t17 -42t-17 -42.5t-42 -17.5z" />
    <glyph glyph-name="uni1E0A" unicode="&#x1e0a;" horiz-adv-x="1400" 
d="M586 0h-406v1366h406q155 0 284.5 -55.5t215 -149.5t133 -218t47.5 -261q0 -139 -47.5 -262.5t-133 -217t-215 -148t-284.5 -54.5zM586 61q142 0 258 48.5t192 132.5t117 197t41 243q0 103 -25.5 196t-77 171t-124 135t-170 89t-211.5 32h-340v-1244h340zM700 1501
q-24 0 -41.5 17.5t-17.5 42.5q0 24 17.5 41.5t41.5 17.5q25 0 42.5 -17t17.5 -42t-17.5 -42.5t-42.5 -17.5z" />
    <glyph glyph-name="uni1E0B" unicode="&#x1e0b;" horiz-adv-x="1159" 
d="M983 0h-61v166q-54 -82 -150 -136.5t-207 -54.5q-200 0 -321 142t-121 377q0 234 121.5 377t320.5 143q108 0 202 -52.5t155 -142.5v547h61v-1366zM565 31q111 0 210 57t147 139v531q-48 83 -147 141.5t-210 58.5q-176 0 -275.5 -131t-99.5 -333t99.5 -332.5
t275.5 -130.5zM567 1501q-23 0 -41 17.5t-18 42.5q0 24 17.5 41.5t41.5 17.5q25 0 42.5 -17t17.5 -42t-17.5 -42.5t-42.5 -17.5z" />
    <glyph glyph-name="uni1E1E" unicode="&#x1e1e;" horiz-adv-x="1091" 
d="M598 1501q-24 0 -41.5 17.5t-17.5 42.5q0 24 17.5 41.5t41.5 17.5q25 0 42 -17t17 -42t-17 -42.5t-42 -17.5zM246 0h-66v1366h836v-61h-770v-572h755v-61h-755v-672z" />
    <glyph glyph-name="uni1E1F" unicode="&#x1e1f;" horiz-adv-x="503" 
d="M455 1501q-24 0 -42 18t-18 42t18 41.5t42 17.5q25 0 42 -17t17 -42t-17 -42.5t-42 -17.5zM266 0h-61v934h-164v55h164v105q0 138 65.5 215t182.5 77q50 0 86.5 -12.5t81.5 -48.5l-37 -49q-58 55 -131 55q-93 0 -140 -61.5t-47 -175.5v-105h201v-55h-201v-934z" />
    <glyph glyph-name="uni1E22" unicode="&#x1e22;" horiz-adv-x="1423" 
d="M1243 0h-65v672h-932v-672h-66v1366h66v-633h932v633h65v-1366zM711 1501q-24 0 -42 18t-18 42t18 41.5t42 17.5q25 0 42 -17t17 -42t-17 -42.5t-42 -17.5z" />
    <glyph glyph-name="uni1E23" unicode="&#x1e23;" 
d="M905 0h-61v694q0 147 -65.5 205.5t-190.5 58.5q-98 0 -196.5 -54.5t-153.5 -131.5v-772h-62v1366h62v-532q60 73 160.5 126.5t197.5 53.5q153 0 231 -75.5t78 -244.5v-694zM541 1501q-24 0 -42 18t-18 42t18 41.5t42 17.5q25 0 42 -17t17 -42t-17 -42.5t-42 -17.5z" />
    <glyph glyph-name="uni1E56" unicode="&#x1e56;" horiz-adv-x="1136" 
d="M246 0h-66v1366h473q184 0 292 -112t108 -275q0 -106 -47 -193t-139.5 -140.5t-213.5 -53.5h-407v-592zM651 653q149 0 239.5 91.5t90.5 234.5t-90.5 234.5t-239.5 91.5h-405v-652h405zM567 1501q-23 0 -41 17.5t-18 42.5q0 24 17.5 41.5t41.5 17.5q25 0 42.5 -17
t17.5 -42t-17.5 -42.5t-42.5 -17.5z" />
    <glyph glyph-name="uni1E57" unicode="&#x1e57;" horiz-adv-x="1150" 
d="M594 -25q-108 0 -201.5 52.5t-154.5 142.5v-547h-62v1366h62v-166q55 82 150 136.5t206 54.5q200 0 321 -141.5t121 -376.5q0 -234 -121.5 -377.5t-320.5 -143.5zM594 31q176 0 275.5 131.5t99.5 333.5t-99.5 332t-275.5 130q-111 0 -209.5 -57t-146.5 -139v-531
q48 -83 147 -141.5t209 -58.5zM590 1159q-24 0 -42 18t-18 42t18 41.5t42 17.5q25 0 42 -17t17 -42t-17 -42.5t-42 -17.5z" />
    <glyph glyph-name="uni1E60" unicode="&#x1e60;" horiz-adv-x="1177" 
d="M586 -25q-153 0 -276 59.5t-201 158.5l53 47q72 -87 180 -145t244 -58q112 0 193.5 29.5t123 77.5t60 98t18.5 104q0 72 -28.5 127t-76.5 89t-110 60t-131 45.5t-137.5 39t-130.5 46.5t-110 62.5t-76.5 92.5t-28.5 132q0 107 60.5 188t157 121t210.5 40q286 0 442 -193
l-51 -47q-137 178 -391 178q-151 0 -254 -81t-103 -206q0 -79 46 -133.5t119 -85.5t161.5 -56t177 -55t161.5 -71t119 -115.5t46 -177.5q0 -50 -12.5 -98t-46 -98.5t-84.5 -88.5t-134.5 -62t-189.5 -24zM588 1501q-24 0 -42 18t-18 42t18 41.5t42 17.5q25 0 42 -17t17 -42
t-17 -42.5t-42 -17.5z" />
    <glyph glyph-name="uni1E61" unicode="&#x1e61;" horiz-adv-x="929" 
d="M453 -25q-118 0 -204 37t-159 121l49 45q49 -66 130 -106.5t184 -40.5q134 0 213 64.5t79 164.5q0 61 -35 104t-91 66t-123.5 41t-135 38t-123.5 47t-91 76.5t-35 119.5q0 113 90 187.5t245 74.5q225 0 340 -150l-45 -41q-44 63 -120.5 99t-174.5 36q-126 0 -200 -58
t-74 -148q0 -49 27.5 -85t72 -55.5t101.5 -37.5t116.5 -31t116.5 -35.5t101.5 -51t72 -79t27.5 -117.5q0 -123 -91 -204t-263 -81zM465 1159q-23 0 -41 17.5t-18 42.5q0 24 17.5 41.5t41.5 17.5q25 0 42 -17t17 -42t-17 -42.5t-42 -17.5z" />
    <glyph glyph-name="uni1E6A" unicode="&#x1e6a;" horiz-adv-x="1144" 
d="M604 0h-65v1305h-461v61h989v-61h-463v-1305zM571 1501q-23 0 -41 17.5t-18 42.5q0 24 17.5 41.5t41.5 17.5q25 0 42.5 -17t17.5 -42t-17.5 -42.5t-42.5 -17.5z" />
    <glyph glyph-name="uni1E6B" unicode="&#x1e6b;" horiz-adv-x="524" 
d="M356 -25q-84 0 -126 52t-42 147v760h-163v55h163v271h62v-271h201v-55h-201v-760q0 -66 26.5 -104.5t79.5 -38.5q71 0 117 53l37 -47q-65 -62 -154 -62zM236 1501q-24 0 -42 18t-18 42t18 41.5t42 17.5q25 0 42 -17t17 -42t-17 -42.5t-42 -17.5z" />
    <glyph glyph-name="Wgrave" unicode="&#x1e80;" horiz-adv-x="1744" 
d="M1305 0h-78l-355 1243l-354 -1243h-78l-389 1366h72l356 -1268l359 1268h69l359 -1268l356 1268h72zM977 1481h-62l-358 295h92z" />
    <glyph glyph-name="wgrave" unicode="&#x1e81;" horiz-adv-x="1441" 
d="M1069 0h-49l-299 897l-299 -897h-49l-328 989h68l286 -893l297 893h49l297 -893l287 893h68zM825 1139h-61l-358 295h92z" />
    <glyph glyph-name="Wacute" unicode="&#x1e82;" horiz-adv-x="1744" 
d="M1188 1776l-359 -295h-61l328 295h92zM1305 0h-78l-355 1243l-354 -1243h-78l-389 1366h72l356 -1268l359 1268h69l359 -1268l356 1268h72z" />
    <glyph glyph-name="wacute" unicode="&#x1e83;" horiz-adv-x="1441" 
d="M1036 1434l-358 -295h-62l328 295h92zM1069 0h-49l-299 897l-299 -897h-49l-328 989h68l286 -893l297 893h49l297 -893l287 893h68z" />
    <glyph glyph-name="Wdieresis" unicode="&#x1e84;" horiz-adv-x="1744" 
d="M1137 1567q0 -23 -17.5 -40.5t-40.5 -17.5t-40 17.5t-17 40.5t17 40t40 17t40.5 -17t17.5 -40zM723 1567q0 -23 -17 -40.5t-40 -17.5t-40.5 17.5t-17.5 40.5t17.5 40t40.5 17t40 -17t17 -40zM1305 0h-78l-355 1243l-354 -1243h-78l-389 1366h72l356 -1268l359 1268h69
l359 -1268l356 1268h72z" />
    <glyph glyph-name="wdieresis" unicode="&#x1e85;" horiz-adv-x="1441" 
d="M985 1225q0 -23 -17 -40.5t-40 -17.5t-40.5 17.5t-17.5 40.5t17.5 40t40.5 17t40 -17t17 -40zM571 1225q0 -23 -17 -40.5t-40 -17.5t-40 17.5t-17 40.5t17 40t40 17t40 -17t17 -40zM1069 0h-49l-299 897l-299 -897h-49l-328 989h68l286 -893l297 893h49l297 -893l287 893
h68z" />
    <glyph glyph-name="uni1EA0" unicode="&#x1ea0;" horiz-adv-x="1302" 
d="M1260 0h-76l-152 367h-762l-151 -367h-76l569 1366h78zM1008 428l-357 862l-356 -862h713zM651 -354q-24 0 -41.5 17.5t-17.5 41.5t17.5 41.5t41.5 17.5q25 0 42.5 -17t17.5 -42t-17.5 -42t-42.5 -17z" />
    <glyph glyph-name="uni1EA1" unicode="&#x1ea1;" horiz-adv-x="1052" 
d="M877 0h-62v121q-134 -146 -342 -146q-89 0 -166.5 37.5t-128.5 114.5t-51 178q0 151 103 240.5t243 89.5q208 0 342 -146v224q0 116 -79.5 180.5t-198.5 64.5q-98 0 -174 -36.5t-144 -118.5l-47 41q75 88 159.5 129t205.5 41q153 0 246.5 -76.5t93.5 -222.5v-715zM489 31
q99 0 184.5 38.5t141.5 112.5v246q-56 74 -141.5 113t-184.5 39q-132 0 -213 -78.5t-81 -196.5t81 -196t213 -78zM528 -354q-24 0 -41.5 17.5t-17.5 41.5t17.5 41.5t41.5 17.5q25 0 42.5 -17t17.5 -42t-17.5 -42t-42.5 -17z" />
    <glyph glyph-name="uni1EA2" unicode="&#x1ea2;" horiz-adv-x="1302" 
d="M1260 0h-76l-152 367h-762l-151 -367h-76l569 1366h78zM1008 428l-357 862l-356 -862h713zM559 1559l-43 12q14 45 48.5 76.5t88.5 31.5q57 0 95 -34.5t38 -102.5q0 -58 -45 -115h-55q53 53 53 115q0 44 -23 68t-63 24q-70 0 -94 -75z" />
    <glyph glyph-name="uni1EA3" unicode="&#x1ea3;" horiz-adv-x="1052" 
d="M877 0h-62v121q-134 -146 -342 -146q-89 0 -166.5 37.5t-128.5 114.5t-51 178q0 151 103 240.5t243 89.5q208 0 342 -146v224q0 116 -79.5 180.5t-198.5 64.5q-98 0 -174 -36.5t-144 -118.5l-47 41q75 88 159.5 129t205.5 41q153 0 246.5 -76.5t93.5 -222.5v-715zM489 31
q99 0 184.5 38.5t141.5 112.5v246q-56 74 -141.5 113t-184.5 39q-132 0 -213 -78.5t-81 -196.5t81 -196t213 -78zM434 1210l-43 13q14 45 48.5 76.5t88.5 31.5q57 0 95.5 -34.5t38.5 -102.5q0 -57 -46 -115h-55q53 53 53 115q0 44 -23 68t-63 24q-70 0 -94 -76z" />
    <glyph glyph-name="uni1EA4" unicode="&#x1ea4;" horiz-adv-x="1302" 
d="M895 1397h-57l-187 184l-180 -184h-57l200 221h74zM1260 0h-76l-152 367h-762l-151 -367h-76l569 1366h78zM1008 428l-357 862l-356 -862h713zM1251 1731l-358 -222h-62l328 222h92z" />
    <glyph glyph-name="uni1EA5" unicode="&#x1ea5;" horiz-adv-x="1052" 
d="M877 0h-62v121q-134 -146 -342 -146q-89 0 -166.5 37.5t-128.5 114.5t-51 178q0 151 103 240.5t243 89.5q208 0 342 -146v224q0 116 -79.5 180.5t-198.5 64.5q-98 0 -174 -36.5t-144 -118.5l-47 41q75 88 159.5 129t205.5 41q153 0 246.5 -76.5t93.5 -222.5v-715zM489 31
q99 0 184.5 38.5t141.5 112.5v246q-56 74 -141.5 113t-184.5 39q-132 0 -213 -78.5t-81 -196.5t81 -196t213 -78zM780 1139h-57l-186 245l-181 -245h-57l201 295h73zM1120 1577l-358 -295h-62l328 295h92z" />
    <glyph glyph-name="uni1EA6" unicode="&#x1ea6;" horiz-adv-x="1302" 
d="M895 1397h-57l-187 184l-180 -184h-57l200 221h74zM1260 0h-76l-152 367h-762l-151 -367h-76l569 1366h78zM1008 428l-357 862l-356 -862h713zM471 1509h-61l-359 222h92z" />
    <glyph glyph-name="uni1EA7" unicode="&#x1ea7;" horiz-adv-x="1052" 
d="M877 0h-62v121q-134 -146 -342 -146q-89 0 -166.5 37.5t-128.5 114.5t-51 178q0 151 103 240.5t243 89.5q208 0 342 -146v224q0 116 -79.5 180.5t-198.5 64.5q-98 0 -174 -36.5t-144 -118.5l-47 41q75 88 159.5 129t205.5 41q153 0 246.5 -76.5t93.5 -222.5v-715zM489 31
q99 0 184.5 38.5t141.5 112.5v246q-56 74 -141.5 113t-184.5 39q-132 0 -213 -78.5t-81 -196.5t81 -196t213 -78zM780 1139h-57l-186 245l-181 -245h-57l201 295h73zM373 1282h-62l-358 295h92z" />
    <glyph glyph-name="uni1EA8" unicode="&#x1ea8;" horiz-adv-x="1302" 
d="M895 1397h-57l-187 184l-180 -184h-57l200 221h74zM1260 0h-76l-152 367h-762l-151 -367h-76l569 1366h78zM1008 428l-357 862l-356 -862h713zM807 1622l-43 10q14 33 48.5 56.5t88.5 23.5q57 0 95 -25.5t38 -76.5q0 -44 -45 -86h-55q53 39 53 86q0 33 -23 51t-63 18
q-71 0 -94 -57z" />
    <glyph glyph-name="uni1EA9" unicode="&#x1ea9;" horiz-adv-x="1052" 
d="M877 0h-62v121q-134 -146 -342 -146q-89 0 -166.5 37.5t-128.5 114.5t-51 178q0 151 103 240.5t243 89.5q208 0 342 -146v224q0 116 -79.5 180.5t-198.5 64.5q-98 0 -174 -36.5t-144 -118.5l-47 41q75 88 159.5 129t205.5 41q153 0 246.5 -76.5t93.5 -222.5v-715zM489 31
q99 0 184.5 38.5t141.5 112.5v246q-56 74 -141.5 113t-184.5 39q-132 0 -213 -78.5t-81 -196.5t81 -196t213 -78zM780 1139h-57l-186 245l-181 -245h-57l201 295h73zM604 1497l-43 12q14 45 48.5 77t88.5 32q57 0 95 -34.5t38 -102.5q0 -58 -45 -115h-55q53 53 53 115
q0 44 -23 68t-63 24q-70 0 -94 -76z" />
    <glyph glyph-name="uni1EAA" unicode="&#x1eaa;" horiz-adv-x="1302" 
d="M895 1389h-57l-187 122l-180 -122h-57l200 147h74zM1260 0h-76l-152 367h-762l-151 -367h-76l569 1366h78zM1008 428l-357 862l-356 -862h713zM778 1550q-44 0 -76 12t-51.5 29t-36.5 33.5t-41.5 28.5t-56.5 12q-54 0 -87.5 -27.5t-33.5 -81.5h-53q0 58 48 98t132 40
q44 0 76 -12t51.5 -29.5t36.5 -34.5t41.5 -29t56.5 -12q54 0 87.5 27.5t33.5 83.5h53q0 -58 -48 -98t-132 -40z" />
    <glyph glyph-name="uni1EAB" unicode="&#x1eab;" horiz-adv-x="1052" 
d="M877 0h-62v121q-134 -146 -342 -146q-89 0 -166.5 37.5t-128.5 114.5t-51 178q0 151 103 240.5t243 89.5q208 0 342 -146v224q0 116 -79.5 180.5t-198.5 64.5q-98 0 -174 -36.5t-144 -118.5l-47 41q75 88 159.5 129t205.5 41q153 0 246.5 -76.5t93.5 -222.5v-715zM489 31
q99 0 184.5 38.5t141.5 112.5v246q-56 74 -141.5 113t-184.5 39q-132 0 -213 -78.5t-81 -196.5t81 -196t213 -78zM780 1071h-57l-186 246l-181 -246h-57l201 295h73zM653 1397q-44 0 -76 24t-51.5 57.5t-36.5 67.5t-41.5 58t-56.5 24q-54 0 -87.5 -54.5t-33.5 -164.5h-53
q0 116 48 195t132 79q44 0 76 -24t51.5 -57.5t36.5 -67.5t41.5 -58t56.5 -24q54 0 87.5 54.5t33.5 164.5h54q0 -116 -48.5 -195t-132.5 -79z" />
    <glyph glyph-name="uni1EAC" unicode="&#x1eac;" horiz-adv-x="1302" 
d="M1260 0h-76l-152 367h-762l-151 -367h-76l569 1366h78zM1008 428l-357 862l-356 -862h713zM893 1481h-57l-187 245l-180 -245h-57l200 295h74zM651 -354q-24 0 -41.5 17.5t-17.5 41.5t17.5 41.5t41.5 17.5q25 0 42.5 -17t17.5 -42t-17.5 -42t-42.5 -17z" />
    <glyph glyph-name="uni1EAD" unicode="&#x1ead;" horiz-adv-x="1052" 
d="M877 0h-62v121q-134 -146 -342 -146q-89 0 -166.5 37.5t-128.5 114.5t-51 178q0 151 103 240.5t243 89.5q208 0 342 -146v224q0 116 -79.5 180.5t-198.5 64.5q-98 0 -174 -36.5t-144 -118.5l-47 41q75 88 159.5 129t205.5 41q153 0 246.5 -76.5t93.5 -222.5v-715zM489 31
q99 0 184.5 38.5t141.5 112.5v246q-56 74 -141.5 113t-184.5 39q-132 0 -213 -78.5t-81 -196.5t81 -196t213 -78zM766 1139h-57l-187 245l-180 -245h-57l200 295h74zM528 -354q-24 0 -41.5 17.5t-17.5 41.5t17.5 41.5t41.5 17.5q25 0 42.5 -17t17.5 -42t-17.5 -42t-42.5 -17
z" />
    <glyph glyph-name="uni1EAE" unicode="&#x1eae;" horiz-adv-x="1302" 
d="M1260 0h-76l-152 367h-762l-151 -367h-76l569 1366h78zM1008 428l-357 862l-356 -862h713zM961 1729l-359 -222h-61l327 222h93zM1010 1591q-62 -84 -156 -132t-203 -48q-107 0 -201.5 48t-158.5 132l43 39q55 -77 137 -120.5t180 -43.5t180.5 43.5t137.5 120.5z" />
    <glyph glyph-name="uni1EAF" unicode="&#x1eaf;" horiz-adv-x="1052" 
d="M877 0h-62v121q-134 -146 -342 -146q-89 0 -166.5 37.5t-128.5 114.5t-51 178q0 151 103 240.5t243 89.5q208 0 342 -146v224q0 116 -79.5 180.5t-198.5 64.5q-98 0 -174 -36.5t-144 -118.5l-47 41q75 88 159.5 129t205.5 41q153 0 246.5 -76.5t93.5 -222.5v-715zM489 31
q99 0 184.5 38.5t141.5 112.5v246q-56 74 -141.5 113t-184.5 39q-132 0 -213 -78.5t-81 -196.5t81 -196t213 -78zM850 1548l-358 -295h-62l328 295h92zM893 1257q-62 -84 -155.5 -132t-202.5 -48q-108 0 -202.5 48t-158.5 132l43 39q55 -77 137.5 -120t180.5 -43t180 43
t137 120z" />
    <glyph glyph-name="uni1EB0" unicode="&#x1eb0;" horiz-adv-x="1302" 
d="M1260 0h-76l-152 367h-762l-151 -367h-76l569 1366h78zM1008 428l-357 862l-356 -862h713zM764 1507h-62l-358 222h92zM1010 1587q-62 -84 -156 -132t-203 -48q-107 0 -201.5 48t-158.5 132l43 39q55 -77 137 -120.5t180 -43.5t180.5 43.5t137.5 120.5z" />
    <glyph glyph-name="uni1EB1" unicode="&#x1eb1;" horiz-adv-x="1052" 
d="M877 0h-62v121q-134 -146 -342 -146q-89 0 -166.5 37.5t-128.5 114.5t-51 178q0 151 103 240.5t243 89.5q208 0 342 -146v224q0 116 -79.5 180.5t-198.5 64.5q-98 0 -174 -36.5t-144 -118.5l-47 41q75 88 159.5 129t205.5 41q153 0 246.5 -76.5t93.5 -222.5v-715zM489 31
q99 0 184.5 38.5t141.5 112.5v246q-56 74 -141.5 113t-184.5 39q-132 0 -213 -78.5t-81 -196.5t81 -196t213 -78zM637 1253h-62l-358 295h92zM893 1268q-63 -85 -156 -133t-202 -48q-107 0 -202 48.5t-159 132.5l43 39q55 -77 137.5 -120.5t180.5 -43.5t180 43.5t137 120.5z
" />
    <glyph glyph-name="uni1EB2" unicode="&#x1eb2;" horiz-adv-x="1302" 
d="M1260 0h-76l-152 367h-762l-151 -367h-76l569 1366h78zM1008 428l-357 862l-356 -862h713zM559 1614l-43 10q14 33 48.5 56.5t88.5 23.5q57 0 95 -25.5t38 -76.5q0 -44 -45 -86h-55q53 39 53 86q0 33 -23 51t-63 18q-71 0 -94 -57zM1010 1591q-62 -84 -156 -132t-203 -48
q-107 0 -201.5 48t-158.5 132l43 39q55 -77 137 -120.5t180 -43.5t180.5 43.5t137.5 120.5z" />
    <glyph glyph-name="uni1EB3" unicode="&#x1eb3;" horiz-adv-x="1052" 
d="M877 0h-62v121q-134 -146 -342 -146q-89 0 -166.5 37.5t-128.5 114.5t-51 178q0 151 103 240.5t243 89.5q208 0 342 -146v224q0 116 -79.5 180.5t-198.5 64.5q-98 0 -174 -36.5t-144 -118.5l-47 41q75 88 159.5 129t205.5 41q153 0 246.5 -76.5t93.5 -222.5v-715zM489 31
q99 0 184.5 38.5t141.5 112.5v246q-56 74 -141.5 113t-184.5 39q-132 0 -213 -78.5t-81 -196.5t81 -196t213 -78zM438 1374l-43 12q14 45 48.5 77t88.5 32q57 0 95.5 -34.5t38.5 -102.5q0 -58 -45 -115h-56q53 53 53 115q0 44 -23 68t-63 24q-70 0 -94 -76zM893 1268
q-63 -85 -156 -133t-202 -48q-107 0 -202 48.5t-159 132.5l43 39q55 -77 137.5 -120.5t180.5 -43.5t180 43.5t137 120.5z" />
    <glyph glyph-name="uni1EB4" unicode="&#x1eb4;" horiz-adv-x="1302" 
d="M1260 0h-76l-152 367h-762l-151 -367h-76l569 1366h78zM1008 428l-357 862l-356 -862h713zM1012 1513q-62 -56 -155.5 -87t-203.5 -31q-108 0 -202.5 31t-157.5 87l43 27q114 -108 317 -108q204 0 318 108zM778 1550q-44 0 -76 12t-51.5 29t-36.5 33.5t-41.5 28.5
t-56.5 12q-54 0 -87.5 -27.5t-33.5 -81.5h-53q0 58 48 98t132 40q44 0 76 -12t51.5 -29.5t36.5 -34.5t41.5 -29t56.5 -12q54 0 87.5 27.5t33.5 83.5h53q0 -58 -48 -98t-132 -40z" />
    <glyph glyph-name="uni1EB5" unicode="&#x1eb5;" horiz-adv-x="1052" 
d="M877 0h-62v121q-134 -146 -342 -146q-89 0 -166.5 37.5t-128.5 114.5t-51 178q0 151 103 240.5t243 89.5q208 0 342 -146v224q0 116 -79.5 180.5t-198.5 64.5q-98 0 -174 -36.5t-144 -118.5l-47 41q75 88 159.5 129t205.5 41q153 0 246.5 -76.5t93.5 -222.5v-715zM489 31
q99 0 184.5 38.5t141.5 112.5v246q-56 74 -141.5 113t-184.5 39q-132 0 -213 -78.5t-81 -196.5t81 -196t213 -78zM893 1268q-63 -85 -156 -133t-202 -48q-107 0 -202 48.5t-159 132.5l43 39q55 -77 137.5 -120.5t180.5 -43.5t180 43.5t137 120.5zM653 1343q-44 0 -76 24
t-51.5 58t-36.5 68t-41.5 58t-56.5 24q-54 0 -87.5 -54.5t-33.5 -164.5h-53q0 116 48 195t132 79q44 0 76 -24t51.5 -58t36.5 -67.5t41.5 -57.5t56.5 -24q54 0 87.5 54.5t33.5 164.5h54q0 -116 -48.5 -195.5t-132.5 -79.5z" />
    <glyph glyph-name="uni1EB6" unicode="&#x1eb6;" horiz-adv-x="1302" 
d="M1260 0h-76l-152 367h-762l-151 -367h-76l569 1366h78zM1008 428l-357 862l-356 -862h713zM651 -354q-24 0 -41.5 17.5t-17.5 41.5t17.5 41.5t41.5 17.5q25 0 42.5 -17t17.5 -42t-17.5 -42t-42.5 -17zM1010 1636q-62 -84 -156 -132t-203 -48q-107 0 -201.5 48t-158.5 132
l43 39q55 -77 137 -120.5t180 -43.5t180.5 43.5t137.5 120.5z" />
    <glyph glyph-name="uni1EB7" unicode="&#x1eb7;" horiz-adv-x="1052" 
d="M877 0h-62v121q-134 -146 -342 -146q-89 0 -166.5 37.5t-128.5 114.5t-51 178q0 151 103 240.5t243 89.5q208 0 342 -146v224q0 116 -79.5 180.5t-198.5 64.5q-98 0 -174 -36.5t-144 -118.5l-47 41q75 88 159.5 129t205.5 41q153 0 246.5 -76.5t93.5 -222.5v-715zM489 31
q99 0 184.5 38.5t141.5 112.5v246q-56 74 -141.5 113t-184.5 39q-132 0 -213 -78.5t-81 -196.5t81 -196t213 -78zM528 -354q-24 0 -41.5 17.5t-17.5 41.5t17.5 41.5t41.5 17.5q25 0 42.5 -17t17.5 -42t-17.5 -42t-42.5 -17zM885 1294q-62 -84 -156 -132t-203 -48
q-107 0 -201.5 48t-158.5 132l43 39q55 -77 137 -120.5t180 -43.5t180.5 43.5t137.5 120.5z" />
    <glyph glyph-name="uni1EB8" unicode="&#x1eb8;" horiz-adv-x="1142" 
d="M1016 0h-836v1366h836v-61h-770v-572h755v-61h-755v-611h770v-61zM612 -354q-24 0 -41.5 17.5t-17.5 41.5t17.5 41.5t41.5 17.5q25 0 42.5 -17t17.5 -42t-17.5 -42t-42.5 -17z" />
    <glyph glyph-name="uni1EB9" unicode="&#x1eb9;" horiz-adv-x="1169" 
d="M608 -25q-214 0 -349.5 147t-135.5 374q0 142 60 260.5t167.5 188t237.5 69.5q110 0 199 -42t145 -114.5t85.5 -165t29.5 -196.5v-21h-854q3 -122 53 -222t145 -161t217 -61q204 0 344 149l37 -39q-79 -82 -170 -124t-211 -42zM981 530q0 58 -15 117.5t-47 115.5t-77 99
t-111.5 69.5t-144.5 26.5q-74 0 -137.5 -26t-109 -68.5t-78.5 -98.5t-49.5 -115.5t-18.5 -119.5h788zM590 -354q-24 0 -42 17.5t-18 41.5t18 41.5t42 17.5q25 0 42 -17t17 -42t-17 -42t-42 -17z" />
    <glyph glyph-name="uni1EBA" unicode="&#x1eba;" horiz-adv-x="1142" 
d="M1016 0h-836v1366h836v-61h-770v-572h755v-61h-755v-611h770v-61zM479 1559l-43 12q14 45 48.5 76.5t88.5 31.5q57 0 95.5 -34.5t38.5 -102.5q0 -58 -45 -115h-56q53 53 53 115q0 44 -23 68t-63 24q-70 0 -94 -75z" />
    <glyph glyph-name="uni1EBB" unicode="&#x1ebb;" horiz-adv-x="1169" 
d="M608 -25q-214 0 -349.5 147t-135.5 374q0 142 60 260.5t167.5 188t237.5 69.5q110 0 199 -42t145 -114.5t85.5 -165t29.5 -196.5v-21h-854q3 -122 53 -222t145 -161t217 -61q204 0 344 149l37 -39q-79 -82 -170 -124t-211 -42zM981 530q0 58 -15 117.5t-47 115.5t-77 99
t-111.5 69.5t-144.5 26.5q-74 0 -137.5 -26t-109 -68.5t-78.5 -98.5t-49.5 -115.5t-18.5 -119.5h788zM492 1210l-43 13q14 45 48.5 76.5t88.5 31.5q57 0 95 -34.5t38 -102.5q0 -58 -45 -115h-56q54 54 54 115q0 44 -23 68t-63 24q-70 0 -94 -76z" />
    <glyph glyph-name="uni1EBC" unicode="&#x1ebc;" horiz-adv-x="1142" 
d="M1016 0h-836v1366h836v-61h-770v-572h755v-61h-755v-611h770v-61zM729 1477q-44 0 -76 24t-51.5 57.5t-36.5 67.5t-41.5 58t-56.5 24q-54 0 -87.5 -54.5t-33.5 -164.5h-53q0 116 48 195t132 79q44 0 76 -24t51.5 -57.5t36.5 -67.5t41.5 -58t56.5 -24q54 0 87.5 54.5
t33.5 164.5h53q0 -116 -48 -195t-132 -79z" />
    <glyph glyph-name="uni1EBD" unicode="&#x1ebd;" horiz-adv-x="1169" 
d="M608 -25q-214 0 -349.5 147t-135.5 374q0 142 60 260.5t167.5 188t237.5 69.5q110 0 199 -42t145 -114.5t85.5 -165t29.5 -196.5v-21h-854q3 -122 53 -222t145 -161t217 -61q204 0 344 149l37 -39q-79 -82 -170 -124t-211 -42zM981 530q0 58 -15 117.5t-47 115.5t-77 99
t-111.5 69.5t-144.5 26.5q-74 0 -137.5 -26t-109 -68.5t-78.5 -98.5t-49.5 -115.5t-18.5 -119.5h788zM713 1135q-44 0 -76 24t-51.5 57.5t-36.5 67.5t-41.5 58t-56.5 24q-54 0 -87.5 -54.5t-33.5 -164.5h-54q0 116 48.5 195t132.5 79q44 0 76 -24t51.5 -57.5t36.5 -67.5
t41.5 -58t56.5 -24q54 0 87.5 54.5t33.5 164.5h53q0 -116 -48 -195t-132 -79z" />
    <glyph glyph-name="uni1EBE" unicode="&#x1ebe;" horiz-adv-x="1142" 
d="M848 1397h-57l-187 184l-180 -184h-57l200 221h74zM1204 1731l-358 -222h-62l328 222h92zM1016 0h-836v1366h836v-61h-770v-572h755v-61h-755v-611h770v-61z" />
    <glyph glyph-name="uni1EBF" unicode="&#x1ebf;" horiz-adv-x="1169" 
d="M829 1139h-57l-186 245l-180 -245h-58l201 295h74zM1169 1577l-358 -295h-61l327 295h92zM608 -25q-214 0 -349.5 147t-135.5 374q0 142 60 260.5t167.5 188t237.5 69.5q110 0 199 -42t145 -114.5t85.5 -165t29.5 -196.5v-21h-854q3 -122 53 -222t145 -161t217 -61
q204 0 344 149l37 -39q-79 -82 -170 -124t-211 -42zM981 530q0 58 -15 117.5t-47 115.5t-77 99t-111.5 69.5t-144.5 26.5q-74 0 -137.5 -26t-109 -68.5t-78.5 -98.5t-49.5 -115.5t-18.5 -119.5h788z" />
    <glyph glyph-name="uni1EC0" unicode="&#x1ec0;" horiz-adv-x="1142" 
d="M842 1397h-58l-186 184l-180 -184h-58l201 221h74zM1016 0h-836v1366h836v-61h-770v-572h755v-61h-755v-611h770v-61zM418 1509h-62l-358 222h92z" />
    <glyph glyph-name="uni1EC1" unicode="&#x1ec1;" horiz-adv-x="1169" 
d="M825 1139h-57l-186 245l-181 -245h-57l201 295h73zM608 -25q-214 0 -349.5 147t-135.5 374q0 142 60 260.5t167.5 188t237.5 69.5q110 0 199 -42t145 -114.5t85.5 -165t29.5 -196.5v-21h-854q3 -122 53 -222t145 -161t217 -61q204 0 344 149l37 -39q-79 -82 -170 -124
t-211 -42zM981 530q0 58 -15 117.5t-47 115.5t-77 99t-111.5 69.5t-144.5 26.5q-74 0 -137.5 -26t-109 -68.5t-78.5 -98.5t-49.5 -115.5t-18.5 -119.5h788zM418 1282h-62l-358 295h92z" />
    <glyph glyph-name="uni1EC2" unicode="&#x1ec2;" horiz-adv-x="1142" 
d="M850 1397h-57l-187 184l-180 -184h-57l200 221h74zM1016 0h-836v1366h836v-61h-770v-572h755v-61h-755v-611h770v-61zM762 1622l-43 10q14 33 48.5 56.5t88.5 23.5q57 0 95 -25.5t38 -76.5q0 -44 -45 -86h-55q53 39 53 86q0 33 -23 51t-63 18q-71 0 -94 -57z" />
    <glyph glyph-name="uni1EC3" unicode="&#x1ec3;" horiz-adv-x="1169" 
d="M823 1139h-57l-186 245l-181 -245h-57l201 295h73zM608 -25q-214 0 -349.5 147t-135.5 374q0 142 60 260.5t167.5 188t237.5 69.5q110 0 199 -42t145 -114.5t85.5 -165t29.5 -196.5v-21h-854q3 -122 53 -222t145 -161t217 -61q204 0 344 149l37 -39q-79 -82 -170 -124
t-211 -42zM981 530q0 58 -15 117.5t-47 115.5t-77 99t-111.5 69.5t-144.5 26.5q-74 0 -137.5 -26t-109 -68.5t-78.5 -98.5t-49.5 -115.5t-18.5 -119.5h788zM647 1497l-43 12q14 45 48.5 77t88.5 32q57 0 95 -34.5t38 -102.5q0 -58 -45 -115h-55q53 53 53 115q0 44 -23 68
t-63 24q-70 0 -94 -76z" />
    <glyph glyph-name="uni1EC4" unicode="&#x1ec4;" horiz-adv-x="1142" 
d="M848 1389h-57l-187 122l-180 -122h-57l200 147h74zM1016 0h-836v1366h836v-61h-770v-572h755v-61h-755v-611h770v-61zM731 1550q-44 0 -76 12t-51.5 29t-36.5 33.5t-41.5 28.5t-56.5 12q-54 0 -87.5 -27.5t-33.5 -81.5h-53q0 58 48 98t132 40q44 0 76 -12t51.5 -29.5
t36.5 -34.5t41.5 -29t56.5 -12q54 0 87.5 27.5t33.5 83.5h53q0 -58 -48 -98t-132 -40z" />
    <glyph glyph-name="uni1EC5" unicode="&#x1ec5;" horiz-adv-x="1169" 
d="M819 1071h-57l-187 246l-180 -246h-57l201 295h73zM608 -25q-214 0 -349.5 147t-135.5 374q0 142 60 260.5t167.5 188t237.5 69.5q110 0 199 -42t145 -114.5t85.5 -165t29.5 -196.5v-21h-854q3 -122 53 -222t145 -161t217 -61q204 0 344 149l37 -39q-79 -82 -170 -124
t-211 -42zM981 530q0 58 -15 117.5t-47 115.5t-77 99t-111.5 69.5t-144.5 26.5q-74 0 -137.5 -26t-109 -68.5t-78.5 -98.5t-49.5 -115.5t-18.5 -119.5h788zM692 1397q-44 0 -76 24t-51.5 57.5t-36.5 67.5t-41.5 58t-56.5 24q-54 0 -87.5 -54.5t-33.5 -164.5h-53
q0 116 48 195t132 79q44 0 76 -24t51.5 -57.5t36.5 -67.5t41.5 -58t56.5 -24q54 0 87.5 54.5t33.5 164.5h53q0 -116 -48 -195t-132 -79z" />
    <glyph glyph-name="uni1EC6" unicode="&#x1ec6;" horiz-adv-x="1142" 
d="M836 1481h-58l-186 245l-180 -245h-58l201 295h74zM1016 0h-836v1366h836v-61h-770v-572h755v-61h-755v-611h770v-61zM612 -354q-24 0 -41.5 17.5t-17.5 41.5t17.5 41.5t41.5 17.5q25 0 42.5 -17t17.5 -42t-17.5 -42t-42.5 -17z" />
    <glyph glyph-name="uni1EC7" unicode="&#x1ec7;" horiz-adv-x="1169" 
d="M831 1139h-57l-186 245l-180 -245h-58l201 295h74zM608 -25q-214 0 -349.5 147t-135.5 374q0 142 60 260.5t167.5 188t237.5 69.5q110 0 199 -42t145 -114.5t85.5 -165t29.5 -196.5v-21h-854q3 -122 53 -222t145 -161t217 -61q204 0 344 149l37 -39q-79 -82 -170 -124
t-211 -42zM981 530q0 58 -15 117.5t-47 115.5t-77 99t-111.5 69.5t-144.5 26.5q-74 0 -137.5 -26t-109 -68.5t-78.5 -98.5t-49.5 -115.5t-18.5 -119.5h788zM590 -354q-24 0 -42 17.5t-18 41.5t18 41.5t42 17.5q25 0 42 -17t17 -42t-17 -42t-42 -17z" />
    <glyph glyph-name="uni1EC8" unicode="&#x1ec8;" horiz-adv-x="425" 
d="M246 0h-66v1366h66v-1366zM121 1559l-43 12q14 45 48.5 76.5t88.5 31.5q57 0 95 -34.5t38 -102.5q0 -58 -45 -115h-55q53 53 53 115q0 44 -23 68t-63 24q-70 0 -94 -75z" />
    <glyph glyph-name="uni1EC9" unicode="&#x1ec9;" horiz-adv-x="413" 
d="M238 0h-62v989h62v-989zM115 1210l-43 13q14 45 48.5 76.5t88.5 31.5q57 0 95 -34.5t38 -102.5q0 -58 -45 -115h-55q53 53 53 115q0 44 -23 68t-63 24q-70 0 -94 -76z" />
    <glyph glyph-name="uni1ECA" unicode="&#x1eca;" horiz-adv-x="425" 
d="M246 0h-66v1366h66v-1366zM213 -354q-24 0 -41.5 17.5t-17.5 41.5t17.5 41.5t41.5 17.5q25 0 42 -17t17 -42t-17 -42t-42 -17z" />
    <glyph glyph-name="uni1ECB" unicode="&#x1ecb;" horiz-adv-x="413" 
d="M207 1159q-24 0 -42 18t-18 42t18 41.5t42 17.5q25 0 42 -17t17 -42t-17 -42.5t-42 -17.5zM238 0h-62v989h62v-989zM209 -354q-24 0 -41.5 17.5t-17.5 41.5t17.5 41.5t41.5 17.5q25 0 42 -17t17 -42t-17 -42t-42 -17z" />
    <glyph glyph-name="uni1ECC" unicode="&#x1ecc;" horiz-adv-x="1564" 
d="M782 -25q-194 0 -343 94.5t-227.5 254.5t-78.5 358t78.5 358t227.5 254.5t343 94.5q193 0 342.5 -94.5t228.5 -255t79 -357.5t-79 -357.5t-228.5 -255t-342.5 -94.5zM782 37q172 0 304 84t203 230t71 331q0 187 -71 333t-203 229t-304 83q-174 0 -306 -83t-201.5 -229
t-69.5 -333q0 -185 69.5 -331t201.5 -230t306 -84zM784 -354q-24 0 -41.5 17.5t-17.5 41.5t17.5 41.5t41.5 17.5q25 0 42.5 -17t17.5 -42t-17.5 -42t-42.5 -17z" />
    <glyph glyph-name="uni1ECD" unicode="&#x1ecd;" horiz-adv-x="1167" 
d="M584 -25q-136 0 -242 69.5t-162.5 188t-56.5 263.5t56.5 262.5t162.5 186.5t242 69q137 0 243 -69t161.5 -186t55.5 -263t-55.5 -264t-161.5 -187.5t-243 -69.5zM584 31q92 0 168 38.5t124.5 103.5t74.5 148t26 175q0 91 -26 173.5t-74.5 147t-124.5 103t-168 38.5
q-121 0 -212.5 -66t-136.5 -170t-45 -226q0 -123 45 -227.5t136.5 -171t212.5 -66.5zM584 -354q-24 0 -42 17.5t-18 41.5t18 41.5t42 17.5q25 0 42 -17t17 -42t-17 -42t-42 -17z" />
    <glyph glyph-name="uni1ECE" unicode="&#x1ece;" horiz-adv-x="1564" 
d="M782 -25q-194 0 -343 94.5t-227.5 254.5t-78.5 358t78.5 358t227.5 254.5t343 94.5q193 0 342.5 -94.5t228.5 -255t79 -357.5t-79 -357.5t-228.5 -255t-342.5 -94.5zM782 37q172 0 304 84t203 230t71 331q0 187 -71 333t-203 229t-304 83q-174 0 -306 -83t-201.5 -229
t-69.5 -333q0 -185 69.5 -331t201.5 -230t306 -84zM690 1559l-43 12q14 45 48.5 76.5t88.5 31.5q57 0 95.5 -34.5t38.5 -102.5q0 -57 -46 -115h-55q53 53 53 115q0 44 -23 68t-63 24q-70 0 -94 -75z" />
    <glyph glyph-name="uni1ECF" unicode="&#x1ecf;" horiz-adv-x="1167" 
d="M584 -25q-136 0 -242 69.5t-162.5 188t-56.5 263.5t56.5 262.5t162.5 186.5t242 69q137 0 243 -69t161.5 -186t55.5 -263t-55.5 -264t-161.5 -187.5t-243 -69.5zM584 31q92 0 168 38.5t124.5 103.5t74.5 148t26 175q0 91 -26 173.5t-74.5 147t-124.5 103t-168 38.5
q-121 0 -212.5 -66t-136.5 -170t-45 -226q0 -123 45 -227.5t136.5 -171t212.5 -66.5zM492 1210l-43 13q14 45 48.5 76.5t88.5 31.5q57 0 95 -34.5t38 -102.5q0 -58 -45 -115h-56q54 54 54 115q0 44 -23 68t-63 24q-70 0 -94 -76z" />
    <glyph glyph-name="uni1ED0" unicode="&#x1ed0;" horiz-adv-x="1564" 
d="M1026 1397h-57l-187 184l-180 -184h-57l200 221h74zM1382 1731l-358 -222h-61l327 222h92zM782 -25q-194 0 -343 94.5t-227.5 254.5t-78.5 358t78.5 358t227.5 254.5t343 94.5q193 0 342.5 -94.5t228.5 -255t79 -357.5t-79 -357.5t-228.5 -255t-342.5 -94.5zM782 37
q172 0 304 84t203 230t71 331q0 187 -71 333t-203 229t-304 83q-174 0 -306 -83t-201.5 -229t-69.5 -333q0 -185 69.5 -331t201.5 -230t306 -84z" />
    <glyph glyph-name="uni1ED1" unicode="&#x1ed1;" horiz-adv-x="1167" 
d="M829 1139h-57l-186 245l-180 -245h-58l201 295h74zM1169 1577l-358 -295h-61l327 295h92zM584 -25q-136 0 -242 69.5t-162.5 188t-56.5 263.5t56.5 262.5t162.5 186.5t242 69q137 0 243 -69t161.5 -186t55.5 -263t-55.5 -264t-161.5 -187.5t-243 -69.5zM584 31
q92 0 168 38.5t124.5 103.5t74.5 148t26 175q0 91 -26 173.5t-74.5 147t-124.5 103t-168 38.5q-121 0 -212.5 -66t-136.5 -170t-45 -226q0 -123 45 -227.5t136.5 -171t212.5 -66.5z" />
    <glyph glyph-name="uni1ED2" unicode="&#x1ed2;" horiz-adv-x="1564" 
d="M1026 1397h-57l-187 184l-180 -184h-57l200 221h74zM782 -25q-194 0 -343 94.5t-227.5 254.5t-78.5 358t78.5 358t227.5 254.5t343 94.5q193 0 342.5 -94.5t228.5 -255t79 -357.5t-79 -357.5t-228.5 -255t-342.5 -94.5zM782 37q172 0 304 84t203 230t71 331
q0 187 -71 333t-203 229t-304 83q-174 0 -306 -83t-201.5 -229t-69.5 -333q0 -185 69.5 -331t201.5 -230t306 -84zM602 1509h-61l-359 222h92z" />
    <glyph glyph-name="uni1ED3" unicode="&#x1ed3;" horiz-adv-x="1167" 
d="M825 1139h-57l-186 245l-181 -245h-57l201 295h73zM584 -25q-136 0 -242 69.5t-162.5 188t-56.5 263.5t56.5 262.5t162.5 186.5t242 69q137 0 243 -69t161.5 -186t55.5 -263t-55.5 -264t-161.5 -187.5t-243 -69.5zM584 31q92 0 168 38.5t124.5 103.5t74.5 148t26 175
q0 91 -26 173.5t-74.5 147t-124.5 103t-168 38.5q-121 0 -212.5 -66t-136.5 -170t-45 -226q0 -123 45 -227.5t136.5 -171t212.5 -66.5zM418 1282h-62l-358 295h92z" />
    <glyph glyph-name="uni1ED4" unicode="&#x1ed4;" horiz-adv-x="1564" 
d="M1026 1397h-57l-187 184l-180 -184h-57l200 221h74zM782 -25q-194 0 -343 94.5t-227.5 254.5t-78.5 358t78.5 358t227.5 254.5t343 94.5q193 0 342.5 -94.5t228.5 -255t79 -357.5t-79 -357.5t-228.5 -255t-342.5 -94.5zM782 37q172 0 304 84t203 230t71 331
q0 187 -71 333t-203 229t-304 83q-174 0 -306 -83t-201.5 -229t-69.5 -333q0 -185 69.5 -331t201.5 -230t306 -84zM938 1622l-43 10q14 33 48.5 56.5t88.5 23.5q57 0 95 -25.5t38 -76.5q0 -44 -45 -86h-55q53 39 53 86q0 33 -23 51t-63 18q-71 0 -94 -57z" />
    <glyph glyph-name="uni1ED5" unicode="&#x1ed5;" horiz-adv-x="1167" 
d="M825 1139h-57l-186 245l-181 -245h-57l201 295h73zM584 -25q-136 0 -242 69.5t-162.5 188t-56.5 263.5t56.5 262.5t162.5 186.5t242 69q137 0 243 -69t161.5 -186t55.5 -263t-55.5 -264t-161.5 -187.5t-243 -69.5zM584 31q92 0 168 38.5t124.5 103.5t74.5 148t26 175
q0 91 -26 173.5t-74.5 147t-124.5 103t-168 38.5q-121 0 -212.5 -66t-136.5 -170t-45 -226q0 -123 45 -227.5t136.5 -171t212.5 -66.5zM649 1497l-43 12q14 45 48.5 77t88.5 32q57 0 95.5 -34.5t38.5 -102.5q0 -57 -46 -115h-55q53 53 53 115q0 44 -23 68t-63 24
q-70 0 -94 -76z" />
    <glyph glyph-name="uni1ED6" unicode="&#x1ed6;" horiz-adv-x="1564" 
d="M1024 1389h-57l-187 122l-180 -122h-57l200 147h74zM782 -25q-194 0 -343 94.5t-227.5 254.5t-78.5 358t78.5 358t227.5 254.5t343 94.5q193 0 342.5 -94.5t228.5 -255t79 -357.5t-79 -357.5t-228.5 -255t-342.5 -94.5zM782 37q172 0 304 84t203 230t71 331
q0 187 -71 333t-203 229t-304 83q-174 0 -306 -83t-201.5 -229t-69.5 -333q0 -185 69.5 -331t201.5 -230t306 -84zM907 1550q-44 0 -76 12t-51.5 29t-36.5 33.5t-41.5 28.5t-56.5 12q-54 0 -87.5 -27.5t-33.5 -81.5h-53q0 58 48 98t132 40q44 0 76 -12t51.5 -29.5
t36.5 -34.5t41.5 -29t56.5 -12q54 0 87.5 27.5t33.5 83.5h53q0 -58 -48 -98t-132 -40z" />
    <glyph glyph-name="uni1ED7" unicode="&#x1ed7;" horiz-adv-x="1167" 
d="M819 1071h-57l-187 246l-180 -246h-57l201 295h73zM584 -25q-136 0 -242 69.5t-162.5 188t-56.5 263.5t56.5 262.5t162.5 186.5t242 69q137 0 243 -69t161.5 -186t55.5 -263t-55.5 -264t-161.5 -187.5t-243 -69.5zM584 31q92 0 168 38.5t124.5 103.5t74.5 148t26 175
q0 91 -26 173.5t-74.5 147t-124.5 103t-168 38.5q-121 0 -212.5 -66t-136.5 -170t-45 -226q0 -123 45 -227.5t136.5 -171t212.5 -66.5zM692 1397q-44 0 -76 24t-51.5 57.5t-36.5 67.5t-41.5 58t-56.5 24q-54 0 -87.5 -54.5t-33.5 -164.5h-53q0 116 48 195t132 79
q44 0 76 -24t51.5 -57.5t36.5 -67.5t41.5 -58t56.5 -24q54 0 87.5 54.5t33.5 164.5h53q0 -116 -48 -195t-132 -79z" />
    <glyph glyph-name="uni1ED8" unicode="&#x1ed8;" horiz-adv-x="1564" 
d="M1026 1481h-57l-187 245l-180 -245h-57l200 295h74zM782 -25q-194 0 -343 94.5t-227.5 254.5t-78.5 358t78.5 358t227.5 254.5t343 94.5q193 0 342.5 -94.5t228.5 -255t79 -357.5t-79 -357.5t-228.5 -255t-342.5 -94.5zM782 37q172 0 304 84t203 230t71 331
q0 187 -71 333t-203 229t-304 83q-174 0 -306 -83t-201.5 -229t-69.5 -333q0 -185 69.5 -331t201.5 -230t306 -84zM788 -354q-24 0 -41.5 17.5t-17.5 41.5t17.5 41.5t41.5 17.5q25 0 42.5 -17t17.5 -42t-17.5 -42t-42.5 -17z" />
    <glyph glyph-name="uni1ED9" unicode="&#x1ed9;" horiz-adv-x="1167" 
d="M823 1139h-57l-186 245l-181 -245h-57l201 295h73zM584 -25q-136 0 -242 69.5t-162.5 188t-56.5 263.5t56.5 262.5t162.5 186.5t242 69q137 0 243 -69t161.5 -186t55.5 -263t-55.5 -264t-161.5 -187.5t-243 -69.5zM584 31q92 0 168 38.5t124.5 103.5t74.5 148t26 175
q0 91 -26 173.5t-74.5 147t-124.5 103t-168 38.5q-121 0 -212.5 -66t-136.5 -170t-45 -226q0 -123 45 -227.5t136.5 -171t212.5 -66.5zM584 -354q-24 0 -42 17.5t-18 41.5t18 41.5t42 17.5q25 0 42 -17t17 -42t-17 -42t-42 -17z" />
    <glyph glyph-name="uni1EDA" unicode="&#x1eda;" horiz-adv-x="1564" 
d="M1098 1776l-359 -295h-61l328 295h92zM782 -25q-194 0 -343 94.5t-227.5 254.5t-78.5 358t78.5 358t227.5 254.5t343 94.5q153 0 279.5 -61t214.5 -171q42 36 68 85.5t26 92.5q-12 -2 -16 -2q-29 0 -47.5 20t-18.5 48q0 27 18.5 46t47.5 19q34 0 57 -29t23 -79
q0 -73 -36.5 -141t-88.5 -105q123 -183 123 -430q0 -197 -79 -357.5t-228.5 -255t-342.5 -94.5zM782 37q172 0 304 84t203 230t71 331q0 187 -71 333t-203 229t-304 83q-174 0 -306 -83t-201.5 -229t-69.5 -333q0 -185 69.5 -331t201.5 -230t306 -84z" />
    <glyph glyph-name="uni1EDB" unicode="&#x1edb;" horiz-adv-x="1167" 
d="M899 1434l-358 -295h-62l328 295h92zM1036 1083q0 -66 -30 -128t-76 -103q114 -142 114 -356q0 -146 -55.5 -264t-161.5 -187.5t-243 -69.5q-136 0 -242 69.5t-162.5 188t-56.5 263.5t56.5 262.5t162.5 186.5t242 69q181 0 305 -121q38 37 61 82.5t23 85.5q-13 -2 -17 -2
q-29 0 -47 19.5t-18 47.5q0 27 18.5 46.5t46.5 19.5q34 0 57 -29t23 -80zM584 31q92 0 168 38.5t124.5 103.5t74.5 148t26 175q0 91 -26 173.5t-74.5 147t-124.5 103t-168 38.5q-121 0 -212.5 -66t-136.5 -170t-45 -226q0 -123 45 -227.5t136.5 -171t212.5 -66.5z" />
    <glyph glyph-name="uni1EDC" unicode="&#x1edc;" horiz-adv-x="1564" 
d="M782 -25q-194 0 -343 94.5t-227.5 254.5t-78.5 358t78.5 358t227.5 254.5t343 94.5q153 0 279.5 -61t214.5 -171q42 36 68 85.5t26 92.5q-12 -2 -16 -2q-29 0 -47.5 20t-18.5 48q0 27 18.5 46t47.5 19q34 0 57 -29t23 -79q0 -73 -36.5 -141t-88.5 -105q123 -183 123 -430
q0 -197 -79 -357.5t-228.5 -255t-342.5 -94.5zM782 37q172 0 304 84t203 230t71 331q0 187 -71 333t-203 229t-304 83q-174 0 -306 -83t-201.5 -229t-69.5 -333q0 -185 69.5 -331t201.5 -230t306 -84zM887 1481h-62l-358 295h92z" />
    <glyph glyph-name="uni1EDD" unicode="&#x1edd;" horiz-adv-x="1167" 
d="M1036 1083q0 -66 -30 -128t-76 -103q114 -142 114 -356q0 -146 -55.5 -264t-161.5 -187.5t-243 -69.5q-136 0 -242 69.5t-162.5 188t-56.5 263.5t56.5 262.5t162.5 186.5t242 69q181 0 305 -121q38 37 61 82.5t23 85.5q-13 -2 -17 -2q-29 0 -47 19.5t-18 47.5
q0 27 18.5 46.5t46.5 19.5q34 0 57 -29t23 -80zM584 31q92 0 168 38.5t124.5 103.5t74.5 148t26 175q0 91 -26 173.5t-74.5 147t-124.5 103t-168 38.5q-121 0 -212.5 -66t-136.5 -170t-45 -226q0 -123 45 -227.5t136.5 -171t212.5 -66.5zM688 1139h-61l-359 295h92z" />
    <glyph glyph-name="uni1EDE" unicode="&#x1ede;" horiz-adv-x="1564" 
d="M782 -25q-194 0 -343 94.5t-227.5 254.5t-78.5 358t78.5 358t227.5 254.5t343 94.5q153 0 279.5 -61t214.5 -171q42 36 68 85.5t26 92.5q-12 -2 -16 -2q-29 0 -47.5 20t-18.5 48q0 27 18.5 46t47.5 19q34 0 57 -29t23 -79q0 -73 -36.5 -141t-88.5 -105q123 -183 123 -430
q0 -197 -79 -357.5t-228.5 -255t-342.5 -94.5zM782 37q172 0 304 84t203 230t71 331q0 187 -71 333t-203 229t-304 83q-174 0 -306 -83t-201.5 -229t-69.5 -333q0 -185 69.5 -331t201.5 -230t306 -84zM690 1559l-43 12q14 45 48.5 76.5t88.5 31.5q57 0 95.5 -34.5
t38.5 -102.5q0 -57 -46 -115h-55q53 53 53 115q0 44 -23 68t-63 24q-70 0 -94 -75z" />
    <glyph glyph-name="uni1EDF" unicode="&#x1edf;" horiz-adv-x="1167" 
d="M1036 1083q0 -66 -30 -128t-76 -103q114 -142 114 -356q0 -146 -55.5 -264t-161.5 -187.5t-243 -69.5q-136 0 -242 69.5t-162.5 188t-56.5 263.5t56.5 262.5t162.5 186.5t242 69q181 0 305 -121q38 37 61 82.5t23 85.5q-13 -2 -17 -2q-29 0 -47 19.5t-18 47.5
q0 27 18.5 46.5t46.5 19.5q34 0 57 -29t23 -80zM584 31q92 0 168 38.5t124.5 103.5t74.5 148t26 175q0 91 -26 173.5t-74.5 147t-124.5 103t-168 38.5q-121 0 -212.5 -66t-136.5 -170t-45 -226q0 -123 45 -227.5t136.5 -171t212.5 -66.5zM492 1210l-43 13q14 45 48.5 76.5
t88.5 31.5q57 0 95 -34.5t38 -102.5q0 -58 -45 -115h-56q54 54 54 115q0 44 -23 68t-63 24q-70 0 -94 -76z" />
    <glyph glyph-name="uni1EE0" unicode="&#x1ee0;" horiz-adv-x="1564" 
d="M782 -25q-194 0 -343 94.5t-227.5 254.5t-78.5 358t78.5 358t227.5 254.5t343 94.5q153 0 279.5 -61t214.5 -171q42 36 68 85.5t26 92.5q-12 -2 -16 -2q-29 0 -47.5 20t-18.5 48q0 27 18.5 46t47.5 19q34 0 57 -29t23 -79q0 -73 -36.5 -141t-88.5 -105q123 -183 123 -430
q0 -197 -79 -357.5t-228.5 -255t-342.5 -94.5zM782 37q172 0 304 84t203 230t71 331q0 187 -71 333t-203 229t-304 83q-174 0 -306 -83t-201.5 -229t-69.5 -333q0 -185 69.5 -331t201.5 -230t306 -84zM911 1477q-44 0 -76 24t-51.5 57.5t-36.5 67.5t-41.5 58t-56.5 24
q-54 0 -87.5 -54.5t-33.5 -164.5h-53q0 116 48 195t132 79q44 0 76.5 -24t51.5 -57.5t36.5 -67.5t42 -58t56.5 -24q54 0 87 54.5t33 164.5h54q0 -116 -48.5 -195t-132.5 -79z" />
    <glyph glyph-name="uni1EE1" unicode="&#x1ee1;" horiz-adv-x="1167" 
d="M1036 1083q0 -66 -30 -128t-76 -103q114 -142 114 -356q0 -146 -55.5 -264t-161.5 -187.5t-243 -69.5q-136 0 -242 69.5t-162.5 188t-56.5 263.5t56.5 262.5t162.5 186.5t242 69q181 0 305 -121q38 37 61 82.5t23 85.5q-13 -2 -17 -2q-29 0 -47 19.5t-18 47.5
q0 27 18.5 46.5t46.5 19.5q34 0 57 -29t23 -80zM584 31q92 0 168 38.5t124.5 103.5t74.5 148t26 175q0 91 -26 173.5t-74.5 147t-124.5 103t-168 38.5q-121 0 -212.5 -66t-136.5 -170t-45 -226q0 -123 45 -227.5t136.5 -171t212.5 -66.5zM711 1135q-44 0 -76 24t-51.5 57.5
t-36.5 67.5t-41.5 58t-56.5 24q-54 0 -87.5 -54.5t-33.5 -164.5h-54q0 116 48.5 195t132.5 79q44 0 76 -24t51.5 -57.5t36.5 -67.5t41.5 -58t56.5 -24q54 0 87.5 54.5t33.5 164.5h53q0 -116 -48 -195t-132 -79z" />
    <glyph glyph-name="uni1EE2" unicode="&#x1ee2;" horiz-adv-x="1564" 
d="M782 -25q-194 0 -343 94.5t-227.5 254.5t-78.5 358t78.5 358t227.5 254.5t343 94.5q153 0 279.5 -61t214.5 -171q42 36 68 85.5t26 92.5q-12 -2 -16 -2q-29 0 -47.5 20t-18.5 48q0 27 18.5 46t47.5 19q34 0 57 -29t23 -79q0 -73 -36.5 -141t-88.5 -105q123 -183 123 -430
q0 -197 -79 -357.5t-228.5 -255t-342.5 -94.5zM782 37q172 0 304 84t203 230t71 331q0 187 -71 333t-203 229t-304 83q-174 0 -306 -83t-201.5 -229t-69.5 -333q0 -185 69.5 -331t201.5 -230t306 -84zM784 -354q-24 0 -41.5 17.5t-17.5 41.5t17.5 41.5t41.5 17.5
q25 0 42.5 -17t17.5 -42t-17.5 -42t-42.5 -17z" />
    <glyph glyph-name="uni1EE3" unicode="&#x1ee3;" horiz-adv-x="1167" 
d="M1036 1083q0 -66 -30 -128t-76 -103q114 -142 114 -356q0 -146 -55.5 -264t-161.5 -187.5t-243 -69.5q-136 0 -242 69.5t-162.5 188t-56.5 263.5t56.5 262.5t162.5 186.5t242 69q181 0 305 -121q38 37 61 82.5t23 85.5q-13 -2 -17 -2q-29 0 -47 19.5t-18 47.5
q0 27 18.5 46.5t46.5 19.5q34 0 57 -29t23 -80zM584 31q92 0 168 38.5t124.5 103.5t74.5 148t26 175q0 91 -26 173.5t-74.5 147t-124.5 103t-168 38.5q-121 0 -212.5 -66t-136.5 -170t-45 -226q0 -123 45 -227.5t136.5 -171t212.5 -66.5zM584 -354q-24 0 -42 17.5t-18 41.5
t18 41.5t42 17.5q25 0 42 -17t17 -42t-17 -42t-42 -17z" />
    <glyph glyph-name="uni1EE4" unicode="&#x1ee4;" horiz-adv-x="1376" 
d="M688 -25q-246 0 -377 143.5t-131 399.5v848h66v-848q0 -229 114 -355t328 -126t328 126t114 355v848h66v-848q0 -257 -131 -400t-377 -143zM698 -354q-24 0 -41.5 17.5t-17.5 41.5t17.5 41.5t41.5 17.5q25 0 42.5 -17t17.5 -42t-17.5 -42t-42.5 -17z" />
    </font>
</defs>
</svg>
